<?xml version="1.0" standalone="no"?>
<!DOCTYPE svg PUBLIC "-//W3C//DTD SVG 1.1//EN" "http://www.w3.org/Graphics/SVG/1.1/DTD/svg11.dtd" >
<svg xmlns="http://www.w3.org/2000/svg" xmlns:xlink="http://www.w3.org/1999/xlink" version="1.1">
<metadata>
Created by FontForge 20170731 at Thu Apr  7 13:30:40 2016
 By Aleksey,,,
Copyright (c) 2015 by Latinotype. All rights reserved.
</metadata>
<defs>
<font id="SanaSansAlt-Book" horiz-adv-x="556" >
  <font-face 
    font-family="Sana Sans Alt Book"
    font-weight="400"
    font-stretch="normal"
    units-per-em="1000"
    panose-1="0 0 5 0 0 0 0 0 0 0"
    ascent="800"
    descent="-200"
    x-height="490"
    cap-height="690"
    bbox="-176 -281 1363 939"
    underline-thickness="50"
    underline-position="-200"
    unicode-range="U+0020-FB02"
  />
<missing-glyph horiz-adv-x="640" 
d="M100 720h440v-720h-440v720zM483 55v610h-326v-610h326z" />
    <glyph glyph-name="fi" unicode="fi" horiz-adv-x="563" 
d="M474 490v-490h-52l1 448h-260v-448h-51v448h-86v42h86v58q0 97 30.5 139.5t104.5 42.5q45 0 91 -13l-9 -44q-30 11 -74 11q-55 0 -73.5 -28.5t-18.5 -105.5v-60h311zM447 690q18 0 29 -11t11 -29t-11 -29t-29 -11t-28.5 11t-10.5 29t10.5 29t28.5 11z" />
    <glyph glyph-name="fl" unicode="fl" horiz-adv-x="619" 
d="M598 41l6 -38q-33 -11 -68 -11q-55 0 -85 36.5t-30 106.5l1 311h-259v-446h-51v446h-86v44h86v58q0 97 30.5 139.5t104.5 42.5q47 0 92 -13l-9 -44q-32 11 -75 11q-55 0 -73.5 -28.5t-18.5 -105.5v-60h259v230h51v-570q0 -60 19.5 -86t62.5 -26q7 0 14 0.5t12 1t9 0.5h6z
" />
    <glyph glyph-name=".notdef" horiz-adv-x="640" 
d="M100 720h440v-720h-440v720zM483 55v610h-326v-610h326z" />
    <glyph glyph-name=".null" horiz-adv-x="0" 
 />
    <glyph glyph-name="nonmarkingreturn" horiz-adv-x="333" 
 />
    <glyph glyph-name="space" unicode=" " horiz-adv-x="261" 
 />
    <glyph glyph-name="exclam" unicode="!" horiz-adv-x="265" 
d="M109 188l-6 287v245h55v-243l-6 -289h-43zM132 -10q-20 0 -32 12.5t-12 32.5t12.5 33t31.5 13q20 0 32.5 -13t12.5 -33t-12.5 -32.5t-32.5 -12.5z" />
    <glyph glyph-name="quotedbl" unicode="&#x22;" horiz-adv-x="263" 
d="M45 473l-10 227h58l-9 -227h-39zM180 473l-10 227h59l-9 -227h-40z" />
    <glyph glyph-name="numbersign" unicode="#" horiz-adv-x="637" 
d="M125 0l30 210h-123l5 42h125l26 183h-132l4 42h134l31 213h49l-31 -213h193l31 213h49l-31 -213h122l-6 -42h-122l-26 -183h130l-6 -42h-131l-30 -210h-49l30 210h-193l-30 -210h-49zM210 252h194l26 183h-194z" />
    <glyph glyph-name="dollar" unicode="$" horiz-adv-x="551" 
d="M262 732v123h47v-123h-47zM269 -9q-113 0 -216 49l19 42q94 -46 197 -46q80 0 127 38t47 102q0 52 -39 85.5t-94 52t-110.5 40t-94.5 64.5t-39 110q0 82 59.5 127t165.5 45q103 0 191 -44l-18 -43q-82 42 -174 42q-82 0 -127 -32t-45 -92q0 -40 21 -69t54 -46.5
t73.5 -32.5t81 -31t73.5 -36t54 -54.5t21 -80.5q0 -88 -61.5 -139t-165.5 -51zM257 -164v123h48v-123h-48z" />
    <glyph glyph-name="percent" unicode="%" horiz-adv-x="811" 
d="M205 5l368 717l44 -17l-369 -717zM185 332q-68 0 -108.5 50t-40.5 132q0 83 41.5 134t110.5 51q67 0 107 -50t40 -132q0 -84 -40.5 -134.5t-109.5 -50.5zM187 374q47 0 75 38.5t28 102.5q0 65 -28 103.5t-75 38.5q-48 0 -76.5 -38.5t-28.5 -103.5q0 -64 28.5 -102.5
t76.5 -38.5zM625 -8q-68 0 -108.5 50t-40.5 133q0 84 41 134t111 50q67 0 107 -49.5t40 -131.5q0 -84 -40.5 -135t-109.5 -51zM627 34q47 0 75 39t28 103t-28 103t-76 39q-47 0 -75.5 -39t-28.5 -103t28.5 -103t76.5 -39z" />
    <glyph glyph-name="ampersand" unicode="&#x26;" horiz-adv-x="644" 
d="M665 -8l-27 -42q-101 65 -178 123q-78 -83 -197 -83q-103 0 -161 43t-58 115q0 112 129 205q-72 103 -72 187q-1 72 41.5 115.5t119.5 43.5q61 0 128 -33l-19 -42q-61 31 -109 31q-54 -1 -84 -32t-30 -82q0 -164 306 -401q53 85 38 193h2l-2 3v31h159v-43h-110
q11 -120 -50 -212q87 -65 174 -120zM263 37q99 1 161 65q-138 107 -225 216q-105 -80 -105 -163q0 -55 45 -87t124 -31z" />
    <glyph glyph-name="quotesingle" unicode="'" horiz-adv-x="114" 
d="M29 473l-10 227h58l-8 -227h-40z" />
    <glyph glyph-name="parenleft" unicode="(" horiz-adv-x="304" 
d="M233 -207q-160 206 -163 473q0 264 163 474l36 -20q-143 -205 -145 -454q2 -249 145 -454z" />
    <glyph glyph-name="parenright" unicode=")" horiz-adv-x="304" 
d="M71 -207l-36 19q143 205 145 454q-2 249 -145 454l36 20q163 -210 163 -474q-3 -267 -163 -473z" />
    <glyph glyph-name="asterisk" unicode="*" horiz-adv-x="358" 
d="M149 569l-7 121h45l-7 -122zM125 535l-110 55l23 40l102 -67zM203 535l-15 28l103 67l22 -40zM38 430l-23 39l110 55l15 -27zM291 430l-103 67l15 27l110 -55zM142 370l7 121l31 1l7 -122h-45z" />
    <glyph glyph-name="plus" unicode="+" horiz-adv-x="550" 
d="M255 34v214h-209v42h209v211h46v-211h204v-42h-204v-214h-46z" />
    <glyph glyph-name="comma" unicode="," horiz-adv-x="158" 
d="M68 -124l-30 10q34 63 28 105q-16 2 -26 13.5t-10 30.5q0 21 12 33.5t32 12.5q21 0 33 -14.5t12 -40.5q0 -73 -51 -150z" />
    <glyph glyph-name="hyphen" unicode="-" horiz-adv-x="395" 
d="M54 273v42h286v-42h-286z" />
    <glyph glyph-name="period" unicode="." horiz-adv-x="173" 
d="M35 35q0 21 12 33.5t32 12.5t32 -12.5t12 -33.5q0 -20 -12 -32.5t-32 -12.5t-32 12.5t-12 32.5z" />
    <glyph glyph-name="slash" unicode="/" horiz-adv-x="450" 
d="M33 -89l353 827l44 -18l-353 -824z" />
    <glyph glyph-name="zero" unicode="0" horiz-adv-x="597" 
d="M298 -10q-84 0 -142.5 51.5t-84 129.5t-25.5 173q0 96 25.5 174t84 129.5t143.5 51.5q64 0 113.5 -29.5t79 -80t44.5 -112.5t15 -132q0 -97 -26 -175t-84.5 -129t-142.5 -51zM299 36q98 0 148 87.5t50 220.5q0 132 -50.5 220.5t-148.5 88.5t-148.5 -88t-50.5 -220
t51 -220.5t149 -88.5z" />
    <glyph glyph-name="one" unicode="1" horiz-adv-x="411" 
d="M242 47h138l-6 -47h-337v47h152v591h-153v45l186 7h20v-643z" />
    <glyph glyph-name="two" unicode="2" horiz-adv-x="551" 
d="M62 0v33q14 13 40 38q176 169 230 235q93 113 93 206q0 65 -39.5 102t-103.5 38q-84 1 -182 -53l-18 40q98 61 200 60q90 0 142.5 -49.5t52.5 -137.5q0 -28 -5 -54.5t-19 -55.5t-25.5 -51t-39.5 -55.5t-46 -54.5t-59 -61t-64.5 -62.5t-75.5 -71.5h348l-6 -46h-423z" />
    <glyph glyph-name="three" unicode="3" horiz-adv-x="524" 
d="M221 -10q-89 0 -168 37l15 44q79 -34 156 -34q90 0 138.5 43.5t48.5 112.5q0 67 -60.5 107.5t-140.5 40.5h-60l6 47h54q59 0 116 40.5t57 109.5q0 56 -38 85.5t-105 29.5q-76 0 -157 -39l-17 41q87 46 181 46q88 0 138 -44t50 -113q0 -56 -36.5 -103.5t-96.5 -69.5v-3
q71 -15 115.5 -62t44.5 -113q0 -91 -64.5 -147t-176.5 -56z" />
    <glyph glyph-name="four" unicode="4" horiz-adv-x="553" 
d="M373 -1v178h-340l-7 44l323 478l55 -10l-313 -462v-3h282v242h51v-242h94l-6 -47h-88v-178h-51z" />
    <glyph glyph-name="five" unicode="5" horiz-adv-x="537" 
d="M155 411q17 2 53 2q113 0 184 -55.5t71 -144.5q0 -102 -68.5 -162.5t-183.5 -60.5q-82 0 -140 25l12 44q59 -22 135 -22q88 0 140.5 46.5t52.5 127.5q0 71 -60 114t-158 43q-40 0 -92 -4l-3 4l31 324h316v-47h-269z" />
    <glyph glyph-name="six" unicode="6" horiz-adv-x="540" 
d="M289 425q88 0 143.5 -58t55.5 -149q0 -102 -58 -165t-154 -63q-98 0 -157 79.5t-59 208.5q0 83 24.5 158t71 134t121.5 94t169 35l4 -45q-144 0 -234.5 -89t-105.5 -233q29 43 76.5 68t102.5 25zM279 35q72 0 115 48.5t43 130.5q-1 73 -44 119.5t-109 46.5
q-55 0 -101.5 -26t-75.5 -73v-5q0 -109 47.5 -175t124.5 -66z" />
    <glyph glyph-name="seven" unicode="7" horiz-adv-x="521" 
d="M140 0h-57l315 643v2l-51 -2h-283v47h395v-40z" />
    <glyph glyph-name="eight" unicode="8" horiz-adv-x="542" 
d="M84 527q0 78 52.5 125.5t137.5 47.5q81 0 131.5 -45.5t50.5 -119.5q0 -53 -30 -99t-89 -70v-2q69 -27 109.5 -75t40.5 -106q0 -88 -60.5 -140.5t-159.5 -52.5q-98 0 -157.5 50.5t-59.5 134.5q0 59 40 109t108 81v2q-51 19 -82.5 63t-31.5 97zM284 380q54 16 88.5 57.5
t35.5 96.5q0 55 -37.5 87.5t-97.5 32.5q-63 0 -102 -33t-39 -89q2 -118 152 -152zM253 344q-68 -24 -109.5 -68t-41.5 -96q0 -65 45.5 -104t120.5 -39t121 38t46 101q0 57 -51 103t-131 65z" />
    <glyph glyph-name="nine" unicode="9" horiz-adv-x="539" 
d="M267 699q99 0 158 -79t59 -209q0 -83 -24.5 -157.5t-71.5 -134t-122 -94.5t-169 -35l-3 45q142 0 232 87.5t106 229.5q-28 -41 -75 -64t-103 -23q-87 0 -142.5 58t-55.5 149q0 102 58 164.5t153 62.5zM260 309q113 0 176 94v10q0 110 -47 175.5t-125 65.5
q-71 0 -114.5 -48.5t-42.5 -129.5q0 -74 43 -120.5t110 -46.5z" />
    <glyph glyph-name="colon" unicode=":" horiz-adv-x="182" 
d="M35 454q0 21 12 33.5t32 12.5t32 -12.5t12 -33.5q0 -20 -12 -32.5t-32 -12.5t-32 12.5t-12 32.5zM35 35q0 21 12 33.5t32 12.5t32 -12.5t12 -33.5q0 -20 -12 -32.5t-32 -12.5t-32 12.5t-12 32.5z" />
    <glyph glyph-name="semicolon" unicode=";" horiz-adv-x="194" 
d="M86 407q-20 0 -32 12.5t-12 32.5q0 21 12 33.5t32 12.5t32.5 -12.5t12.5 -33.5q0 -20 -12.5 -32.5t-32.5 -12.5zM77 -123l-29 10q33 61 28 104q-17 2 -26.5 13.5t-9.5 30.5q0 21 11.5 33.5t32.5 12.5q44 0 44 -55q1 -33 -14 -75t-37 -74z" />
    <glyph glyph-name="less" unicode="&#x3c;" horiz-adv-x="378" 
d="M333 29l-306 205v37l306 205v-51l-256 -171v-3l256 -172v-50z" />
    <glyph glyph-name="equal" unicode="=" horiz-adv-x="559" 
d="M48 346v42h464v-42h-464zM48 159v42h464v-42h-464z" />
    <glyph glyph-name="greater" unicode="&#x3e;" horiz-adv-x="378" 
d="M37 29v50l255 172v3l-255 171v51l306 -205v-37z" />
    <glyph glyph-name="question" unicode="?" horiz-adv-x="408" 
d="M174 730q88 0 134.5 -42.5t46.5 -123.5q0 -43 -17.5 -80t-42.5 -64t-49.5 -53t-42 -59t-17.5 -71v-48h-48v53q0 42 17 78t41.5 61.5t49 50.5t41.5 57.5t17 70.5q0 124 -138 124q-57 0 -105 -15l-11 44q55 17 124 17zM169 81q20 0 32.5 -13t12.5 -33t-12.5 -32.5
t-32.5 -12.5t-32.5 12.5t-12.5 32.5t12.5 33t32.5 13z" />
    <glyph glyph-name="at" unicode="@" horiz-adv-x="912" 
d="M463 699q182 0 291 -110.5t109 -292.5q0 -120 -52.5 -194t-136.5 -74q-98 0 -117 73q-54 -72 -155 -72q-55 1 -89.5 31.5t-34.5 77.5q0 61 57 91.5t163 30.5h54v41q0 62 -25.5 93t-82.5 31q-73 0 -135 -36l-14 39q64 41 154 41q148 0 148 -165v-123q0 -62 17 -86.5
t63 -24.5q62 0 101.5 61.5t39.5 161.5q0 162 -98.5 262.5t-258.5 100.5q-170 0 -278.5 -111t-108.5 -282q0 -175 105.5 -284t274.5 -109q107 0 194 41l16 -37q-83 -48 -211 -48q-191 0 -307.5 119.5t-116.5 315.5q0 194 120.5 316t313.5 122zM552 168v52h-55
q-175 0 -175 -77q0 -33 24.5 -53t64.5 -20q60 0 100.5 35t40.5 63z" />
    <glyph glyph-name="A" unicode="A" horiz-adv-x="662" 
d="M572 0l-76 203h-326l-75 -203h-56l260 690h67l261 -690h-55zM187 247h293l-107 285q-2 4 -9.5 24.5t-16 42t-13.5 36.5h-3l-39 -104z" />
    <glyph glyph-name="B" unicode="B" horiz-adv-x="606" 
d="M89 0v690h214q103 0 157.5 -44.5t54.5 -128.5q0 -57 -31.5 -100.5t-82.5 -58.5v-4q60 -8 105 -51.5t45 -116.5q0 -85 -61 -135.5t-167 -50.5h-234zM143 374h162q75 0 116 42.5t41 97.5q0 65 -41.5 99t-121.5 34h-156v-273zM143 43h171q85 0 134.5 40t49.5 106
q0 67 -53.5 104t-135.5 37h-166v-287z" />
    <glyph glyph-name="C" unicode="C" horiz-adv-x="610" 
d="M557 80l18 -44q-82 -46 -202 -46q-153 0 -237.5 94t-84.5 262q0 167 85.5 260.5t239.5 93.5h1q111 0 194 -45l-19 -44q-71 41 -176 41q-129 0 -200 -81t-71 -226t70.5 -226t197.5 -81q108 0 184 42z" />
    <glyph glyph-name="D" unicode="D" horiz-adv-x="676" 
d="M267 690q173 0 268.5 -90t95.5 -253q0 -165 -96.5 -256t-269.5 -91h-176v690h178zM260 646h-118v-602h118q150 0 234 79.5t84 223.5q0 141 -84 220t-234 79z" />
    <glyph glyph-name="E" unicode="E" horiz-adv-x="559" 
d="M143 44h367l-6 -44h-415v690h416v-44h-362v-275h307v-43h-307v-284z" />
    <glyph glyph-name="F" unicode="F" horiz-adv-x="542" 
d="M507 646h-364v-276h307v-43h-307v-327h-54v691h418v-45z" />
    <glyph glyph-name="G" unicode="G" horiz-adv-x="660" 
d="M382 332h215v-275q-110 -67 -224 -67q-154 0 -238 92.5t-84 262.5q0 162 82.5 258.5t239.5 96.5q116 0 198 -46l-19 -41q-72 41 -179 41q-127 0 -197.5 -81t-70.5 -228t70.5 -228t197.5 -81q93 0 174 48v204h-165v44z" />
    <glyph glyph-name="H" unicode="H" horiz-adv-x="700" 
d="M557 691h53v-691h-53v322h-415v-322h-53v691h53v-324h415v324z" />
    <glyph glyph-name="I" unicode="I" horiz-adv-x="234" 
d="M143 690v-690h-54v690h54z" />
    <glyph glyph-name="J" unicode="J" horiz-adv-x="377" 
d="M145 -10q-71 0 -119 24l12 40q44 -19 101 -19q47 0 73.5 27t26.5 74v510h-162v44h215v-552q0 -69 -39 -108.5t-108 -39.5z" />
    <glyph glyph-name="K" unicode="K" horiz-adv-x="565" 
d="M259 348l293 -342v-6h-62l-278 323h-69v-323h-54v690h54v-321h65l263 321h60v-7l-272 -330v-5z" />
    <glyph glyph-name="L" unicode="L" horiz-adv-x="523" 
d="M143 690v-646h367l-5 -44h-416v690h54z" />
    <glyph glyph-name="M" unicode="M" horiz-adv-x="814" 
d="M89 0v691h62l256 -446h2l252 446h62v-691h-51v610l-248 -438h-32l-252 438v-610h-51z" />
    <glyph glyph-name="N" unicode="N" horiz-adv-x="698" 
d="M89 0v690h53l409 -600h6v600h51v-690h-52l-409 602h-7v-602h-51z" />
    <glyph glyph-name="O" unicode="O" horiz-adv-x="724" 
d="M362 700q142 0 226.5 -97t84.5 -258t-84.5 -258t-226.5 -97t-226.5 97t-84.5 258t84.5 258t226.5 97zM362 37q117 0 187 83t70 225t-70 225t-187 83t-187 -83t-70 -225t70 -225t187 -83z" />
    <glyph glyph-name="P" unicode="P" horiz-adv-x="586" 
d="M275 690q133 0 203.5 -57t70.5 -164q0 -104 -72.5 -163t-201.5 -59h-132v-247h-54v690h186zM276 646h-133v-354h133q103 0 161 47t58 130q0 87 -56 132t-163 45z" />
    <glyph glyph-name="Q" unicode="Q" horiz-adv-x="724" 
d="M375 -10q67 -102 290 -102l-2 -51q-136 0 -224 42t-123 114q-122 16 -193.5 110.5t-71.5 241.5q0 161 84.5 258t226.5 97t226.5 -97t84.5 -258q0 -157 -81 -254t-217 -101zM105 345q0 -142 70 -225t187 -83t187 83t70 225t-70 225t-187 83t-187 -83t-70 -225z" />
    <glyph glyph-name="R" unicode="R" horiz-adv-x="595" 
d="M380 255l181 -249v-6h-57l-182 251q-11 13 -20.5 17.5t-29.5 4.5h-130v-273h-53v690h196q117 0 185 -54.5t68 -149.5q0 -74 -48 -129.5t-128 -74.5v-5l6 -7q7 -8 12 -15zM142 317h134q91 0 150 47t59 121q0 76 -55 118.5t-150 42.5h-138v-329z" />
    <glyph glyph-name="S" unicode="S" 
d="M294 700q111 0 193 -44l-18 -43q-76 42 -176 42q-80 0 -126 -33t-46 -93q0 -39 21 -68t54.5 -46.5t74 -32t81 -30.5t74 -36.5t54.5 -55t21 -80.5q0 -87 -64 -138t-173 -51q-122 0 -211 49l20 43q83 -47 191 -47q84 0 134 38t50 101q0 39 -21 67t-54.5 45t-73.5 31
t-80.5 30t-74 36.5t-54.5 56.5t-21 85q0 83 59.5 128.5t165.5 45.5z" />
    <glyph glyph-name="T" unicode="T" horiz-adv-x="542" 
d="M533 690v-45h-235v-645h-54v645h-236v45h525z" />
    <glyph glyph-name="U" unicode="U" horiz-adv-x="693" 
d="M346 -10q-122 0 -191 60t-69 189v451h54v-449q0 -101 54 -152.5t152 -51.5q99 0 153 51.5t54 152.5v449h54v-451q0 -129 -69.5 -189t-191.5 -60z" />
    <glyph glyph-name="V" unicode="V" horiz-adv-x="612" 
d="M272 0l-256 683v7h54l209 -565q25 -68 25 -69h4q13 38 26 70l208 564h53v-7l-255 -683h-68z" />
    <glyph glyph-name="W" unicode="W" horiz-adv-x="996" 
d="M246 0l-221 690h51l178 -558q3 -13 10 -36.5t9 -33.5h5l18 72l177 557h50l176 -557q10 -33 19 -72h5q3 13 10 37.5t9 33.5l178 557h51l-221 -690h-55l-175 544q-8 29 -18 71h-8q-10 -42 -18 -71l-174 -544h-56z" />
    <glyph glyph-name="X" unicode="X" horiz-adv-x="621" 
d="M37 0v6l238 343v4l-231 330v7h58l206 -299h5l203 299h60v-7l-233 -330v-4l240 -343v-6h-61l-210 310h-4l-211 -310h-60z" />
    <glyph glyph-name="Y" unicode="Y" horiz-adv-x="576" 
d="M267 0v300l-241 383v7h57l209 -343h4l208 343h57v-7l-241 -383v-300h-53z" />
    <glyph glyph-name="Z" unicode="Z" horiz-adv-x="584" 
d="M44 0v38l440 605v4q-11 0 -59 -2h-367v45h489v-39l-439 -604v-4q8 1 24 1t24 1h393l-6 -45h-499z" />
    <glyph glyph-name="bracketleft" unicode="[" horiz-adv-x="288" 
d="M85 -159v879h177v-42h-127v-795h127v-42h-177z" />
    <glyph glyph-name="backslash" unicode="\" horiz-adv-x="450" 
d="M412 -89l-44 -15l-353 824l44 18z" />
    <glyph glyph-name="bracketright" unicode="]" horiz-adv-x="288" 
d="M231 -159h-177v42h127v795h-127v42h177v-879z" />
    <glyph glyph-name="asciicircum" unicode="^" horiz-adv-x="467" 
d="M45 384l171 306h36l170 -306h-51l-136 256h-3l-137 -256h-50z" />
    <glyph glyph-name="underscore" unicode="_" horiz-adv-x="466" 
d="M-1 -124v42h468v-42h-468z" />
    <glyph glyph-name="grave" unicode="`" horiz-adv-x="322" 
d="M65 662v5l26 42l168 -117l-23 -35z" />
    <glyph glyph-name="a" unicode="a" horiz-adv-x="541" 
d="M247 -10q-90 0 -144.5 63t-54.5 175q0 118 72 195t177 77q76 0 153 -38v-355l4 -107h-45l-6 71h-2q-23 -35 -65.5 -58t-88.5 -23zM253 33q59 1 101 36t45 63v302q-53 22 -105 22q-81 0 -137.5 -62.5t-56.5 -158.5q0 -104 44.5 -153.5t108.5 -48.5z" />
    <glyph glyph-name="b" unicode="b" horiz-adv-x="552" 
d="M296 -11q-97 0 -162 77h-4l-9 -66h-35v720h52v-294h4q66 74 156 74q96 0 149 -67.5t53 -187.5q0 -121 -53.5 -188.5t-150.5 -67.5zM289 35q75 0 117 55.5t42 154.5t-42 154.5t-117 55.5q-88 0 -152 -81v-260q61 -79 152 -79z" />
    <glyph glyph-name="c" unicode="c" horiz-adv-x="446" 
d="M275 -10q-108 0 -167.5 69.5t-59.5 185.5q0 117 59.5 186t170.5 69q79 0 131 -33l-13 -41q-48 28 -119 28q-86 0 -131.5 -56t-45.5 -153t46 -153t131 -56q73 0 121 30l12 -42q-51 -34 -135 -34z" />
    <glyph glyph-name="d" unicode="d" horiz-adv-x="550" 
d="M255 -11q-99 0 -153 67.5t-54 188.5t55 188t157 67q84 0 147 -67h4v287h52v-720h-35l-9 67h-4q-67 -78 -160 -78zM263 34q86 0 149 78v266q-61 78 -149 78q-78 0 -120.5 -55.5t-42.5 -155.5t42.5 -155.5t120.5 -55.5z" />
    <glyph glyph-name="e" unicode="e" horiz-adv-x="475" 
d="M420 87l19 -39q-82 -58 -170 -58q-108 0 -164.5 72.5t-56.5 178.5q0 119 63.5 188.5t160.5 69.5q74 0 117.5 -37t43.5 -93t-49 -98t-123.5 -61.5t-157.5 -16.5q11 -73 54 -115t116 -42q63 0 147 51zM270 455q-77 0 -125 -61.5t-46 -158.5q68 -4 132.5 10.5t107.5 46.5
t43 74q0 40 -30.5 64.5t-81.5 24.5z" />
    <glyph glyph-name="f" unicode="f" horiz-adv-x="312" 
d="M247 730q41 0 86 -13l-9 -44q-30 11 -69 11q-55 -1 -73.5 -29t-18.5 -105v-60h127v-44h-127v-446h-51v446h-86v44h86v58q0 97 30.5 139t104.5 43z" />
    <glyph glyph-name="g" unicode="g" horiz-adv-x="531" 
d="M262 -230q-92 0 -165 39l17 43q62 -36 151 -36q71 0 106 50.5t35 134.5l-1 68h-2q-23 -35 -64.5 -57t-87.5 -22q-93 0 -148 63t-55 175q0 119 72.5 195.5t180.5 76.5q76 0 153 -38v-457q0 -107 -48 -171t-144 -64zM257 33q59 1 101 36t45 63v301q-53 22 -105 22
q-84 0 -141 -62t-57 -158q0 -105 45.5 -154t111.5 -48z" />
    <glyph glyph-name="h" unicode="h" horiz-adv-x="559" 
d="M89 0v720h52v-296h4q65 76 162 76q85 0 125 -46.5t40 -143.5v-310h-52v305q0 78 -30.5 114t-95.5 36q-91 0 -153 -83v-372h-52z" />
    <glyph glyph-name="i" unicode="i" horiz-adv-x="232" 
d="M116 610q-18 0 -29 11t-11 29t11 29t29 11q17 0 28 -11t11 -29t-11 -29t-28 -11zM90 0l1 490h52v-490h-53z" />
    <glyph glyph-name="j" unicode="j" horiz-adv-x="244" 
d="M123 610q-18 0 -28.5 11t-10.5 29t10.5 29t28.5 11t29 -11t11 -29t-11 -29t-29 -11zM0 -230l-8 42q59 14 81.5 54t23.5 130v494h52v-487q4 -219 -149 -233z" />
    <glyph glyph-name="k" unicode="k" horiz-adv-x="482" 
d="M241 261l227 -255v-6h-61l-210 238h-57v-238h-51v720h51v-435h56l190 205h59v-6l-204 -219v-4z" />
    <glyph glyph-name="l" unicode="l" horiz-adv-x="275" 
d="M194 -8q-105 0 -105 143l1 585h51v-570q0 -62 15.5 -87t56.5 -25q21 0 39 3l6 -40q-21 -9 -64 -9z" />
    <glyph glyph-name="m" unicode="m" horiz-adv-x="863" 
d="M614 500q85 0 123 -46.5t38 -143.5v-310h-52v305q0 79 -28.5 114.5t-93.5 35.5q-87 0 -147 -82q4 -25 4 -63v-310h-52v305q0 79 -28 114.5t-94 35.5q-86 0 -146 -81v-374h-52v490h41l5 -70h4q66 80 161 80q110 0 145 -84h8q68 84 164 84z" />
    <glyph glyph-name="n" unicode="n" horiz-adv-x="557" 
d="M304 500q86 0 126 -46.5t40 -143.5v-310h-52v305q0 78 -30.5 114t-95.5 36q-91 0 -153 -83v-372h-52v490h41l5 -71h4q67 81 167 81z" />
    <glyph glyph-name="o" unicode="o" horiz-adv-x="544" 
d="M273 500q100 0 161.5 -70t62.5 -184q0 -115 -61.5 -185.5t-162.5 -70.5q-100 0 -162 70t-63 184q1 115 62.5 185.5t162.5 70.5zM273 456q-78 0 -125.5 -58t-47.5 -153t47.5 -153t125.5 -58q77 0 124.5 58t47.5 153t-47.5 153t-124.5 58z" />
    <glyph glyph-name="p" unicode="p" horiz-adv-x="552" 
d="M86 -220v710h40l5 -69h4q68 79 162 79q96 0 149 -67.5t53 -187.5q0 -121 -53.5 -188.5t-152.5 -67.5q-93 0 -151 68h-4v-277h-52zM287 34q76 0 118 55.5t42 155.5t-41.5 155.5t-115.5 55.5q-89 0 -154 -84v-258q62 -80 151 -80z" />
    <glyph glyph-name="q" unicode="q" horiz-adv-x="531" 
d="M403 -220v290h-2q-23 -36 -63.5 -58t-86.5 -22q-93 0 -148 63t-55 175q0 119 72.5 195.5t180.5 76.5q76 0 153 -38v-682h-51zM257 33q59 1 101 36t45 63v302q-53 22 -105 22q-84 0 -141 -62.5t-57 -158.5q0 -105 45.5 -154t111.5 -48z" />
    <glyph glyph-name="r" unicode="r" horiz-adv-x="343" 
d="M86 0v490h41l6 -83h4q67 92 166 93q3 0 6.5 -0.5t4.5 -0.5l-4 -48h-10q-46 -1 -89.5 -28.5t-72.5 -73.5v-349h-52z" />
    <glyph glyph-name="s" unicode="s" horiz-adv-x="431" 
d="M207 -10q-89 0 -156 42l14 44q73 -40 144 -40q55 0 90.5 24t36.5 63q0 36 -28.5 58t-69 35t-81 27.5t-69 45.5t-28.5 79q0 60 47.5 96t128.5 36t134 -33l-15 -44q-55 30 -122 30q-57 0 -90 -22t-33 -60q0 -35 28.5 -58.5t69 -37.5t81 -29.5t69 -45.5t28.5 -74
q-2 -62 -50 -99t-129 -37z" />
    <glyph glyph-name="t" unicode="t" horiz-adv-x="346" 
d="M313 446h-150v-299q0 -55 17.5 -80.5t57.5 -25.5q41 0 69 6l5 -40q-37 -13 -87 -13q-113 0 -113 142l-1 310h-94v44h95l13 145h38v-145h150v-44z" />
    <glyph glyph-name="u" unicode="u" 
d="M469 490v-490h-42l-5 68h-3q-68 -78 -168 -78q-85 0 -125 46.5t-40 143.5v310h52v-305q0 -78 30.5 -114t95.5 -36q91 0 153 82v373h52z" />
    <glyph glyph-name="v" unicode="v" horiz-adv-x="502" 
d="M223 0l-197 484v6h54l169 -435h2l170 435h54v-6l-198 -484h-54z" />
    <glyph glyph-name="w" unicode="w" horiz-adv-x="757" 
d="M185 0l-153 490h53l127 -437h3l136 437h55l136 -437h3l127 437h53l-153 -490h-59l-131 415h-7l-131 -415h-59z" />
    <glyph glyph-name="x" unicode="x" horiz-adv-x="473" 
d="M27 0v7l172 242v4l-166 231v6h58l143 -202h4l145 202h58v-6l-169 -231v-4l174 -242v-7h-58l-149 212h-5l-150 -212h-57z" />
    <glyph glyph-name="y" unicode="y" horiz-adv-x="487" 
d="M38 -222l7 42q18 -3 33 -3q40 0 65 24t46 80l30 79h-12l-190 484v6h53l167 -436h3l172 436h52v-6l-226 -563q-30 -77 -66.5 -113t-89.5 -36q-20 0 -44 6z" />
    <glyph glyph-name="z" unicode="z" horiz-adv-x="436" 
d="M36 0v33l300 412v4q-32 -2 -63 -2l-224 1v42h349v-36l-298 -410v-3q31 2 49 2l253 -1l-6 -42h-360z" />
    <glyph glyph-name="braceleft" unicode="{" horiz-adv-x="340" 
d="M234 -159q-43 0 -70 29t-27 78v203q0 53 -30.5 83t-78.5 31v42q48 2 78.5 32t30.5 83v191q0 49 27 78t70 29h80v-42h-68q-28 0 -43.5 -20t-15.5 -54v-193q0 -51 -28.5 -84t-63.5 -39v-3q36 -7 64 -40t28 -84v-205q0 -34 15.5 -53.5t43.5 -19.5h68v-42h-80z" />
    <glyph glyph-name="bar" unicode="|" horiz-adv-x="288" 
d="M120 -271v1031h48v-1031h-48z" />
    <glyph glyph-name="braceright" unicode="}" horiz-adv-x="340" 
d="M108 -159h-80v42h67q28 0 44 19t16 54v205q0 51 28 84t63 40v3q-35 6 -63 39t-28 84v193q0 34 -16 54t-44 20h-67v42h80q43 0 70 -29t27 -78v-191q0 -53 30.5 -83t77.5 -32v-42q-47 -1 -77.5 -31t-30.5 -83v-203q0 -49 -27 -78t-70 -29z" />
    <glyph glyph-name="asciitilde" unicode="~" horiz-adv-x="577" 
d="M177 345q51 0 116.5 -37.5t109.5 -37.5q55 0 96 51l26 -29q-21 -29 -54.5 -47t-69.5 -18q-52 0 -117 37.5t-110 37.5q-53 0 -96 -51l-26 29q22 30 55.5 47.5t69.5 17.5z" />
    <glyph glyph-name="exclamdown" unicode="&#xa1;" horiz-adv-x="264" 
d="M131 411q-19 0 -31.5 13t-12.5 33t12.5 33t31.5 13q20 0 32.5 -13t12.5 -33t-12.5 -33t-32.5 -13zM102 -227v245l7 286h42l6 -288v-243h-55z" />
    <glyph glyph-name="cent" unicode="&#xa2;" horiz-adv-x="500" 
d="M273 569v115h51v-115h-51zM299 -10q-120 0 -185.5 74t-65.5 200t66.5 200.5t189.5 74.5q79 0 157 -35l-15 -43q-73 31 -142 31q-96 0 -148.5 -61t-52.5 -167t52 -166.5t148 -60.5q69 0 145 33l13 -44q-74 -36 -162 -36zM273 -156v115h50v-115h-50z" />
    <glyph glyph-name="sterling" unicode="&#xa3;" horiz-adv-x="561" 
d="M171 313v-268h375l-6 -45h-510v45h90v268h-94l10 43h84v50q0 60 11.5 109.5t37.5 93t75 67.5t118 24q108 0 186 -48l-17 -39q-72 42 -169 42q-191 0 -191 -250v-49h278l-10 -43h-268z" />
    <glyph glyph-name="currency" unicode="&#xa4;" horiz-adv-x="513" 
d="M466 107l-33 -31l-70 72q-46 -33 -107 -33q-62 0 -105 32l-70 -71l-33 32l71 71q-33 46 -33 111q0 64 32 110l-70 70l32 31l68 -70q45 34 110 34q63 0 107 -33l68 69l32 -31l-69 -70q32 -44 32 -108q0 -66 -34 -112zM257 156q56 0 91 37.5t35 97.5t-35 96.5t-91 36.5
t-91 -36.5t-35 -96.5t35 -97.5t91 -37.5z" />
    <glyph glyph-name="yen" unicode="&#xa5;" horiz-adv-x="575" 
d="M561 690v-7l-215 -328h182l-10 -44h-455l10 44h168l-215 328v7h57l210 -328h2l209 328h57zM63 179l10 44h455l-10 -44h-198v-179h-54v179h-203z" />
    <glyph glyph-name="brokenbar" unicode="&#xa6;" horiz-adv-x="288" 
d="M120 374v386h48v-386h-48zM120 -281v394h48v-394h-48z" />
    <glyph glyph-name="section" unicode="&#xa7;" horiz-adv-x="559" 
d="M157 623q23 -36 69.5 -79t92 -80.5t88.5 -80t70 -94t27 -106.5q0 -90 -61.5 -141t-174.5 -51q-131 0 -215 51l20 40q73 -46 193 -46q86 0 135 33q-21 36 -65 78.5t-90 80.5t-89.5 80.5t-71 94t-27.5 106.5q0 90 60.5 141t167.5 51q130 0 206 -47l-17 -40q-69 42 -188 42
q-83 0 -130 -33zM431 96q28 32 28 85q0 60 -40 118.5t-90 99.5t-110.5 96.5t-89.5 101.5q-26 -35 -26 -86q0 -47 26 -92.5t67 -85t84.5 -76t86.5 -79.5t64 -82z" />
    <glyph glyph-name="dieresis" unicode="&#xa8;" horiz-adv-x="378" 
d="M105 592q-17 0 -28.5 11.5t-11.5 28.5t11.5 28.5t28.5 11.5q19 0 30.5 -11.5t11.5 -28.5t-11.5 -28.5t-30.5 -11.5zM272 592q-18 0 -29.5 11.5t-11.5 28.5t11.5 28.5t29.5 11.5t30 -11.5t12 -28.5t-12 -28.5t-30 -11.5z" />
    <glyph glyph-name="copyright" unicode="&#xa9;" horiz-adv-x="643" 
d="M335 611q118 0 189.5 -73t71.5 -193q0 -119 -71.5 -191.5t-189.5 -72.5q-119 0 -191 72.5t-72 191.5q0 120 72 193t191 73zM335 570q-101 0 -162 -61.5t-62 -163.5q0 -101 61.5 -162.5t162.5 -61.5q100 0 161.5 61.5t61.5 162.5q0 102 -61.5 163.5t-161.5 61.5zM339 491
q-62 0 -97 -38.5t-35 -105.5q0 -65 33 -105t99 -40q52 0 81 20l-12 31q-27 -16 -71 -16t-69 28.5t-25 80.5q0 50 25.5 79.5t67.5 29.5q46 0 72 -15l10 32q-29 19 -79 19z" />
    <glyph glyph-name="ordfeminine" unicode="&#xaa;" horiz-adv-x="346" 
d="M134 389q-43 0 -68.5 22.5t-25.5 56.5q0 42 41.5 64t116.5 22h39v30q0 38 -17.5 57t-59.5 19q-48 0 -96 -23l-13 35q53 28 112 28q117 0 117 -111v-195h-36l-4 44h-2q-40 -49 -104 -49zM141 425q39 0 63.5 17t30.5 40v37h-38q-116 0 -116 -49q0 -20 16.5 -32.5
t43.5 -12.5z" />
    <glyph glyph-name="guillemotleft" unicode="&#xab;" horiz-adv-x="438" 
d="M171 68l-122 185v11l122 185h54l-121 -187v-8l121 -186h-54zM336 68l-122 185v11l122 185h55l-122 -187v-8l122 -186h-55z" />
    <glyph glyph-name="registered" unicode="&#xae;" horiz-adv-x="643" 
d="M335 611q118 0 189.5 -73t71.5 -193q0 -119 -71.5 -191.5t-189.5 -72.5q-119 0 -191 72.5t-72 191.5q0 120 72 193t191 73zM335 120q100 0 161.5 62t61.5 163q0 102 -61.5 164.5t-161.5 62.5q-101 0 -162.5 -62.5t-61.5 -164.5q0 -101 61.5 -163t162.5 -62zM355 326
q3 -1 19 -21l72 -95v-2h-38l-66 87q-18 23 -35 26h-23v-113h-34v276h81q44 0 70.5 -21.5t26.5 -58.5q0 -30 -20.5 -50t-52.5 -28zM284 453v-101h43q29 0 47.5 14t18.5 36q0 23 -17 37t-44 14h-48z" />
    <glyph glyph-name="macron" unicode="&#xaf;" horiz-adv-x="388" 
d="M324 652v-47h-259v47h259z" />
    <glyph glyph-name="degree" unicode="&#xb0;" horiz-adv-x="337" 
d="M168 447q-55 0 -88 34.5t-33 91.5t33.5 91.5t88.5 34.5t88 -34t33 -91t-33.5 -92t-88.5 -35zM168 481q38 0 62 25.5t24 66.5q0 42 -24 67.5t-62 25.5t-61 -25.5t-23 -67.5q0 -41 23 -66.5t61 -25.5z" />
    <glyph glyph-name="plusminus" unicode="&#xb1;" horiz-adv-x="551" 
d="M46 0v39h209v209h-209v42h209v211h46v-211h204v-42h-204v-209h205v-39h-460z" />
    <glyph glyph-name="acute" unicode="&#xb4;" horiz-adv-x="322" 
d="M257 662l-172 -105l-22 35l168 117l26 -42v-5z" />
    <glyph glyph-name="paragraph" unicode="&#xb6;" horiz-adv-x="659" 
d="M568 690v-690h-44v648h-65v-648h-44v648h-95q-108 0 -168 -47t-60 -132q0 -83 60.5 -131t167.5 -48h29v-42h-27q-129 0 -201.5 58.5t-72.5 162.5t72.5 162.5t201.5 58.5h246z" />
    <glyph glyph-name="periodcentered" unicode="&#xb7;" horiz-adv-x="182" 
d="M35 256q0 21 12 33.5t32 12.5t32 -12.5t12 -33.5q0 -20 -12 -32.5t-32 -12.5t-32 12.5t-12 32.5z" />
    <glyph glyph-name="cedilla" unicode="&#xb8;" horiz-adv-x="288" 
d="M127 -220q-38 0 -62 13l9 35q22 -11 54 -11q26 0 41 13t15 34q0 23 -21.5 40.5t-54.5 22.5l8 36q50 -7 78.5 -34t28.5 -68q0 -36 -26.5 -58.5t-69.5 -22.5z" />
    <glyph glyph-name="ordmasculine" unicode="&#xba;" horiz-adv-x="384" 
d="M193 700q65 0 105.5 -42.5t40.5 -111.5q0 -70 -41 -113.5t-107 -43.5q-65 0 -105.5 43t-40.5 113t41 112.5t107 42.5zM192 659q-46 0 -75 -31.5t-29 -82.5t29 -82.5t75 -31.5t75 31.5t29 82.5t-29 82.5t-75 31.5z" />
    <glyph glyph-name="guillemotright" unicode="&#xbb;" horiz-adv-x="438" 
d="M103 68h-55l122 186v8l-122 187h55l122 -185v-11zM268 68h-54l121 186v8l-121 187h54l122 -185v-11z" />
    <glyph glyph-name="onequarter" unicode="&#xbc;" horiz-adv-x="837" 
d="M623 715l40 -25l-480 -716l-38 26zM263 303h-241v42h103v300l-102 1v40l134 4h21v-345h91zM749 138h60l-5 -41h-55v-97h-49v97h-200l-8 38l181 260l53 -5l-172 -250l1 -2h145v119h49v-119z" />
    <glyph glyph-name="onehalf" unicode="&#xbd;" horiz-adv-x="870" 
d="M623 715l40 -25l-480 -716l-38 26zM263 303h-241v42h103v300l-102 1v40l134 4h21v-345h91zM612 43h205l-5 -43h-276v34q13 11 36 30q71 59 101 86t55 62.5t25 66.5q0 33 -21.5 51t-56.5 19q-51 1 -112 -27l-15 41q60 34 128 34q60 0 96 -29.5t36 -83.5q0 -30 -12.5 -58
t-40 -57.5t-55.5 -53.5t-74 -61q-9 -7 -14 -11z" />
    <glyph glyph-name="threequarters" unicode="&#xbe;" horiz-adv-x="885" 
d="M191 0l479 715l40 -25l-480 -716zM156 298q-63 0 -112 23l12 40q44 -19 101 -19q44 0 71 19.5t27 51.5q0 33 -32.5 52.5t-82.5 19.5h-35l8 39h30q38 0 67 21t29 53q0 27 -21 41.5t-56 14.5q-41 0 -101 -24l-13 40q53 30 118 30q53 0 88 -25.5t35 -67.5q0 -32 -20.5 -58.5
t-53.5 -36.5v-3q41 -8 65.5 -34.5t24.5 -62.5q0 -52 -41 -83t-108 -31zM747 0v97h-199l-8 38l180 260l54 -5l-172 -250l1 -2h144v119h49v-119h61l-6 -41h-55v-97h-49z" />
    <glyph glyph-name="questiondown" unicode="&#xbf;" horiz-adv-x="361" 
d="M234 411q-20 0 -33 13t-13 34q0 19 13 32t33 13q19 0 31.5 -12.5t12.5 -32.5q0 -21 -12 -34t-32 -13zM227 -231q-89 0 -135.5 43t-46.5 125q0 44 17.5 80t42.5 61.5t49.5 50t42 56.5t17.5 70v50h48v-54q0 -42 -17 -77t-41.5 -60t-49 -48.5t-41.5 -55t-17 -69.5
q0 -125 139 -125q59 0 106 16l10 -44q-57 -19 -124 -19z" />
    <glyph glyph-name="Agrave" unicode="&#xc0;" horiz-adv-x="662" 
d="M361 745l-184 80l-1 5l22 50l179 -96zM572 0l-76 203h-326l-75 -203h-56l260 690h67l261 -690h-55zM187 247h293l-107 285q-2 4 -9.5 24.5t-16 42t-13.5 36.5h-3l-39 -104z" />
    <glyph glyph-name="Aacute" unicode="&#xc1;" horiz-adv-x="662" 
d="M480 825l-185 -80l-16 39l179 96l23 -50zM572 0l-76 203h-326l-75 -203h-56l260 690h67l261 -690h-55zM187 247h293l-107 285q-2 4 -9.5 24.5t-16 42t-13.5 36.5h-3l-39 -104z" />
    <glyph glyph-name="Acircumflex" unicode="&#xc2;" horiz-adv-x="662" 
d="M332 825l-126 -82l-25 32v6l146 92h11l144 -93v-5l-24 -33zM572 0l-76 203h-326l-75 -203h-56l260 690h67l261 -690h-55zM187 247h293l-107 285q-2 4 -9.5 24.5t-16 42t-13.5 36.5h-3l-39 -104z" />
    <glyph glyph-name="Atilde" unicode="&#xc3;" horiz-adv-x="662" 
d="M285 799q-30 0 -57 -34l-34 17q15 29 39.5 47.5t49.5 18.5q21 0 53.5 -18t49.5 -18q25 0 56 33l35 -19q-36 -62 -90 -62q-24 0 -56 17.5t-46 17.5zM572 0l-76 203h-326l-75 -203h-56l260 690h67l261 -690h-55zM187 247h293l-107 285q-2 4 -9.5 24.5t-16 42t-13.5 36.5h-3
l-39 -104z" />
    <glyph glyph-name="Adieresis" unicode="&#xc4;" horiz-adv-x="662" 
d="M233 760q-18 0 -29 11t-11 28t11 28t29 11t29.5 -11t11.5 -28t-11.5 -28t-29.5 -11zM416 760q-18 0 -29 11t-11 28t11 28t29 11t29.5 -11t11.5 -28t-11.5 -28t-29.5 -11zM572 0l-76 203h-326l-75 -203h-56l260 690h67l261 -690h-55zM187 247h293l-107 285q-2 4 -9.5 24.5
t-16 42t-13.5 36.5h-3l-39 -104z" />
    <glyph glyph-name="Aring" unicode="&#xc5;" horiz-adv-x="662" 
d="M333 737q-40 0 -65 23t-25 61q0 37 24.5 59t65.5 22q40 0 64.5 -22t24.5 -59q0 -38 -24.5 -61t-64.5 -23zM333 866q-23 0 -37.5 -12.5t-14.5 -32.5q0 -21 14.5 -34t37.5 -13t37 13t14 34q0 20 -14 32.5t-37 12.5zM572 0l-76 203h-326l-75 -203h-56l260 690h67l261 -690
h-55zM187 247h293l-107 285q-2 4 -9.5 24.5t-16 42t-13.5 36.5h-3l-39 -104z" />
    <glyph glyph-name="AE" unicode="&#xc6;" horiz-adv-x="984" 
d="M567 45h368l-6 -45h-414v203h-298l-124 -203h-54l421 690h472v-44h-365v-275h309v-43h-309v-283zM244 247h271v399h-27z" />
    <glyph glyph-name="Ccedilla" unicode="&#xc7;" horiz-adv-x="610" 
d="M575 36q-82 -46 -202 -46q-153 0 -237.5 94t-84.5 262q0 167 85.5 260.5t239.5 93.5h1q111 0 194 -45l-19 -44q-71 41 -176 41q-129 0 -200 -81t-71 -226t70.5 -226t197.5 -81q108 0 184 42zM324 -42q50 -7 78.5 -34t28.5 -68q0 -36 -26.5 -58.5t-69.5 -22.5
q-38 0 -62 13l9 35q22 -11 54 -11q26 0 41 13t15 34q0 23 -21.5 40.5t-54.5 22.5z" />
    <glyph glyph-name="Egrave" unicode="&#xc8;" horiz-adv-x="559" 
d="M335 745l-184 80l-1 5l22 50l179 -96zM143 44h367l-6 -44h-415v690h416v-44h-362v-275h307v-43h-307v-284z" />
    <glyph glyph-name="Eacute" unicode="&#xc9;" horiz-adv-x="559" 
d="M454 825l-185 -80l-16 39l179 96l23 -50zM143 44h367l-6 -44h-415v690h416v-44h-362v-275h307v-43h-307v-284z" />
    <glyph glyph-name="Ecircumflex" unicode="&#xca;" horiz-adv-x="559" 
d="M306 825l-126 -82l-25 32v6l146 92h11l144 -93v-5l-24 -33zM143 44h367l-6 -44h-415v690h416v-44h-362v-275h307v-43h-307v-284z" />
    <glyph glyph-name="Edieresis" unicode="&#xcb;" horiz-adv-x="559" 
d="M206 760q-18 0 -29 11t-11 28t11 28t29 11t29.5 -11t11.5 -28t-11.5 -28t-29.5 -11zM389 760q-18 0 -29 11t-11 28t11 28t29 11t29.5 -11t11.5 -28t-11.5 -28t-29.5 -11zM143 44h367l-6 -44h-415v690h416v-44h-362v-275h307v-43h-307v-284z" />
    <glyph glyph-name="Igrave" unicode="&#xcc;" horiz-adv-x="234" 
d="M-40 825l-1 5l22 50l179 -96l-16 -39zM143 690v-690h-54v690h54z" />
    <glyph glyph-name="Iacute" unicode="&#xcd;" horiz-adv-x="234" 
d="M263 825l-185 -80l-16 39l179 96l23 -50zM143 690v-690h-54v690h54z" />
    <glyph glyph-name="Icircumflex" unicode="&#xce;" horiz-adv-x="234" 
d="M-11 743l-25 32v6l146 92h11l144 -93v-5l-24 -33l-126 83zM143 690v-690h-54v690h54z" />
    <glyph glyph-name="Idieresis" unicode="&#xcf;" horiz-adv-x="234" 
d="M16 760q-18 0 -29 11t-11 28t11 28t29 11t29.5 -11t11.5 -28t-11.5 -28t-29.5 -11zM199 760q-18 0 -29 11t-11 28t11 28t29 11t29.5 -11t11.5 -28t-11.5 -28t-29.5 -11zM143 690v-690h-54v690h54z" />
    <glyph glyph-name="Eth" unicode="&#xd0;" horiz-adv-x="718" 
d="M308 690q173 0 269 -90t96 -253q0 -165 -96.5 -256t-269.5 -91h-176v329h-82v42h82v319h177zM302 44q150 0 233.5 79.5t83.5 223.5q0 142 -83.5 220.5t-233.5 78.5h-117v-275h207v-42h-207v-285h117z" />
    <glyph glyph-name="Ntilde" unicode="&#xd1;" horiz-adv-x="698" 
d="M240 765l-34 17q15 29 39.5 47.5t49.5 18.5q21 0 53.5 -18t49.5 -18q25 0 56 33l35 -19q-36 -62 -90 -62q-24 0 -56 17.5t-46 17.5q-30 0 -57 -34zM89 0v690h53l409 -600h6v600h51v-690h-52l-409 602h-7v-602h-51z" />
    <glyph glyph-name="Ograve" unicode="&#xd2;" horiz-adv-x="724" 
d="M385 744l-184 80l-1 5l22 50l179 -96zM362 700q142 0 226.5 -97t84.5 -258t-84.5 -258t-226.5 -97t-226.5 97t-84.5 258t84.5 258t226.5 97zM362 37q117 0 187 83t70 225t-70 225t-187 83t-187 -83t-70 -225t70 -225t187 -83z" />
    <glyph glyph-name="Oacute" unicode="&#xd3;" horiz-adv-x="724" 
d="M503 824l-185 -80l-16 39l179 96l23 -50zM362 700q142 0 226.5 -97t84.5 -258t-84.5 -258t-226.5 -97t-226.5 97t-84.5 258t84.5 258t226.5 97zM362 37q117 0 187 83t70 225t-70 225t-187 83t-187 -83t-70 -225t70 -225t187 -83z" />
    <glyph glyph-name="Ocircumflex" unicode="&#xd4;" horiz-adv-x="724" 
d="M356 824l-126 -82l-25 32v6l146 92h11l144 -93v-5l-24 -33zM362 700q142 0 226.5 -97t84.5 -258t-84.5 -258t-226.5 -97t-226.5 97t-84.5 258t84.5 258t226.5 97zM362 37q117 0 187 83t70 225t-70 225t-187 83t-187 -83t-70 -225t70 -225t187 -83z" />
    <glyph glyph-name="Otilde" unicode="&#xd5;" horiz-adv-x="724" 
d="M309 798q-30 0 -57 -34l-34 17q15 29 39.5 47.5t49.5 18.5q21 0 53.5 -18t49.5 -18q25 0 56 33l35 -19q-36 -62 -90 -62q-24 0 -56 17.5t-46 17.5zM362 700q142 0 226.5 -97t84.5 -258t-84.5 -258t-226.5 -97t-226.5 97t-84.5 258t84.5 258t226.5 97zM362 37
q117 0 187 83t70 225t-70 225t-187 83t-187 -83t-70 -225t70 -225t187 -83z" />
    <glyph glyph-name="Odieresis" unicode="&#xd6;" horiz-adv-x="724" 
d="M256 759q-18 0 -29 11t-11 28t11 28t29 11t29.5 -11t11.5 -28t-11.5 -28t-29.5 -11zM439 759q-18 0 -29 11t-11 28t11 28t29 11t29.5 -11t11.5 -28t-11.5 -28t-29.5 -11zM362 700q142 0 226.5 -97t84.5 -258t-84.5 -258t-226.5 -97t-226.5 97t-84.5 258t84.5 258
t226.5 97zM362 37q117 0 187 83t70 225t-70 225t-187 83t-187 -83t-70 -225t70 -225t187 -83z" />
    <glyph glyph-name="multiply" unicode="&#xd7;" horiz-adv-x="575" 
d="M463 36l-175 180l-176 -180l-33 32l177 181l-177 181l32 31l177 -180l176 180l31 -31l-176 -181l177 -182z" />
    <glyph glyph-name="Oslash" unicode="&#xd8;" horiz-adv-x="722" 
d="M564 626q107 -98 107 -281q0 -161 -84.5 -258t-225.5 -97q-89 0 -157 40l-74 -114l-39 26l75 114q-115 98 -115 289q0 161 84.5 258t225.5 97q91 0 162 -43l76 100l44 -26zM361 35q117 0 186.5 84t69.5 226t-69.5 226t-186.5 84t-186.5 -84t-69.5 -226t69.5 -226
t186.5 -84z" />
    <glyph glyph-name="Ugrave" unicode="&#xd9;" horiz-adv-x="693" 
d="M197 825l-1 5l22 50l179 -96l-16 -39zM346 -10q-122 0 -191 60t-69 189v451h54v-449q0 -101 54 -152.5t152 -51.5q99 0 153 51.5t54 152.5v449h54v-451q0 -129 -69.5 -189t-191.5 -60z" />
    <glyph glyph-name="Uacute" unicode="&#xda;" horiz-adv-x="693" 
d="M500 825l-185 -80l-16 39l179 96l23 -50zM346 -10q-122 0 -191 60t-69 189v451h54v-449q0 -101 54 -152.5t152 -51.5q99 0 153 51.5t54 152.5v449h54v-451q0 -129 -69.5 -189t-191.5 -60z" />
    <glyph glyph-name="Ucircumflex" unicode="&#xdb;" horiz-adv-x="693" 
d="M226 743l-25 32v6l146 92h11l144 -93v-5l-24 -33l-126 83zM346 -10q-122 0 -191 60t-69 189v451h54v-449q0 -101 54 -152.5t152 -51.5q99 0 153 51.5t54 152.5v449h54v-451q0 -129 -69.5 -189t-191.5 -60z" />
    <glyph glyph-name="Udieresis" unicode="&#xdc;" horiz-adv-x="693" 
d="M252 760q-18 0 -29 11t-11 28t11 28t29 11t29.5 -11t11.5 -28t-11.5 -28t-29.5 -11zM435 760q-18 0 -29 11t-11 28t11 28t29 11t29.5 -11t11.5 -28t-11.5 -28t-29.5 -11zM346 -10q-122 0 -191 60t-69 189v451h54v-449q0 -101 54 -152.5t152 -51.5q99 0 153 51.5t54 152.5
v449h54v-451q0 -129 -69.5 -189t-191.5 -60z" />
    <glyph glyph-name="Yacute" unicode="&#xdd;" horiz-adv-x="576" 
d="M436 825l-185 -80l-16 39l179 96l23 -50zM267 0v300l-241 383v7h57l209 -343h4l208 343h57v-7l-241 -383v-300h-53z" />
    <glyph glyph-name="Thorn" unicode="&#xde;" horiz-adv-x="587" 
d="M276 568q133 0 203.5 -57t70.5 -164q0 -104 -72.5 -163t-201.5 -59h-133v-125h-54v690h54v-122h133zM277 169q103 0 161 47t58 130q0 87 -56 132.5t-163 45.5h-134v-355h134z" />
    <glyph glyph-name="germandbls" unicode="&#xdf;" horiz-adv-x="546" 
d="M344 -10q-71 0 -125 25l10 45q57 -24 111 -24t86.5 26.5t32.5 69.5q0 36 -21 66.5t-51.5 51t-61 39.5t-51.5 41t-21 46q0 23 21.5 47.5t47.5 44.5t47.5 52t21.5 68q-1 43 -32 69.5t-83 26.5q-62 0 -99 -42.5t-37 -125.5v-517h-51v521q0 103 53 156.5t137 53.5
q75 0 119 -38t45 -101q0 -42 -21.5 -79t-47.5 -58.5t-47.5 -41.5t-21.5 -32q0 -16 32 -39t71 -46.5t71 -67t32 -94.5q0 -64 -46 -103.5t-121 -39.5z" />
    <glyph glyph-name="agrave" unicode="&#xe0;" horiz-adv-x="541" 
d="M145 662v5l26 42l168 -117l-23 -35zM247 -10q-90 0 -144.5 63t-54.5 175q0 118 72 195t177 77q76 0 153 -38v-355l4 -107h-45l-6 71h-2q-23 -35 -65.5 -58t-88.5 -23zM253 33q59 1 101 36t45 63v302q-53 22 -105 22q-81 0 -137.5 -62.5t-56.5 -158.5q0 -104 44.5 -153.5
t108.5 -48.5z" />
    <glyph glyph-name="aacute" unicode="&#xe1;" horiz-adv-x="541" 
d="M428 662l-172 -105l-22 35l168 117l26 -42v-5zM247 -10q-90 0 -144.5 63t-54.5 175q0 118 72 195t177 77q76 0 153 -38v-355l4 -107h-45l-6 71h-2q-23 -35 -65.5 -58t-88.5 -23zM253 33q59 1 101 36t45 63v302q-53 22 -105 22q-81 0 -137.5 -62.5t-56.5 -158.5
q0 -104 44.5 -153.5t108.5 -48.5z" />
    <glyph glyph-name="acircumflex" unicode="&#xe2;" horiz-adv-x="541" 
d="M276 694h11l144 -97v-5l-22 -32l-128 85l-128 -85l-23 33v4zM247 -10q-90 0 -144.5 63t-54.5 175q0 118 72 195t177 77q76 0 153 -38v-355l4 -107h-45l-6 71h-2q-23 -35 -65.5 -58t-88.5 -23zM253 33q59 1 101 36t45 63v302q-53 22 -105 22q-81 0 -137.5 -62.5
t-56.5 -158.5q0 -104 44.5 -153.5t108.5 -48.5z" />
    <glyph glyph-name="atilde" unicode="&#xe3;" horiz-adv-x="541" 
d="M178 587l-34 17q9 27 34.5 48t51.5 21q23 0 56 -19.5t49 -19.5q28 0 53 36l33 -18q-9 -26 -34 -46t-52 -20q-23 0 -55 19t-48 19q-34 0 -54 -37zM247 -10q-90 0 -144.5 63t-54.5 175q0 118 72 195t177 77q76 0 153 -38v-355l4 -107h-45l-6 71h-2q-23 -35 -65.5 -58
t-88.5 -23zM253 33q59 1 101 36t45 63v302q-53 22 -105 22q-81 0 -137.5 -62.5t-56.5 -158.5q0 -104 44.5 -153.5t108.5 -48.5z" />
    <glyph glyph-name="adieresis" unicode="&#xe4;" horiz-adv-x="541" 
d="M199 592q-17 0 -28.5 11.5t-11.5 28.5t11.5 28.5t28.5 11.5q19 0 30.5 -11.5t11.5 -28.5t-11.5 -28.5t-30.5 -11.5zM366 592q-18 0 -29.5 11.5t-11.5 28.5t11.5 28.5t29.5 11.5t30 -11.5t12 -28.5t-12 -28.5t-30 -11.5zM247 -10q-90 0 -144.5 63t-54.5 175q0 118 72 195
t177 77q76 0 153 -38v-355l4 -107h-45l-6 71h-2q-23 -35 -65.5 -58t-88.5 -23zM253 33q59 1 101 36t45 63v302q-53 22 -105 22q-81 0 -137.5 -62.5t-56.5 -158.5q0 -104 44.5 -153.5t108.5 -48.5z" />
    <glyph glyph-name="aring" unicode="&#xe5;" horiz-adv-x="541" 
d="M287 557q-41 0 -65.5 23.5t-24.5 61.5q0 37 24.5 59.5t65.5 22.5q40 0 64.5 -22.5t24.5 -59.5q0 -38 -24.5 -61.5t-64.5 -23.5zM287 594q22 0 36 13.5t14 35.5q0 21 -14 33t-36 12q-23 0 -37.5 -12.5t-14.5 -33.5q0 -22 14.5 -35t37.5 -13zM247 -10q-90 0 -144.5 63
t-54.5 175q0 118 72 195t177 77q76 0 153 -38v-355l4 -107h-45l-6 71h-2q-23 -35 -65.5 -58t-88.5 -23zM253 33q59 1 101 36t45 63v302q-53 22 -105 22q-81 0 -137.5 -62.5t-56.5 -158.5q0 -104 44.5 -153.5t108.5 -48.5z" />
    <glyph glyph-name="ae" unicode="&#xe6;" horiz-adv-x="828" 
d="M249 -10q-92 0 -146.5 63t-54.5 175q0 119 72.5 195.5t178.5 76.5q76 0 153 -38v-54q59 91 183 91q68 0 109.5 -34.5t41.5 -88.5q0 -57 -49.5 -100t-124.5 -63t-158 -17q10 -74 54 -117t118 -43q64 0 146 49l20 -39q-79 -56 -170 -56q-129 0 -187 110q-30 -54 -79.5 -82
t-106.5 -28zM255 33q60 1 104 37t55 79q-13 49 -13 101v185q-54 22 -106 22q-82 0 -138.5 -63t-56.5 -159q0 -104 45 -153.5t110 -48.5zM452 239q66 -4 130.5 11t109 47.5t44.5 73.5q0 39 -30 62t-78 23q-78 0 -124 -47.5t-52 -130.5v-39z" />
    <glyph glyph-name="ccedilla" unicode="&#xe7;" horiz-adv-x="446" 
d="M275 -10q-108 0 -167.5 69.5t-59.5 185.5q0 117 59.5 186t170.5 69q79 0 131 -33l-13 -41q-48 28 -119 28q-86 0 -131.5 -56t-45.5 -153t46 -153t131 -56q73 0 121 30l12 -42q-51 -34 -135 -34zM249 -220q-38 0 -62 13l9 35q22 -11 54 -11q26 0 41 13t15 34
q0 23 -21.5 40.5t-54.5 22.5l8 36q50 -7 78.5 -34t28.5 -68q0 -36 -26.5 -58.5t-69.5 -22.5z" />
    <glyph glyph-name="egrave" unicode="&#xe8;" horiz-adv-x="475" 
d="M309 592l-23 -35l-171 105v5l26 42zM420 87l19 -39q-82 -58 -170 -58q-108 0 -164.5 72.5t-56.5 178.5q0 119 63.5 188.5t160.5 69.5q74 0 117.5 -37t43.5 -93t-49 -98t-123.5 -61.5t-157.5 -16.5q11 -73 54 -115t116 -42q63 0 147 51zM270 455q-77 0 -125 -61.5
t-46 -158.5q68 -4 132.5 10.5t107.5 46.5t43 74q0 40 -30.5 64.5t-81.5 24.5z" />
    <glyph glyph-name="eacute" unicode="&#xe9;" horiz-adv-x="475" 
d="M398 662l-172 -105l-22 35l168 117l26 -42v-5zM420 87l19 -39q-82 -58 -170 -58q-108 0 -164.5 72.5t-56.5 178.5q0 119 63.5 188.5t160.5 69.5q74 0 117.5 -37t43.5 -93t-49 -98t-123.5 -61.5t-157.5 -16.5q11 -73 54 -115t116 -42q63 0 147 51zM270 455
q-77 0 -125 -61.5t-46 -158.5q68 -4 132.5 10.5t107.5 46.5t43 74q0 40 -30.5 64.5t-81.5 24.5z" />
    <glyph glyph-name="ecircumflex" unicode="&#xea;" horiz-adv-x="475" 
d="M251 645l-128 -85l-23 33v4l146 97h11l144 -97v-5l-22 -32zM420 87l19 -39q-82 -58 -170 -58q-108 0 -164.5 72.5t-56.5 178.5q0 119 63.5 188.5t160.5 69.5q74 0 117.5 -37t43.5 -93t-49 -98t-123.5 -61.5t-157.5 -16.5q11 -73 54 -115t116 -42q63 0 147 51zM270 455
q-77 0 -125 -61.5t-46 -158.5q68 -4 132.5 10.5t107.5 46.5t43 74q0 40 -30.5 64.5t-81.5 24.5z" />
    <glyph glyph-name="edieresis" unicode="&#xeb;" horiz-adv-x="475" 
d="M169 592q-17 0 -28.5 11.5t-11.5 28.5t11.5 28.5t28.5 11.5q19 0 30.5 -11.5t11.5 -28.5t-11.5 -28.5t-30.5 -11.5zM336 592q-18 0 -29.5 11.5t-11.5 28.5t11.5 28.5t29.5 11.5t30 -11.5t12 -28.5t-12 -28.5t-30 -11.5zM420 87l19 -39q-82 -58 -170 -58
q-108 0 -164.5 72.5t-56.5 178.5q0 119 63.5 188.5t160.5 69.5q74 0 117.5 -37t43.5 -93t-49 -98t-123.5 -61.5t-157.5 -16.5q11 -73 54 -115t116 -42q63 0 147 51zM270 455q-77 0 -125 -61.5t-46 -158.5q68 -4 132.5 10.5t107.5 46.5t43 74q0 40 -30.5 64.5t-81.5 24.5z
" />
    <glyph glyph-name="igrave" unicode="&#xec;" horiz-adv-x="226" 
d="M-26 662v5l26 42l168 -117l-23 -35zM87 0l1 490h51v-490h-52z" />
    <glyph glyph-name="iacute" unicode="&#xed;" horiz-adv-x="226" 
d="M256 662l-172 -105l-22 35l168 117l26 -42v-5zM87 0l1 490h51v-490h-52z" />
    <glyph glyph-name="icircumflex" unicode="&#xee;" horiz-adv-x="226" 
d="M105 694h11l144 -97v-5l-22 -32l-128 85l-128 -85l-23 33v4zM87 0l1 490h51v-490h-52z" />
    <glyph glyph-name="idieresis" unicode="&#xef;" horiz-adv-x="226" 
d="M28 592q-17 0 -28.5 11.5t-11.5 28.5t11.5 28.5t28.5 11.5q19 0 30.5 -11.5t11.5 -28.5t-11.5 -28.5t-30.5 -11.5zM195 592q-18 0 -29.5 11.5t-11.5 28.5t11.5 28.5t29.5 11.5t30 -11.5t12 -28.5t-12 -28.5t-30 -11.5zM87 0l1 490h51v-490h-52z" />
    <glyph glyph-name="eth" unicode="&#xf0;" horiz-adv-x="519" 
d="M262 -10q-99 0 -156.5 68t-57.5 187q0 121 57 188t152 67q58 0 99 -28t62 -65q-24 161 -115 229l-86 -74l-22 26l76 65q-69 40 -169 40l6 40q109 0 195 -49l68 59l24 -25l-60 -53q137 -119 137 -386q0 -83 -18.5 -145t-67 -103t-124.5 -41zM263 33q76 0 118 55t42 157
q0 101 -42.5 156.5t-118.5 55.5q-77 0 -119.5 -56t-42.5 -156q0 -98 44 -155t119 -57z" />
    <glyph glyph-name="ntilde" unicode="&#xf1;" horiz-adv-x="557" 
d="M168 587l-34 17q9 27 34.5 48t51.5 21q23 0 56 -19.5t49 -19.5q28 0 53 36l33 -18q-9 -26 -34 -46t-52 -20q-23 0 -55 19t-48 19q-34 0 -54 -37zM304 500q86 0 126 -46.5t40 -143.5v-310h-52v305q0 78 -30.5 114t-95.5 36q-91 0 -153 -83v-372h-52v490h41l5 -71h4
q67 81 167 81z" />
    <glyph glyph-name="ograve" unicode="&#xf2;" horiz-adv-x="544" 
d="M133 662v5l26 42l168 -117l-23 -35zM273 500q100 0 161.5 -70t62.5 -184q0 -115 -61.5 -185.5t-162.5 -70.5q-100 0 -162 70t-63 184q1 115 62.5 185.5t162.5 70.5zM273 456q-78 0 -125.5 -58t-47.5 -153t47.5 -153t125.5 -58q77 0 124.5 58t47.5 153t-47.5 153
t-124.5 58z" />
    <glyph glyph-name="oacute" unicode="&#xf3;" horiz-adv-x="544" 
d="M415 662l-172 -105l-22 35l168 117l26 -42v-5zM273 500q100 0 161.5 -70t62.5 -184q0 -115 -61.5 -185.5t-162.5 -70.5q-100 0 -162 70t-63 184q1 115 62.5 185.5t162.5 70.5zM273 456q-78 0 -125.5 -58t-47.5 -153t47.5 -153t125.5 -58q77 0 124.5 58t47.5 153
t-47.5 153t-124.5 58z" />
    <glyph glyph-name="ocircumflex" unicode="&#xf4;" horiz-adv-x="544" 
d="M264 694h11l144 -97v-5l-22 -32l-128 85l-128 -85l-23 33v4zM273 500q100 0 161.5 -70t62.5 -184q0 -115 -61.5 -185.5t-162.5 -70.5q-100 0 -162 70t-63 184q1 115 62.5 185.5t162.5 70.5zM273 456q-78 0 -125.5 -58t-47.5 -153t47.5 -153t125.5 -58q77 0 124.5 58
t47.5 153t-47.5 153t-124.5 58z" />
    <glyph glyph-name="otilde" unicode="&#xf5;" horiz-adv-x="544" 
d="M166 587l-34 17q9 27 34.5 48t51.5 21q23 0 56 -19.5t49 -19.5q28 0 53 36l33 -18q-9 -26 -34 -46t-52 -20q-23 0 -55 19t-48 19q-34 0 -54 -37zM273 500q100 0 161.5 -70t62.5 -184q0 -115 -61.5 -185.5t-162.5 -70.5q-100 0 -162 70t-63 184q1 115 62.5 185.5
t162.5 70.5zM273 456q-78 0 -125.5 -58t-47.5 -153t47.5 -153t125.5 -58q77 0 124.5 58t47.5 153t-47.5 153t-124.5 58z" />
    <glyph glyph-name="odieresis" unicode="&#xf6;" horiz-adv-x="544" 
d="M187 592q-17 0 -28.5 11.5t-11.5 28.5t11.5 28.5t28.5 11.5q19 0 30.5 -11.5t11.5 -28.5t-11.5 -28.5t-30.5 -11.5zM354 592q-18 0 -29.5 11.5t-11.5 28.5t11.5 28.5t29.5 11.5t30 -11.5t12 -28.5t-12 -28.5t-30 -11.5zM273 500q100 0 161.5 -70t62.5 -184
q0 -115 -61.5 -185.5t-162.5 -70.5q-100 0 -162 70t-63 184q1 115 62.5 185.5t162.5 70.5zM273 456q-78 0 -125.5 -58t-47.5 -153t47.5 -153t125.5 -58q77 0 124.5 58t47.5 153t-47.5 153t-124.5 58z" />
    <glyph glyph-name="divide" unicode="&#xf7;" horiz-adv-x="573" 
d="M298 393q-19 0 -31 12t-12 31q0 20 12 32.5t31 12.5q18 0 30.5 -13t12.5 -32t-12.5 -31t-30.5 -12zM54 247v40h465v-40h-465zM298 51q-19 0 -31 11.5t-12 30.5q0 20 12 32.5t31 12.5t31 -12.5t12 -32.5q0 -19 -12 -30.5t-31 -11.5z" />
    <glyph glyph-name="oslash" unicode="&#xf8;" horiz-adv-x="551" 
d="M500 541l-72 -103q68 -71 69 -192q0 -115 -61.5 -185.5t-162.5 -70.5q-59 0 -110 27l-67 -98l-39 24l68 102q-75 71 -77 199q1 115 62.5 185.5t162.5 70.5q68 0 118 -32l68 97zM273 34q77 0 124.5 58t47.5 153t-47.5 153t-124.5 58q-78 0 -125.5 -58t-47.5 -153
t47.5 -153t125.5 -58z" />
    <glyph glyph-name="ugrave" unicode="&#xf9;" 
d="M137 662v5l26 42l168 -117l-23 -35zM469 490v-490h-42l-5 68h-3q-68 -78 -168 -78q-85 0 -125 46.5t-40 143.5v310h52v-305q0 -78 30.5 -114t95.5 -36q91 0 153 82v373h52z" />
    <glyph glyph-name="uacute" unicode="&#xfa;" 
d="M420 662l-172 -105l-22 35l168 117l26 -42v-5zM469 490v-490h-42l-5 68h-3q-68 -78 -168 -78q-85 0 -125 46.5t-40 143.5v310h52v-305q0 -78 30.5 -114t95.5 -36q91 0 153 82v373h52z" />
    <glyph glyph-name="ucircumflex" unicode="&#xfb;" 
d="M268 694h11l144 -97v-5l-22 -32l-128 85l-128 -85l-23 33v4zM469 490v-490h-42l-5 68h-3q-68 -78 -168 -78q-85 0 -125 46.5t-40 143.5v310h52v-305q0 -78 30.5 -114t95.5 -36q91 0 153 82v373h52z" />
    <glyph glyph-name="udieresis" unicode="&#xfc;" 
d="M191 592q-17 0 -28.5 11.5t-11.5 28.5t11.5 28.5t28.5 11.5q19 0 30.5 -11.5t11.5 -28.5t-11.5 -28.5t-30.5 -11.5zM358 592q-18 0 -29.5 11.5t-11.5 28.5t11.5 28.5t29.5 11.5t30 -11.5t12 -28.5t-12 -28.5t-30 -11.5zM469 490v-490h-42l-5 68h-3q-68 -78 -168 -78
q-85 0 -125 46.5t-40 143.5v310h52v-305q0 -78 30.5 -114t95.5 -36q91 0 153 82v373h52z" />
    <glyph glyph-name="yacute" unicode="&#xfd;" horiz-adv-x="487" 
d="M384 662l-172 -105l-22 35l168 117l26 -42v-5zM38 -222l7 42q18 -3 33 -3q40 0 65 24t46 80l30 79h-12l-190 484v6h53l167 -436h3l172 436h52v-6l-226 -563q-30 -77 -66.5 -113t-89.5 -36q-20 0 -44 6z" />
    <glyph glyph-name="thorn" unicode="&#xfe;" horiz-adv-x="552" 
d="M86 -220v940h50v-295q66 75 163 75q94 0 147 -67.5t53 -187.5q0 -121 -53 -188.5t-147 -67.5q-97 0 -157 70h-4v-279h-52zM290 33q74 0 115.5 56t41.5 156t-41.5 156t-115.5 56q-91 0 -154 -81v-263q62 -80 154 -80z" />
    <glyph glyph-name="ydieresis" unicode="&#xff;" horiz-adv-x="487" 
d="M156 592q-17 0 -28.5 11.5t-11.5 28.5t11.5 28.5t28.5 11.5q19 0 30.5 -11.5t11.5 -28.5t-11.5 -28.5t-30.5 -11.5zM323 592q-18 0 -29.5 11.5t-11.5 28.5t11.5 28.5t29.5 11.5t30 -11.5t12 -28.5t-12 -28.5t-30 -11.5zM38 -222l7 42q18 -3 33 -3q40 0 65 24t46 80l30 79
h-12l-190 484v6h53l167 -436h3l172 436h52v-6l-226 -563q-30 -77 -66.5 -113t-89.5 -36q-20 0 -44 6z" />
    <glyph glyph-name="Amacron" unicode="&#x100;" horiz-adv-x="662" 
d="M459 821v-45h-257v45h257zM572 0l-76 203h-326l-75 -203h-56l260 690h67l261 -690h-55zM187 247h293l-107 285q-2 4 -9.5 24.5t-16 42t-13.5 36.5h-3l-39 -104z" />
    <glyph glyph-name="amacron" unicode="&#x101;" horiz-adv-x="541" 
d="M415 652v-47h-259v47h259zM247 -10q-90 0 -144.5 63t-54.5 175q0 118 72 195t177 77q76 0 153 -38v-355l4 -107h-45l-6 71h-2q-23 -35 -65.5 -58t-88.5 -23zM253 33q59 1 101 36t45 63v302q-53 22 -105 22q-81 0 -137.5 -62.5t-56.5 -158.5q0 -104 44.5 -153.5
t108.5 -48.5z" />
    <glyph glyph-name="Abreve" unicode="&#x102;" horiz-adv-x="662" 
d="M342 745q-58 0 -92.5 37.5t-34.5 93.5h39q6 -38 28 -63.5t60 -25.5q70 0 85 89h39q0 -55 -34 -93t-90 -38zM572 0l-76 203h-326l-75 -203h-56l260 690h67l261 -690h-55zM187 247h293l-107 285q-2 4 -9.5 24.5t-16 42t-13.5 36.5h-3l-39 -104z" />
    <glyph glyph-name="abreve" unicode="&#x103;" horiz-adv-x="541" 
d="M279 560q-58 0 -95 36t-37 94h46q6 -38 27.5 -61t57.5 -23q35 0 56.5 23.5t27.5 60.5h47q0 -58 -37 -94t-93 -36zM247 -10q-90 0 -144.5 63t-54.5 175q0 118 72 195t177 77q76 0 153 -38v-355l4 -107h-45l-6 71h-2q-23 -35 -65.5 -58t-88.5 -23zM253 33q59 1 101 36
t45 63v302q-53 22 -105 22q-81 0 -137.5 -62.5t-56.5 -158.5q0 -104 44.5 -153.5t108.5 -48.5z" />
    <glyph glyph-name="Aogonek" unicode="&#x104;" horiz-adv-x="662" 
d="M627 -166l6 -34q-18 -9 -41 -9q-35 0 -55.5 23t-20.5 60q0 35 18.5 69.5t49.5 56.5h-12l-76 203h-326l-75 -203h-56l260 690h67l261 -690q-70 -58 -70 -118q0 -22 11 -37t29 -15t30 4zM187 247h293l-107 285q-2 4 -9.5 24.5t-16 42t-13.5 36.5h-3l-39 -104z" />
    <glyph glyph-name="aogonek" unicode="&#x105;" horiz-adv-x="541" 
d="M454 -166l6 -34q-18 -9 -41 -9q-35 0 -55.5 23t-20.5 60q0 35 18.5 69.5t49.5 56.5h-2l-6 71h-2q-23 -35 -65.5 -58t-88.5 -23q-90 0 -144.5 63t-54.5 175q0 118 72 195t177 77q76 0 153 -38v-355l4 -107q-70 -58 -70 -118q0 -22 11 -37t29 -15t30 4zM399 132v302
q-53 22 -105 22q-81 0 -137.5 -62.5t-56.5 -158.5q0 -104 44.5 -153.5t108.5 -48.5q59 1 101 36t45 63z" />
    <glyph glyph-name="Cacute" unicode="&#x106;" horiz-adv-x="610" 
d="M503 830l-185 -80l-16 39l179 96l23 -50zM557 80l18 -44q-82 -46 -202 -46q-153 0 -237.5 94t-84.5 262q0 167 85.5 260.5t239.5 93.5h1q111 0 194 -45l-19 -44q-71 41 -176 41q-129 0 -200 -81t-71 -226t70.5 -226t197.5 -81q108 0 184 42z" />
    <glyph glyph-name="cacute" unicode="&#x107;" horiz-adv-x="446" 
d="M406 667l-172 -105l-22 35l168 117l26 -42v-5zM275 -10q-108 0 -167.5 69.5t-59.5 185.5q0 117 59.5 186t170.5 69q79 0 131 -33l-13 -41q-48 28 -119 28q-86 0 -131.5 -56t-45.5 -153t46 -153t131 -56q73 0 121 30l12 -42q-51 -34 -135 -34z" />
    <glyph glyph-name="Cdotaccent" unicode="&#x10a;" horiz-adv-x="610" 
d="M355 765q-18 0 -29 11t-11 28t11 28t29 11t29.5 -11t11.5 -28t-11.5 -28t-29.5 -11zM557 80l18 -44q-82 -46 -202 -46q-153 0 -237.5 94t-84.5 262q0 167 85.5 260.5t239.5 93.5h1q111 0 194 -45l-19 -44q-71 41 -176 41q-129 0 -200 -81t-71 -226t70.5 -226t197.5 -81
q108 0 184 42z" />
    <glyph glyph-name="cdotaccent" unicode="&#x10b;" horiz-adv-x="446" 
d="M265 595q-18 0 -29 11.5t-11 28.5t11 28t29 11t30 -11t12 -28t-12 -28.5t-30 -11.5zM275 -10q-108 0 -167.5 69.5t-59.5 185.5q0 117 59.5 186t170.5 69q79 0 131 -33l-13 -41q-48 28 -119 28q-86 0 -131.5 -56t-45.5 -153t46 -153t131 -56q73 0 121 30l12 -42
q-51 -34 -135 -34z" />
    <glyph glyph-name="Ccaron" unicode="&#x10c;" horiz-adv-x="610" 
d="M355 747h-11l-146 93v5l25 33l126 -82l126 82l24 -32v-6zM557 80l18 -44q-82 -46 -202 -46q-153 0 -237.5 94t-84.5 262q0 167 85.5 260.5t239.5 93.5h1q111 0 194 -45l-19 -44q-71 41 -176 41q-129 0 -200 -81t-71 -226t70.5 -226t197.5 -81q108 0 184 42z" />
    <glyph glyph-name="ccaron" unicode="&#x10d;" horiz-adv-x="446" 
d="M259 564l-146 97v4l23 33l128 -86l128 86l22 -32v-5l-144 -97h-11zM275 -10q-108 0 -167.5 69.5t-59.5 185.5q0 117 59.5 186t170.5 69q79 0 131 -33l-13 -41q-48 28 -119 28q-86 0 -131.5 -56t-45.5 -153t46 -153t131 -56q73 0 121 30l12 -42q-51 -34 -135 -34z" />
    <glyph glyph-name="Dcaron" unicode="&#x10e;" horiz-adv-x="676" 
d="M261 742l-146 93v5l25 33l126 -82l126 82l24 -32v-6l-144 -93h-11zM267 690q173 0 268.5 -90t95.5 -253q0 -165 -96.5 -256t-269.5 -91h-176v690h178zM260 646h-118v-602h118q150 0 234 79.5t84 223.5q0 141 -84 220t-234 79z" />
    <glyph glyph-name="dcaron" unicode="&#x10f;" horiz-adv-x="550" 
d="M570 731q38 0 38 -45q1 -51 -44 -119l-26 7q29 56 25 83q-14 1 -22.5 10.5t-8.5 25.5q0 17 10.5 27.5t27.5 10.5zM255 -11q-99 0 -153 67.5t-54 188.5t55 188t157 67q84 0 147 -67h4v287h52v-720h-35l-9 67h-4q-67 -78 -160 -78zM263 34q86 0 149 78v266q-61 78 -149 78
q-78 0 -120.5 -55.5t-42.5 -155.5t42.5 -155.5t120.5 -55.5z" />
    <glyph glyph-name="Dcroat" unicode="&#x110;" horiz-adv-x="718" 
d="M308 690q173 0 269 -90t96 -253q0 -165 -96.5 -256t-269.5 -91h-176v329h-82v42h82v319h177zM302 44q150 0 233.5 79.5t83.5 223.5q0 142 -83.5 220.5t-233.5 78.5h-117v-275h207v-42h-207v-285h117z" />
    <glyph glyph-name="dcroat" unicode="&#x111;" horiz-adv-x="540" 
d="M555 620v-39h-92v-581h-35l-9 67h-4q-67 -78 -160 -78q-99 0 -153 67.5t-54 188.5t55 188t157 67q84 0 147 -67h4v148h-155v39h155v100h52v-100h92zM412 112v266q-61 78 -149 78q-78 0 -120.5 -55.5t-42.5 -155.5t42.5 -155.5t120.5 -55.5q86 0 149 78z" />
    <glyph glyph-name="Emacron" unicode="&#x112;" horiz-adv-x="559" 
d="M433 821v-45h-257v45h257zM143 44h367l-6 -44h-415v690h416v-44h-362v-275h307v-43h-307v-284z" />
    <glyph glyph-name="emacron" unicode="&#x113;" horiz-adv-x="475" 
d="M385 652v-47h-259v47h259zM420 87l19 -39q-82 -58 -170 -58q-108 0 -164.5 72.5t-56.5 178.5q0 119 63.5 188.5t160.5 69.5q74 0 117.5 -37t43.5 -93t-49 -98t-123.5 -61.5t-157.5 -16.5q11 -73 54 -115t116 -42q63 0 147 51zM270 455q-77 0 -125 -61.5t-46 -158.5
q68 -4 132.5 10.5t107.5 46.5t43 74q0 40 -30.5 64.5t-81.5 24.5z" />
    <glyph glyph-name="Edotaccent" unicode="&#x116;" horiz-adv-x="559" 
d="M307 760q-18 0 -29 11t-11 28t11 28t29 11t29.5 -11t11.5 -28t-11.5 -28t-29.5 -11zM143 44h367l-6 -44h-415v690h416v-44h-362v-275h307v-43h-307v-284z" />
    <glyph glyph-name="edotaccent" unicode="&#x117;" horiz-adv-x="475" 
d="M257 590q-18 0 -29 11.5t-11 28.5t11 28t29 11t30 -11t12 -28t-12 -28.5t-30 -11.5zM420 87l19 -39q-82 -58 -170 -58q-108 0 -164.5 72.5t-56.5 178.5q0 119 63.5 188.5t160.5 69.5q74 0 117.5 -37t43.5 -93t-49 -98t-123.5 -61.5t-157.5 -16.5q11 -73 54 -115t116 -42
q63 0 147 51zM270 455q-77 0 -125 -61.5t-46 -158.5q68 -4 132.5 10.5t107.5 46.5t43 74q0 40 -30.5 64.5t-81.5 24.5z" />
    <glyph glyph-name="Eogonek" unicode="&#x118;" horiz-adv-x="559" 
d="M474 -170q18 0 30 4l6 -34q-18 -9 -41 -9q-35 0 -55.5 23t-20.5 60q0 35 18.5 69.5t49.5 56.5h-372v690h416v-44h-362v-275h307v-43h-307v-284h367l-6 -44q-70 -58 -70 -118q0 -22 11 -37t29 -15z" />
    <glyph glyph-name="eogonek" unicode="&#x119;" horiz-adv-x="475" 
d="M403 -141q18 0 30 4l6 -37q-20 -10 -41 -10q-35 0 -55.5 25.5t-20.5 65.5q0 51 30 97q-40 -14 -83 -14q-108 0 -164.5 72.5t-56.5 178.5q0 119 63.5 188.5t160.5 69.5q74 0 117.5 -37t43.5 -93t-49 -98t-123.5 -61.5t-157.5 -16.5q11 -73 54 -115t116 -42q63 0 147 51
l19 -39l-10 -7q-66 -63 -66 -125q0 -25 11 -41t29 -16zM270 455q-77 0 -125 -61.5t-46 -158.5q68 -4 132.5 10.5t107.5 46.5t43 74q0 40 -30.5 64.5t-81.5 24.5z" />
    <glyph glyph-name="Ecaron" unicode="&#x11a;" horiz-adv-x="559" 
d="M307 742h-11l-146 93v5l25 33l126 -82l126 82l24 -32v-6zM143 44h367l-6 -44h-415v690h416v-44h-362v-275h307v-43h-307v-284z" />
    <glyph glyph-name="ecaron" unicode="&#x11b;" horiz-adv-x="475" 
d="M262 559h-11l-146 97v4l23 33l128 -86l128 86l22 -32v-5zM420 87l19 -39q-82 -58 -170 -58q-108 0 -164.5 72.5t-56.5 178.5q0 119 63.5 188.5t160.5 69.5q74 0 117.5 -37t43.5 -93t-49 -98t-123.5 -61.5t-157.5 -16.5q11 -73 54 -115t116 -42q63 0 147 51zM270 455
q-77 0 -125 -61.5t-46 -158.5q68 -4 132.5 10.5t107.5 46.5t43 74q0 40 -30.5 64.5t-81.5 24.5z" />
    <glyph glyph-name="Gbreve" unicode="&#x11e;" horiz-adv-x="660" 
d="M377 745q-58 0 -92.5 37.5t-34.5 93.5h39q6 -38 28 -63.5t60 -25.5q70 0 85 89h39q0 -55 -34 -93t-90 -38zM382 332h215v-275q-110 -67 -224 -67q-154 0 -238 92.5t-84 262.5q0 162 82.5 258.5t239.5 96.5q116 0 198 -46l-19 -41q-72 41 -179 41q-127 0 -197.5 -81
t-70.5 -228t70.5 -228t197.5 -81q93 0 174 48v204h-165v44z" />
    <glyph glyph-name="gbreve" unicode="&#x11f;" horiz-adv-x="531" 
d="M284 560q-58 0 -95 36t-37 94h46q6 -38 27.5 -61t57.5 -23q35 0 56.5 23.5t27.5 60.5h47q0 -58 -37 -94t-93 -36zM262 -230q-92 0 -165 39l17 43q62 -36 151 -36q71 0 106 50.5t35 134.5l-1 68h-2q-23 -35 -64.5 -57t-87.5 -22q-93 0 -148 63t-55 175q0 119 72.5 195.5
t180.5 76.5q76 0 153 -38v-457q0 -107 -48 -171t-144 -64zM257 33q59 1 101 36t45 63v301q-53 22 -105 22q-84 0 -141 -62t-57 -158q0 -105 45.5 -154t111.5 -48z" />
    <glyph glyph-name="Gdotaccent" unicode="&#x120;" horiz-adv-x="660" 
d="M368 760q-18 0 -29 11t-11 28t11 28t29 11t29.5 -11t11.5 -28t-11.5 -28t-29.5 -11zM382 332h215v-275q-110 -67 -224 -67q-154 0 -238 92.5t-84 262.5q0 162 82.5 258.5t239.5 96.5q116 0 198 -46l-19 -41q-72 41 -179 41q-127 0 -197.5 -81t-70.5 -228t70.5 -228
t197.5 -81q93 0 174 48v204h-165v44z" />
    <glyph glyph-name="gdotaccent" unicode="&#x121;" horiz-adv-x="531" 
d="M291 590q-18 0 -29 11.5t-11 28.5t11 28t29 11t30 -11t12 -28t-12 -28.5t-30 -11.5zM262 -230q-92 0 -165 39l17 43q62 -36 151 -36q71 0 106 50.5t35 134.5l-1 68h-2q-23 -35 -64.5 -57t-87.5 -22q-93 0 -148 63t-55 175q0 119 72.5 195.5t180.5 76.5q76 0 153 -38v-457
q0 -107 -48 -171t-144 -64zM257 33q59 1 101 36t45 63v301q-53 22 -105 22q-84 0 -141 -62t-57 -158q0 -105 45.5 -154t111.5 -48z" />
    <glyph glyph-name="Gcommaaccent" unicode="&#x122;" horiz-adv-x="660" 
d="M382 332h215v-275q-110 -67 -224 -67q-154 0 -238 92.5t-84 262.5q0 162 82.5 258.5t239.5 96.5q116 0 198 -46l-19 -41q-72 41 -179 41q-127 0 -197.5 -81t-70.5 -228t70.5 -228t197.5 -81q93 0 174 48v204h-165v44zM370 -46q18 0 28.5 -12t10.5 -33q1 -51 -44 -119
l-27 6q29 58 25 84q-30 2 -30 36q0 17 10 27.5t27 10.5z" />
    <glyph glyph-name="gcommaaccent" unicode="&#x123;" horiz-adv-x="531" 
d="M286 571q-39 0 -39 45q-1 51 44 119l27 -6q-29 -58 -25 -84q30 -2 30 -36q0 -17 -10 -27.5t-27 -10.5zM262 -230q-92 0 -165 39l17 43q62 -36 151 -36q71 0 106 50.5t35 134.5l-1 68h-2q-23 -35 -64.5 -57t-87.5 -22q-93 0 -148 63t-55 175q0 119 72.5 195.5t180.5 76.5
q76 0 153 -38v-457q0 -107 -48 -171t-144 -64zM257 33q59 1 101 36t45 63v301q-53 22 -105 22q-84 0 -141 -62t-57 -158q0 -105 45.5 -154t111.5 -48z" />
    <glyph glyph-name="Hbar" unicode="&#x126;" horiz-adv-x="781" 
d="M651 691v-135h78v-40h-78v-516h-54v319h-413v-319h-54v516h-79v40h79v135h54v-135h413v135h54zM597 516h-413v-152h413v152z" />
    <glyph glyph-name="hbar" unicode="&#x127;" horiz-adv-x="544" 
d="M292 500q85 0 125 -46.5t40 -143.5v-310h-52v305q0 78 -30.5 114t-95.5 36q-91 0 -153 -83v-372h-52v581h-76v39h76v100h52v-100h170v-39h-170v-157h4q65 76 162 76z" />
    <glyph glyph-name="Itilde" unicode="&#x128;" horiz-adv-x="234" 
d="M11 765l-34 17q15 29 39.5 47.5t49.5 18.5q21 0 53.5 -18t49.5 -18q25 0 56 33l35 -19q-36 -62 -90 -62q-24 0 -56 17.5t-46 17.5q-30 0 -57 -34zM143 690v-690h-54v690h54z" />
    <glyph glyph-name="itilde" unicode="&#x129;" horiz-adv-x="226" 
d="M7 587l-34 17q9 27 34.5 48t51.5 21q23 0 56 -19.5t49 -19.5q28 0 53 36l33 -18q-9 -26 -34 -46t-52 -20q-23 0 -55 19t-48 19q-34 0 -54 -37zM87 0l1 490h51v-490h-52z" />
    <glyph glyph-name="Imacron" unicode="&#x12a;" horiz-adv-x="234" 
d="M242 821v-45h-257v45h257zM143 690v-690h-54v690h54z" />
    <glyph glyph-name="imacron" unicode="&#x12b;" horiz-adv-x="226" 
d="M243 652v-47h-259v47h259zM87 0l1 490h51v-490h-52z" />
    <glyph glyph-name="Iogonek" unicode="&#x12e;" horiz-adv-x="234" 
d="M143 -166l6 -34q-18 -9 -41 -9q-35 0 -55.5 23t-20.5 60q0 35 18.5 69.5t49.5 56.5h-11v690h54v-690q-70 -58 -70 -118q0 -22 11 -37t29 -15t30 4z" />
    <glyph glyph-name="iogonek" unicode="&#x12f;" horiz-adv-x="232" 
d="M116 610q-18 0 -29 11t-11 29t11 29t29 11q17 0 28 -11t11 -29t-11 -29t-28 -11zM113 -170q18 0 30 4l6 -34q-18 -9 -41 -9q-35 0 -55.5 23t-20.5 60q0 35 18.5 69.5t49.5 56.5h-10l1 490h52v-490q-70 -58 -70 -118q0 -22 11 -37t29 -15z" />
    <glyph glyph-name="Idotaccent" unicode="&#x130;" horiz-adv-x="234" 
d="M116 760q-18 0 -29 11t-11 28t11 28t29 11t29.5 -11t11.5 -28t-11.5 -28t-29.5 -11zM143 690v-690h-54v690h54z" />
    <glyph glyph-name="dotlessi" unicode="&#x131;" horiz-adv-x="226" 
d="M87 0l1 490h51v-490h-52z" />
    <glyph glyph-name="IJ" unicode="&#x132;" horiz-adv-x="611" 
d="M143 690v-690h-54v690h54zM379 -10q-71 0 -119 24l12 40q44 -19 101 -19q47 0 73.5 27t26.5 74v510h-162v44h215v-552q0 -69 -39 -108.5t-108 -39.5z" />
    <glyph glyph-name="ij" unicode="&#x133;" horiz-adv-x="475" 
d="M116 610q-18 0 -29 11t-11 29t11 29t29 11q17 0 28 -11t11 -29t-11 -29t-28 -11zM355 610q-18 0 -28.5 11t-10.5 29t10.5 29t28.5 11t29 -11t11 -29t-11 -29t-29 -11zM90 0l1 490h52v-490h-53zM232 -230l-8 42q59 14 81.5 54t23.5 130v494h52v-487q4 -219 -149 -233z" />
    <glyph glyph-name="Kcommaaccent" unicode="&#x136;" horiz-adv-x="565" 
d="M259 348l293 -342v-6h-62l-278 323h-69v-323h-54v690h54v-321h65l263 321h60v-7l-272 -330v-5zM296 -46q18 0 28.5 -12t10.5 -33q1 -51 -44 -119l-27 6q29 58 25 84q-30 2 -30 36q0 17 10 27.5t27 10.5z" />
    <glyph glyph-name="kcommaaccent" unicode="&#x137;" horiz-adv-x="482" 
d="M241 261l227 -255v-6h-61l-210 238h-57v-238h-51v720h51v-435h56l190 205h59v-6l-204 -219v-4zM257 -46q18 0 28.5 -12t10.5 -33q1 -51 -44 -119l-27 6q29 58 25 84q-30 2 -30 36q0 17 10 27.5t27 10.5z" />
    <glyph glyph-name="kgreenlandic" unicode="&#x138;" horiz-adv-x="465" 
d="M220 251l234 -245v-6h-56l-219 229h-38v-229h-52v490h52v-220h33l196 220h54v-6l-204 -229v-4z" />
    <glyph glyph-name="Lacute" unicode="&#x139;" horiz-adv-x="523" 
d="M264 825l-185 -80l-16 39l179 96l23 -50zM143 690v-646h367l-5 -44h-416v690h54z" />
    <glyph glyph-name="lacute" unicode="&#x13a;" horiz-adv-x="275" 
d="M262 892l-172 -105l-22 35l168 117l26 -42v-5zM194 -8q-105 0 -105 143l1 585h51v-570q0 -62 15.5 -87t56.5 -25q21 0 39 3l6 -40q-21 -9 -64 -9z" />
    <glyph glyph-name="Lcommaaccent" unicode="&#x13b;" horiz-adv-x="523" 
d="M143 690v-646h367l-5 -44h-416v690h54zM297 -46q18 0 28.5 -12t10.5 -33q1 -51 -44 -119l-27 6q29 58 25 84q-30 2 -30 36q0 17 10 27.5t27 10.5z" />
    <glyph glyph-name="lcommaaccent" unicode="&#x13c;" horiz-adv-x="275" 
d="M194 -8q-105 0 -105 143l1 585h51v-570q0 -62 15.5 -87t56.5 -25q21 0 39 3l6 -40q-21 -9 -64 -9zM193 -46q18 0 28.5 -12t10.5 -33q1 -51 -44 -119l-27 6q29 58 25 84q-30 2 -30 36q0 17 10 27.5t27 10.5z" />
    <glyph glyph-name="Lcaron" unicode="&#x13d;" horiz-adv-x="523" 
d="M367 698q38 0 38 -44q1 -52 -44 -120l-27 7q29 57 25 83q-14 2 -22 11.5t-8 24.5q0 17 10 27.5t28 10.5zM143 690v-646h367l-5 -44h-416v690h54z" />
    <glyph glyph-name="lcaron" unicode="&#x13e;" horiz-adv-x="275" 
d="M235 731q38 0 38 -45q1 -51 -44 -119l-26 7q29 56 25 83q-14 1 -22.5 10.5t-8.5 25.5q0 17 10.5 27.5t27.5 10.5zM194 -8q-105 0 -105 143l1 585h51v-570q0 -62 15.5 -87t56.5 -25q21 0 39 3l6 -40q-21 -9 -64 -9z" />
    <glyph glyph-name="Ldot" unicode="&#x13f;" horiz-adv-x="523" 
d="M89 0v690h54v-646h367l-3 -44h-418zM371 276q-20 0 -31.5 12t-11.5 33t11.5 33.5t31.5 12.5t32.5 -12.5t12.5 -33.5t-12.5 -33t-32.5 -12z" />
    <glyph glyph-name="ldot" unicode="&#x140;" horiz-adv-x="337" 
d="M205 -8q-56 0 -86 36t-30 107l1 585h51v-570q0 -60 19.5 -86t62.5 -26q7 0 14 0.5t12 1t9 0.5h6l2 1l6 -38q-33 -11 -67 -11zM235 276q-20 0 -31.5 12t-11.5 32q0 22 11.5 34.5t31.5 12.5q21 0 33.5 -12.5t12.5 -34.5q0 -20 -13 -32t-33 -12z" />
    <glyph glyph-name="Lslash" unicode="&#x141;" horiz-adv-x="568" 
d="M189 690v-292l105 88l26 -32l-131 -107v-302h366v-45h-420v307l-83 -71l-27 31l110 90v333h54z" />
    <glyph glyph-name="lslash" unicode="&#x142;" horiz-adv-x="305" 
d="M285 41l6 -38q-33 -11 -68 -11q-56 0 -86 36.5t-30 106.5v174l-86 -69l-26 32l112 89l1 359h51v-318l100 79l25 -32l-125 -99v-200q0 -60 19.5 -86t62.5 -26q8 0 15 0.5t12 1t9 0.5h6z" />
    <glyph glyph-name="Nacute" unicode="&#x143;" horiz-adv-x="698" 
d="M492 825l-185 -80l-16 39l179 96l23 -50zM89 0v690h53l409 -600h6v600h51v-690h-52l-409 602h-7v-602h-51z" />
    <glyph glyph-name="nacute" unicode="&#x144;" horiz-adv-x="557" 
d="M417 662l-172 -105l-22 35l168 117l26 -42v-5zM304 500q86 0 126 -46.5t40 -143.5v-310h-52v305q0 78 -30.5 114t-95.5 36q-91 0 -153 -83v-372h-52v490h41l5 -71h4q67 81 167 81z" />
    <glyph glyph-name="Ncommaaccent" unicode="&#x145;" horiz-adv-x="698" 
d="M89 0v690h53l409 -600h6v600h51v-690h-52l-409 602h-7v-602h-51zM350 -46q18 0 28.5 -12t10.5 -33q1 -51 -44 -119l-27 6q29 58 25 84q-30 2 -30 36q0 17 10 27.5t27 10.5z" />
    <glyph glyph-name="ncommaaccent" unicode="&#x146;" horiz-adv-x="557" 
d="M304 500q86 0 126 -46.5t40 -143.5v-310h-52v305q0 78 -30.5 114t-95.5 36q-91 0 -153 -83v-372h-52v490h41l5 -71h4q67 81 167 81zM280 -46q18 0 28.5 -12t10.5 -33q1 -51 -44 -119l-27 6q29 58 25 84q-30 2 -30 36q0 17 10 27.5t27 10.5z" />
    <glyph glyph-name="Ncaron" unicode="&#x147;" horiz-adv-x="698" 
d="M334 742l-146 93v5l25 33l126 -82l126 82l24 -32v-6l-144 -93h-11zM89 0v690h53l409 -600h6v600h51v-690h-52l-409 602h-7v-602h-51z" />
    <glyph glyph-name="ncaron" unicode="&#x148;" horiz-adv-x="557" 
d="M270 559l-146 97v4l23 33l128 -86l128 86l22 -32v-5l-144 -97h-11zM304 500q86 0 126 -46.5t40 -143.5v-310h-52v305q0 78 -30.5 114t-95.5 36q-91 0 -153 -83v-372h-52v490h41l5 -71h4q67 81 167 81z" />
    <glyph glyph-name="Eng" unicode="&#x14a;" horiz-adv-x="694" 
d="M461 -174q-71 0 -119 24l12 42q46 -19 102 -19q47 0 73.5 27t26.5 74v30l-408 600h-6q0 -2 0.5 -9.5t0.5 -11.5v-583h-54v690h57l404 -597h6q0 1 -0.5 9t-0.5 12v576h54v-716q0 -69 -39 -108.5t-109 -39.5z" />
    <glyph glyph-name="eng" unicode="&#x14b;" horiz-adv-x="551" 
d="M304 500q86 0 126 -46.5t40 -143.5l-1 -323q0 -203 -147 -217l-8 41q58 15 81 56.5t23 131.5v306q0 78 -30.5 114t-95.5 36q-94 0 -153 -80v-375h-52v490h41l5 -68h4q66 78 167 78z" />
    <glyph glyph-name="Omacron" unicode="&#x14c;" horiz-adv-x="724" 
d="M483 820v-45h-257v45h257zM362 700q142 0 226.5 -97t84.5 -258t-84.5 -258t-226.5 -97t-226.5 97t-84.5 258t84.5 258t226.5 97zM362 37q117 0 187 83t70 225t-70 225t-187 83t-187 -83t-70 -225t70 -225t187 -83z" />
    <glyph glyph-name="omacron" unicode="&#x14d;" horiz-adv-x="544" 
d="M402 652v-47h-259v47h259zM273 500q100 0 161.5 -70t62.5 -184q0 -115 -61.5 -185.5t-162.5 -70.5q-100 0 -162 70t-63 184q1 115 62.5 185.5t162.5 70.5zM273 456q-78 0 -125.5 -58t-47.5 -153t47.5 -153t125.5 -58q77 0 124.5 58t47.5 153t-47.5 153t-124.5 58z" />
    <glyph glyph-name="Ohungarumlaut" unicode="&#x150;" horiz-adv-x="724" 
d="M428 867l-157 -127l-26 33l148 141l35 -42v-5zM416 738l-21 36l163 123l28 -46v-5zM362 700q142 0 226.5 -97t84.5 -258t-84.5 -258t-226.5 -97t-226.5 97t-84.5 258t84.5 258t226.5 97zM362 37q117 0 187 83t70 225t-70 225t-187 83t-187 -83t-70 -225t70 -225t187 -83z
" />
    <glyph glyph-name="ohungarumlaut" unicode="&#x151;" horiz-adv-x="544" 
d="M342 679l-146 -129l-27 32l139 137l33 -35zM498 668l-154 -119l-26 33l148 129l31 -38zM273 500q100 0 161.5 -70t62.5 -184q0 -115 -61.5 -185.5t-162.5 -70.5q-100 0 -162 70t-63 184q1 115 62.5 185.5t162.5 70.5zM273 456q-78 0 -125.5 -58t-47.5 -153t47.5 -153
t125.5 -58q77 0 124.5 58t47.5 153t-47.5 153t-124.5 58z" />
    <glyph glyph-name="OE" unicode="&#x152;" horiz-adv-x="1018" 
d="M969 44l-6 -44h-517q-39 -10 -84 -10q-142 0 -226.5 97t-84.5 258t84.5 258t226.5 97q45 0 84 -10h518v-44h-423q122 -87 131 -274h237v-44h-236q-6 -194 -132 -284h428zM105 345q0 -142 70 -225t187 -83t187 83t70 225t-70 225t-187 83t-187 -83t-70 -225z" />
    <glyph glyph-name="oe" unicode="&#x153;" horiz-adv-x="872" 
d="M819 87l20 -39q-82 -58 -170 -58q-73 0 -122.5 34.5t-74.5 93.5q-27 -61 -79 -94.5t-120 -33.5q-100 0 -162 70t-63 184q1 115 62.5 185.5t162.5 70.5q69 0 121.5 -34.5t78.5 -96.5q27 62 79.5 96t118.5 34q75 0 118.5 -37t43.5 -93t-49 -98t-123.5 -61.5t-157.5 -16.5
q11 -73 53.5 -115t115.5 -42q65 0 147 51zM273 34q77 0 124.5 58t47.5 153t-47.5 153t-124.5 58q-78 0 -125.5 -58t-47.5 -153t47.5 -153t125.5 -58zM669 455q-77 0 -124.5 -61.5t-45.5 -158.5q68 -4 132.5 10.5t107.5 46.5t43 74q0 40 -30.5 64.5t-82.5 24.5z" />
    <glyph glyph-name="Racute" unicode="&#x154;" horiz-adv-x="595" 
d="M418 825l-185 -80l-16 39l179 96l23 -50zM380 255l181 -249v-6h-57l-182 251q-11 13 -20.5 17.5t-29.5 4.5h-130v-273h-53v690h196q117 0 185 -54.5t68 -149.5q0 -74 -48 -129.5t-128 -74.5v-5l6 -7q7 -8 12 -15zM142 317h134q91 0 150 47t59 121q0 76 -55 118.5
t-150 42.5h-138v-329z" />
    <glyph glyph-name="racute" unicode="&#x155;" horiz-adv-x="343" 
d="M332 662l-172 -105l-22 35l168 117l26 -42v-5zM86 0v490h41l6 -83h4q67 92 166 93q3 0 6.5 -0.5t4.5 -0.5l-4 -48h-10q-46 -1 -89.5 -28.5t-72.5 -73.5v-349h-52z" />
    <glyph glyph-name="Rcommaaccent" unicode="&#x156;" horiz-adv-x="595" 
d="M380 255l181 -249v-6h-57l-182 251q-11 13 -20.5 17.5t-29.5 4.5h-130v-273h-53v690h196q117 0 185 -54.5t68 -149.5q0 -74 -48 -129.5t-128 -74.5v-5l6 -7q7 -8 12 -15zM142 317h134q91 0 150 47t59 121q0 76 -55 118.5t-150 42.5h-138v-329zM296 -46q18 0 28.5 -12
t10.5 -33q1 -51 -44 -119l-27 6q29 58 25 84q-30 2 -30 36q0 17 10 27.5t27 10.5z" />
    <glyph glyph-name="rcommaaccent" unicode="&#x157;" horiz-adv-x="343" 
d="M86 0v490h41l6 -83h4q67 92 166 93q3 0 6.5 -0.5t4.5 -0.5l-4 -48h-10q-46 -1 -89.5 -28.5t-72.5 -73.5v-349h-52zM111 -46q18 0 28.5 -12t10.5 -33q1 -51 -44 -119l-27 6q29 58 25 84q-30 2 -30 36q0 17 10 27.5t27 10.5z" />
    <glyph glyph-name="Rcaron" unicode="&#x158;" horiz-adv-x="595" 
d="M271 742h-11l-146 93v5l25 33l126 -82l126 82l24 -32v-6zM380 255l181 -249v-6h-57l-182 251q-11 13 -20.5 17.5t-29.5 4.5h-130v-273h-53v690h196q117 0 185 -54.5t68 -149.5q0 -74 -48 -129.5t-128 -74.5v-5l6 -7q7 -8 12 -15zM142 317h134q91 0 150 47t59 121
q0 76 -55 118.5t-150 42.5h-138v-329z" />
    <glyph glyph-name="rcaron" unicode="&#x159;" horiz-adv-x="343" 
d="M185 559l-146 97v4l23 33l128 -86l128 86l22 -32v-5l-144 -97h-11zM86 0v490h41l6 -83h4q67 92 166 93q3 0 6.5 -0.5t4.5 -0.5l-4 -48h-10q-46 -1 -89.5 -28.5t-72.5 -73.5v-349h-52z" />
    <glyph glyph-name="Sacute" unicode="&#x15a;" 
d="M444 830l-185 -80l-16 39l179 96l23 -50zM294 700q111 0 193 -44l-18 -43q-76 42 -176 42q-80 0 -126 -33t-46 -93q0 -39 21 -68t54.5 -46.5t74 -32t81 -30.5t74 -36.5t54.5 -55t21 -80.5q0 -87 -64 -138t-173 -51q-122 0 -211 49l20 43q83 -47 191 -47q84 0 134 38
t50 101q0 39 -21 67t-54.5 45t-73.5 31t-80.5 30t-74 36.5t-54.5 56.5t-21 85q0 83 59.5 128.5t165.5 45.5z" />
    <glyph glyph-name="sacute" unicode="&#x15b;" horiz-adv-x="431" 
d="M364 662l-172 -105l-22 35l168 117l26 -42v-5zM207 -10q-89 0 -156 42l14 44q73 -40 144 -40q55 0 90.5 24t36.5 63q0 36 -28.5 58t-69 35t-81 27.5t-69 45.5t-28.5 79q0 60 47.5 96t128.5 36t134 -33l-15 -44q-55 30 -122 30q-57 0 -90 -22t-33 -60q0 -35 28.5 -58.5
t69 -37.5t81 -29.5t69 -45.5t28.5 -74q-2 -62 -50 -99t-129 -37z" />
    <glyph glyph-name="Scedilla" unicode="&#x15e;" 
d="M294 700q111 0 193 -44l-18 -43q-76 42 -176 42q-80 0 -126 -33t-46 -93q0 -39 21 -68t54.5 -46.5t74 -32t81 -30.5t74 -36.5t54.5 -55t21 -80.5q0 -87 -64 -138t-173 -51q-122 0 -211 49l20 43q83 -47 191 -47q84 0 134 38t50 101q0 39 -21 67t-54.5 45t-73.5 31
t-80.5 30t-74 36.5t-54.5 56.5t-21 85q0 83 59.5 128.5t165.5 45.5zM260 -224q-38 0 -62 13l9 35q22 -11 54 -11q26 0 41 13t15 34q0 23 -21.5 40.5t-54.5 22.5l8 36q50 -7 78.5 -34t28.5 -68q0 -36 -26.5 -58.5t-69.5 -22.5z" />
    <glyph glyph-name="scedilla" unicode="&#x15f;" horiz-adv-x="431" 
d="M207 -10q-89 0 -156 42l14 44q73 -40 144 -40q55 0 90.5 24t36.5 63q0 36 -28.5 58t-69 35t-81 27.5t-69 45.5t-28.5 79q0 60 47.5 96t128.5 36t134 -33l-15 -44q-55 30 -122 30q-57 0 -90 -22t-33 -60q0 -35 28.5 -58.5t69 -37.5t81 -29.5t69 -45.5t28.5 -74
q-2 -62 -50 -99t-129 -37zM202 -220q-38 0 -62 13l9 35q22 -11 54 -11q26 0 41 13t15 34q0 23 -21.5 40.5t-54.5 22.5l8 36q50 -7 78.5 -34t28.5 -68q0 -36 -26.5 -58.5t-69.5 -22.5z" />
    <glyph glyph-name="Scaron" unicode="&#x160;" 
d="M286 747l-146 93v5l25 33l126 -82l126 82l24 -32v-6l-144 -93h-11zM294 700q111 0 193 -44l-18 -43q-76 42 -176 42q-80 0 -126 -33t-46 -93q0 -39 21 -68t54.5 -46.5t74 -32t81 -30.5t74 -36.5t54.5 -55t21 -80.5q0 -87 -64 -138t-173 -51q-122 0 -211 49l20 43
q83 -47 191 -47q84 0 134 38t50 101q0 39 -21 67t-54.5 45t-73.5 31t-80.5 30t-74 36.5t-54.5 56.5t-21 85q0 83 59.5 128.5t165.5 45.5z" />
    <glyph glyph-name="scaron" unicode="&#x161;" horiz-adv-x="431" 
d="M217 559l-146 97v4l23 33l128 -86l128 86l22 -32v-5l-144 -97h-11zM207 -10q-89 0 -156 42l14 44q73 -40 144 -40q55 0 90.5 24t36.5 63q0 36 -28.5 58t-69 35t-81 27.5t-69 45.5t-28.5 79q0 60 47.5 96t128.5 36t134 -33l-15 -44q-55 30 -122 30q-57 0 -90 -22t-33 -60
q0 -35 28.5 -58.5t69 -37.5t81 -29.5t69 -45.5t28.5 -74q-2 -62 -50 -99t-129 -37z" />
    <glyph glyph-name="uni0162" unicode="&#x162;" horiz-adv-x="542" 
d="M8 690h525v-45h-235v-645h-54v645h-236v45zM241 -37q50 -7 78.5 -34t28.5 -68q0 -36 -26.5 -58.5t-69.5 -22.5q-38 0 -62 13l9 35q22 -11 54 -11q26 0 41 13t15 34q0 23 -21.5 40.5t-54.5 22.5z" />
    <glyph glyph-name="uni0163" unicode="&#x163;" horiz-adv-x="346" 
d="M313 446h-150v-299q0 -55 17.5 -80.5t57.5 -25.5q41 0 69 6l5 -40q-37 -13 -87 -13q-113 0 -113 142l-1 310h-94v44h95l13 145h38v-145h150v-44zM196 -37q50 -7 78.5 -34t28.5 -68q0 -36 -26.5 -58.5t-69.5 -22.5q-38 0 -62 13l9 35q22 -11 54 -11q26 0 41 13t15 34
q0 23 -21.5 40.5t-54.5 22.5z" />
    <glyph glyph-name="Tcaron" unicode="&#x164;" horiz-adv-x="542" 
d="M270 742h-11l-146 93v5l25 33l126 -82l126 82l24 -32v-6zM533 690v-45h-235v-645h-54v645h-236v45h525z" />
    <glyph glyph-name="tcaron" unicode="&#x165;" horiz-adv-x="346" 
d="M296 657q-14 1 -22.5 10.5t-8.5 25.5q0 17 10.5 27.5t27.5 10.5q38 0 38 -45q1 -51 -44 -119l-26 7q29 56 25 83zM163 635v-145h150v-44h-150v-299q0 -55 17.5 -80.5t57.5 -25.5q41 0 69 6l5 -40q-37 -13 -87 -13q-113 0 -113 142l-1 310h-94v44h95l13 145h38z" />
    <glyph glyph-name="Tbar" unicode="&#x166;" horiz-adv-x="537" 
d="M528 646h-233v-264h124v-41h-124v-341h-53v341h-124v41h124v264h-234v44h520v-44z" />
    <glyph glyph-name="tbar" unicode="&#x167;" horiz-adv-x="346" 
d="M313 446h-150v-195h142v-36h-142v-68q0 -55 17.5 -80.5t57.5 -25.5q41 0 69 6l5 -40q-37 -13 -87 -13q-113 0 -113 142v79h-82v36h82l-1 195h-94v44h95l13 145h38v-145h150v-44z" />
    <glyph glyph-name="Utilde" unicode="&#x168;" horiz-adv-x="693" 
d="M248 765l-34 17q15 29 39.5 47.5t49.5 18.5q21 0 53.5 -18t49.5 -18q25 0 56 33l35 -19q-36 -62 -90 -62q-24 0 -56 17.5t-46 17.5q-30 0 -57 -34zM346 -10q-122 0 -191 60t-69 189v451h54v-449q0 -101 54 -152.5t152 -51.5q99 0 153 51.5t54 152.5v449h54v-451
q0 -129 -69.5 -189t-191.5 -60z" />
    <glyph glyph-name="utilde" unicode="&#x169;" 
d="M170 587l-34 17q9 27 34.5 48t51.5 21q23 0 56 -19.5t49 -19.5q28 0 53 36l33 -18q-9 -26 -34 -46t-52 -20q-23 0 -55 19t-48 19q-34 0 -54 -37zM469 490v-490h-42l-5 68h-3q-68 -78 -168 -78q-85 0 -125 46.5t-40 143.5v310h52v-305q0 -78 30.5 -114t95.5 -36
q91 0 153 82v373h52z" />
    <glyph glyph-name="Umacron" unicode="&#x16a;" horiz-adv-x="693" 
d="M479 821v-45h-257v45h257zM346 -10q-122 0 -191 60t-69 189v451h54v-449q0 -101 54 -152.5t152 -51.5q99 0 153 51.5t54 152.5v449h54v-451q0 -129 -69.5 -189t-191.5 -60z" />
    <glyph glyph-name="umacron" unicode="&#x16b;" 
d="M407 652v-47h-259v47h259zM469 490v-490h-42l-5 68h-3q-68 -78 -168 -78q-85 0 -125 46.5t-40 143.5v310h52v-305q0 -78 30.5 -114t95.5 -36q91 0 153 82v373h52z" />
    <glyph glyph-name="Uring" unicode="&#x16e;" horiz-adv-x="693" 
d="M352 737q-40 0 -65 23t-25 61q0 37 24.5 59t65.5 22q40 0 64.5 -22t24.5 -59q0 -38 -24.5 -61t-64.5 -23zM352 774q23 0 37 13t14 34q0 20 -14 32.5t-37 12.5t-37.5 -12.5t-14.5 -32.5q0 -21 14.5 -34t37.5 -13zM346 -10q-122 0 -191 60t-69 189v451h54v-449
q0 -101 54 -152.5t152 -51.5q99 0 153 51.5t54 152.5v449h54v-451q0 -129 -69.5 -189t-191.5 -60z" />
    <glyph glyph-name="uring" unicode="&#x16f;" 
d="M279 557q-41 0 -65.5 23.5t-24.5 61.5q0 37 24.5 59.5t65.5 22.5q40 0 64.5 -22.5t24.5 -59.5q0 -38 -24.5 -61.5t-64.5 -23.5zM279 594q22 0 36 13.5t14 35.5q0 21 -14 33t-36 12q-23 0 -37.5 -12.5t-14.5 -33.5q0 -22 14.5 -35t37.5 -13zM469 490v-490h-42l-5 68h-3
q-68 -78 -168 -78q-85 0 -125 46.5t-40 143.5v310h52v-305q0 -78 30.5 -114t95.5 -36q91 0 153 82v373h52z" />
    <glyph glyph-name="Uhungarumlaut" unicode="&#x170;" horiz-adv-x="693" 
d="M425 868l-157 -127l-26 33l148 141l35 -42v-5zM583 847l-170 -108l-21 36l163 123l28 -46v-5zM346 -10q-122 0 -191 60t-69 189v451h54v-449q0 -101 54 -152.5t152 -51.5q99 0 153 51.5t54 152.5v449h54v-451q0 -129 -69.5 -189t-191.5 -60z" />
    <glyph glyph-name="uhungarumlaut" unicode="&#x171;" 
d="M346 679l-146 -129l-27 32l139 137l33 -35zM502 668l-154 -119l-26 33l148 129l31 -38zM469 490v-490h-42l-5 68h-3q-68 -78 -168 -78q-85 0 -125 46.5t-40 143.5v310h52v-305q0 -78 30.5 -114t95.5 -36q91 0 153 82v373h52z" />
    <glyph glyph-name="Uogonek" unicode="&#x172;" horiz-adv-x="693" 
d="M553 690h54v-451q0 -123 -63 -183t-175 -65q-59 -54 -59 -109q0 -22 11 -37t29 -15t30 4l6 -34q-18 -9 -41 -9q-35 0 -55.5 23t-20.5 60q0 68 56 116q-239 12 -239 249v451h54v-449q0 -101 54 -152.5t152 -51.5q99 0 153 51.5t54 152.5v449z" />
    <glyph glyph-name="uogonek" unicode="&#x173;" 
d="M469 -166l6 -34q-18 -9 -41 -9q-35 0 -55.5 23t-20.5 60q0 35 18.5 69.5t49.5 56.5h1l-5 68h-3q-68 -78 -168 -78q-85 0 -125 46.5t-40 143.5v310h52v-305q0 -78 30.5 -114t95.5 -36q91 0 153 82v373h52v-490q-70 -58 -70 -118q0 -22 11 -37t29 -15t30 4z" />
    <glyph glyph-name="Wcircumflex" unicode="&#x174;" horiz-adv-x="996" 
d="M372 743l-25 32v6l146 92h11l144 -93v-5l-24 -33l-126 83zM246 0l-221 690h51l178 -558q3 -13 10 -36.5t9 -33.5h5l18 72l177 557h50l176 -557q10 -33 19 -72h5q3 13 10 37.5t9 33.5l178 557h51l-221 -690h-55l-175 544q-8 29 -18 71h-8q-10 -42 -18 -71l-174 -544h-56z
" />
    <glyph glyph-name="wcircumflex" unicode="&#x175;" horiz-adv-x="757" 
d="M369 694h11l144 -97v-5l-22 -32l-128 85l-128 -85l-23 33v4zM185 0l-153 490h53l127 -437h3l136 437h55l136 -437h3l127 437h53l-153 -490h-59l-131 415h-7l-131 -415h-59z" />
    <glyph glyph-name="Ycircumflex" unicode="&#x176;" horiz-adv-x="576" 
d="M162 743l-25 32v6l146 92h11l144 -93v-5l-24 -33l-126 83zM267 0v300l-241 383v7h57l209 -343h4l208 343h57v-7l-241 -383v-300h-53z" />
    <glyph glyph-name="ycircumflex" unicode="&#x177;" horiz-adv-x="487" 
d="M233 694h11l144 -97v-5l-22 -32l-128 85l-128 -85l-23 33v4zM38 -222l7 42q18 -3 33 -3q40 0 65 24t46 80l30 79h-12l-190 484v6h53l167 -436h3l172 436h52v-6l-226 -563q-30 -77 -66.5 -113t-89.5 -36q-20 0 -44 6z" />
    <glyph glyph-name="Ydieresis" unicode="&#x178;" horiz-adv-x="576" 
d="M188 760q-18 0 -29 11t-11 28t11 28t29 11t29.5 -11t11.5 -28t-11.5 -28t-29.5 -11zM371 760q-18 0 -29 11t-11 28t11 28t29 11t29.5 -11t11.5 -28t-11.5 -28t-29.5 -11zM267 0v300l-241 383v7h57l209 -343h4l208 343h57v-7l-241 -383v-300h-53z" />
    <glyph glyph-name="Zacute" unicode="&#x179;" horiz-adv-x="584" 
d="M442 825l-185 -80l-16 39l179 96l23 -50zM44 0v38l440 605v4q-11 0 -59 -2h-367v45h489v-39l-439 -604v-4q8 1 24 1t24 1h393l-6 -45h-499z" />
    <glyph glyph-name="zacute" unicode="&#x17a;" horiz-adv-x="436" 
d="M362 662l-172 -105l-22 35l168 117l26 -42v-5zM36 0v33l300 412v4q-32 -2 -63 -2l-224 1v42h349v-36l-298 -410v-3q31 2 49 2l253 -1l-6 -42h-360z" />
    <glyph glyph-name="Zdotaccent" unicode="&#x17b;" horiz-adv-x="584" 
d="M294 760q-18 0 -29 11t-11 28t11 28t29 11t29.5 -11t11.5 -28t-11.5 -28t-29.5 -11zM44 0v38l440 605v4q-11 0 -59 -2h-367v45h489v-39l-439 -604v-4q8 1 24 1t24 1h393l-6 -45h-499z" />
    <glyph glyph-name="zdotaccent" unicode="&#x17c;" horiz-adv-x="436" 
d="M221 590q-18 0 -29 11.5t-11 28.5t11 28t29 11t30 -11t12 -28t-12 -28.5t-30 -11.5zM36 0v33l300 412v4q-32 -2 -63 -2l-224 1v42h349v-36l-298 -410v-3q31 2 49 2l253 -1l-6 -42h-360z" />
    <glyph glyph-name="Zcaron" unicode="&#x17d;" horiz-adv-x="584" 
d="M283 742l-146 93v5l25 33l126 -82l126 82l24 -32v-6l-144 -93h-11zM44 0v38l440 605v4q-11 0 -59 -2h-367v45h489v-39l-439 -604v-4q8 1 24 1t24 1h393l-6 -45h-499z" />
    <glyph glyph-name="zcaron" unicode="&#x17e;" horiz-adv-x="436" 
d="M215 559l-146 97v4l23 33l128 -86l128 86l22 -32v-5l-144 -97h-11zM36 0v33l300 412v4q-32 -2 -63 -2l-224 1v42h349v-36l-298 -410v-3q31 2 49 2l253 -1l-6 -42h-360z" />
    <glyph glyph-name="uni01EA" unicode="&#x1ea;" horiz-adv-x="724" 
d="M382 -9q-59 -54 -59 -109q0 -22 11 -37t29 -15t30 4l6 -34q-18 -9 -41 -9q-35 0 -55.5 23t-20.5 60q0 68 56 117q-132 8 -209.5 104t-77.5 250q0 161 84.5 258t226.5 97t226.5 -97t84.5 -258q0 -155 -79 -251t-212 -103zM105 345q0 -142 70 -225t187 -83t187 83t70 225
t-70 225t-187 83t-187 -83t-70 -225z" />
    <glyph glyph-name="uni01EB" unicode="&#x1eb;" horiz-adv-x="544" 
d="M282 -10q-59 -52 -59 -108q0 -22 11 -37t29 -15t30 4l6 -34q-18 -9 -41 -9q-35 0 -55.5 23t-20.5 60q0 32 16 64t42 54q-87 12 -139 80t-53 172q1 115 62.5 185.5t162.5 70.5q100 0 161.5 -70t62.5 -184q0 -113 -59 -183t-156 -73zM100 245q0 -95 47.5 -153t125.5 -58
q77 0 124.5 58t47.5 153t-47.5 153t-124.5 58q-78 0 -125.5 -58t-47.5 -153z" />
    <glyph glyph-name="AEacute" unicode="&#x1fc;" horiz-adv-x="984" 
d="M760 827l-185 -80l-16 39l179 96l23 -50zM567 45h368l-6 -45h-414v203h-298l-124 -203h-54l421 690h472v-44h-365v-275h309v-43h-309v-283zM244 247h271v399h-27z" />
    <glyph glyph-name="aeacute" unicode="&#x1fd;" horiz-adv-x="828" 
d="M608 662l-172 -105l-22 35l168 117l26 -42v-5zM249 -10q-92 0 -146.5 63t-54.5 175q0 119 72.5 195.5t178.5 76.5q76 0 153 -38v-54q59 91 183 91q68 0 109.5 -34.5t41.5 -88.5q0 -57 -49.5 -100t-124.5 -63t-158 -17q10 -74 54 -117t118 -43q64 0 146 49l20 -39
q-79 -56 -170 -56q-129 0 -187 110q-30 -54 -79.5 -82t-106.5 -28zM255 33q60 1 104 37t55 79q-13 49 -13 101v185q-54 22 -106 22q-82 0 -138.5 -63t-56.5 -159q0 -104 45 -153.5t110 -48.5zM452 239q66 -4 130.5 11t109 47.5t44.5 73.5q0 39 -30 62t-78 23
q-78 0 -124 -47.5t-52 -130.5v-39z" />
    <glyph glyph-name="Oslashacute" unicode="&#x1fe;" horiz-adv-x="722" 
d="M502 830l-185 -80l-16 39l179 96l23 -50zM564 626q107 -98 107 -281q0 -161 -84.5 -258t-225.5 -97q-89 0 -157 40l-74 -114l-39 26l75 114q-115 98 -115 289q0 161 84.5 258t225.5 97q91 0 162 -43l76 100l44 -26zM361 35q117 0 186.5 84t69.5 226t-69.5 226t-186.5 84
t-186.5 -84t-69.5 -226t69.5 -226t186.5 -84z" />
    <glyph glyph-name="oslashacute" unicode="&#x1ff;" horiz-adv-x="551" 
d="M415 662l-172 -105l-22 35l168 117l26 -42v-5zM500 541l-72 -103q68 -71 69 -192q0 -115 -61.5 -185.5t-162.5 -70.5q-59 0 -110 27l-67 -98l-39 24l68 102q-75 71 -77 199q1 115 62.5 185.5t162.5 70.5q68 0 118 -32l68 97zM273 34q77 0 124.5 58t47.5 153t-47.5 153
t-124.5 58q-78 0 -125.5 -58t-47.5 -153t47.5 -153t125.5 -58z" />
    <glyph glyph-name="Scommaaccent" unicode="&#x218;" 
d="M294 700q111 0 193 -44l-18 -43q-76 42 -176 42q-80 0 -126 -33t-46 -93q0 -39 21 -68t54.5 -46.5t74 -32t81 -30.5t74 -36.5t54.5 -55t21 -80.5q0 -87 -64 -138t-173 -51q-122 0 -211 49l20 43q83 -47 191 -47q84 0 134 38t50 101q0 39 -21 67t-54.5 45t-73.5 31
t-80.5 30t-74 36.5t-54.5 56.5t-21 85q0 83 59.5 128.5t165.5 45.5zM277 -50q18 0 28.5 -12t10.5 -33q1 -51 -44 -119l-27 6q29 58 25 84q-30 2 -30 36q0 17 10 27.5t27 10.5z" />
    <glyph glyph-name="scommaaccent" unicode="&#x219;" horiz-adv-x="431" 
d="M207 -10q-89 0 -156 42l14 44q73 -40 144 -40q55 0 90.5 24t36.5 63q0 36 -28.5 58t-69 35t-81 27.5t-69 45.5t-28.5 79q0 60 47.5 96t128.5 36t134 -33l-15 -44q-55 30 -122 30q-57 0 -90 -22t-33 -60q0 -35 28.5 -58.5t69 -37.5t81 -29.5t69 -45.5t28.5 -74
q-2 -62 -50 -99t-129 -37zM219 -46q18 0 28.5 -12t10.5 -33q1 -51 -44 -119l-27 6q29 58 25 84q-30 2 -30 36q0 17 10 27.5t27 10.5z" />
    <glyph glyph-name="uni021A" unicode="&#x21a;" horiz-adv-x="542" 
d="M8 690h525v-45h-235v-645h-54v645h-236v45zM269 -46q18 0 28.5 -12t10.5 -33q1 -51 -44 -119l-27 6q29 58 25 84q-30 2 -30 36q0 17 10 27.5t27 10.5z" />
    <glyph glyph-name="uni021B" unicode="&#x21b;" horiz-adv-x="346" 
d="M313 446h-150v-299q0 -55 17.5 -80.5t57.5 -25.5q41 0 69 6l5 -40q-37 -13 -87 -13q-113 0 -113 142l-1 310h-94v44h95l13 145h38v-145h150v-44zM224 -46q18 0 28.5 -12t10.5 -33q1 -51 -44 -119l-27 6q29 58 25 84q-30 2 -30 36q0 17 10 27.5t27 10.5z" />
    <glyph glyph-name="uni0237" unicode="&#x237;" horiz-adv-x="228" 
d="M-2 -230l-9 41q60 15 82.5 57.5t22.5 137.5v484h53v-497q0 -209 -149 -223z" />
    <glyph glyph-name="circumflex" unicode="&#x2c6;" horiz-adv-x="430" 
d="M204 694h11l144 -97v-5l-22 -32l-128 85l-128 -85l-23 33v4z" />
    <glyph glyph-name="caron" unicode="&#x2c7;" horiz-adv-x="430" 
d="M211 559l-146 97v4l23 33l128 -86l128 86l22 -32v-5l-144 -97h-11z" />
    <glyph glyph-name="breve" unicode="&#x2d8;" horiz-adv-x="392" 
d="M197 560q-58 0 -95 36t-37 94h46q6 -38 27.5 -61t57.5 -23q35 0 56.5 23.5t27.5 60.5h47q0 -58 -37 -94t-93 -36z" />
    <glyph glyph-name="dotaccent" unicode="&#x2d9;" horiz-adv-x="211" 
d="M105 590q-18 0 -29 11.5t-11 28.5t11 28t29 11t30 -11t12 -28t-12 -28.5t-30 -11.5z" />
    <glyph glyph-name="ring" unicode="&#x2da;" horiz-adv-x="306" 
d="M154 557q-40 0 -65 23.5t-25 61.5q0 37 24.5 59.5t65.5 22.5q40 0 64.5 -22.5t24.5 -59.5q0 -38 -24.5 -61.5t-64.5 -23.5zM154 594q22 0 36 13.5t14 35.5q0 21 -14 33t-36 12q-23 0 -37.5 -12.5t-14.5 -33.5q0 -22 14.5 -35t37.5 -13z" />
    <glyph glyph-name="ogonek" unicode="&#x2db;" horiz-adv-x="247" 
d="M141 -209q-35 0 -55.5 23t-20.5 60q0 35 18.5 69.5t49.5 56.5h43q-70 -58 -70 -118q0 -22 11 -37t29 -15t30 4l6 -34q-18 -9 -41 -9z" />
    <glyph glyph-name="tilde" unicode="&#x2dc;" horiz-adv-x="401" 
d="M99 587l-34 17q9 27 34.5 48t51.5 21q23 0 56 -19.5t49 -19.5q28 0 53 36l33 -18q-9 -26 -34 -46t-52 -20q-23 0 -55 19t-48 19q-34 0 -54 -37z" />
    <glyph glyph-name="hungarumlaut" unicode="&#x2dd;" horiz-adv-x="458" 
d="M238 679l-146 -129l-27 32l139 137l33 -35zM394 668l-154 -119l-26 33l148 129l31 -38z" />
    <glyph glyph-name="uni0326" unicode="&#x326;" horiz-adv-x="0" 
d="M-103 -46q18 0 28.5 -12t10.5 -33q1 -51 -44 -119l-27 6q29 58 25 84q-30 2 -30 36q0 17 10 27.5t27 10.5z" />
    <glyph glyph-name="Wgrave" unicode="&#x1e80;" horiz-adv-x="996" 
d="M343 825l-1 5l22 50l179 -96l-16 -39zM246 0l-221 690h51l178 -558q3 -13 10 -36.5t9 -33.5h5l18 72l177 557h50l176 -557q10 -33 19 -72h5q3 13 10 37.5t9 33.5l178 557h51l-221 -690h-55l-175 544q-8 29 -18 71h-8q-10 -42 -18 -71l-174 -544h-56z" />
    <glyph glyph-name="wgrave" unicode="&#x1e81;" horiz-adv-x="757" 
d="M238 662v5l26 42l168 -117l-23 -35zM185 0l-153 490h53l127 -437h3l136 437h55l136 -437h3l127 437h53l-153 -490h-59l-131 415h-7l-131 -415h-59z" />
    <glyph glyph-name="Wacute" unicode="&#x1e82;" horiz-adv-x="996" 
d="M646 825l-185 -80l-16 39l179 96l23 -50zM246 0l-221 690h51l178 -558q3 -13 10 -36.5t9 -33.5h5l18 72l177 557h50l176 -557q10 -33 19 -72h5q3 13 10 37.5t9 33.5l178 557h51l-221 -690h-55l-175 544q-8 29 -18 71h-8q-10 -42 -18 -71l-174 -544h-56z" />
    <glyph glyph-name="wacute" unicode="&#x1e83;" horiz-adv-x="757" 
d="M521 662l-172 -105l-22 35l168 117l26 -42v-5zM185 0l-153 490h53l127 -437h3l136 437h55l136 -437h3l127 437h53l-153 -490h-59l-131 415h-7l-131 -415h-59z" />
    <glyph glyph-name="Wdieresis" unicode="&#x1e84;" horiz-adv-x="996" 
d="M398 760q-18 0 -29 11t-11 28t11 28t29 11t29.5 -11t11.5 -28t-11.5 -28t-29.5 -11zM581 760q-18 0 -29 11t-11 28t11 28t29 11t29.5 -11t11.5 -28t-11.5 -28t-29.5 -11zM246 0l-221 690h51l178 -558q3 -13 10 -36.5t9 -33.5h5l18 72l177 557h50l176 -557q10 -33 19 -72
h5q3 13 10 37.5t9 33.5l178 557h51l-221 -690h-55l-175 544q-8 29 -18 71h-8q-10 -42 -18 -71l-174 -544h-56z" />
    <glyph glyph-name="wdieresis" unicode="&#x1e85;" horiz-adv-x="757" 
d="M292 592q-17 0 -28.5 11.5t-11.5 28.5t11.5 28.5t28.5 11.5q19 0 30.5 -11.5t11.5 -28.5t-11.5 -28.5t-30.5 -11.5zM459 592q-18 0 -29.5 11.5t-11.5 28.5t11.5 28.5t29.5 11.5t30 -11.5t12 -28.5t-12 -28.5t-30 -11.5zM185 0l-153 490h53l127 -437h3l136 437h55
l136 -437h3l127 437h53l-153 -490h-59l-131 415h-7l-131 -415h-59z" />
    <glyph glyph-name="Ygrave" unicode="&#x1ef2;" horiz-adv-x="576" 
d="M133 825l-1 5l22 50l179 -96l-16 -39zM267 0v300l-241 383v7h57l209 -343h4l208 343h57v-7l-241 -383v-300h-53z" />
    <glyph glyph-name="ygrave" unicode="&#x1ef3;" horiz-adv-x="487" 
d="M102 662v5l26 42l168 -117l-23 -35zM38 -222l7 42q18 -3 33 -3q40 0 65 24t46 80l30 79h-12l-190 484v6h53l167 -436h3l172 436h52v-6l-226 -563q-30 -77 -66.5 -113t-89.5 -36q-20 0 -44 6z" />
    <glyph glyph-name="uni1EF8" unicode="&#x1ef8;" horiz-adv-x="576" 
d="M184 765l-34 17q15 29 39.5 47.5t49.5 18.5q21 0 53.5 -18t49.5 -18q25 0 56 33l35 -19q-36 -62 -90 -62q-24 0 -56 17.5t-46 17.5q-30 0 -57 -34zM267 0v300l-241 383v7h57l209 -343h4l208 343h57v-7l-241 -383v-300h-53z" />
    <glyph glyph-name="uni1EF9" unicode="&#x1ef9;" horiz-adv-x="487" 
d="M135 587l-34 17q9 27 34.5 48t51.5 21q23 0 56 -19.5t49 -19.5q28 0 53 36l33 -18q-9 -26 -34 -46t-52 -20q-23 0 -55 19t-48 19q-34 0 -54 -37zM38 -222l7 42q18 -3 33 -3q40 0 65 24t46 80l30 79h-12l-190 484v6h53l167 -436h3l172 436h52v-6l-226 -563
q-30 -77 -66.5 -113t-89.5 -36q-20 0 -44 6z" />
    <glyph glyph-name="endash" unicode="&#x2013;" horiz-adv-x="540" 
d="M54 268v41h432v-41h-432z" />
    <glyph glyph-name="emdash" unicode="&#x2014;" horiz-adv-x="952" 
d="M54 269v41h844v-41h-844z" />
    <glyph glyph-name="quoteleft" unicode="&#x2018;" horiz-adv-x="153" 
d="M80 517q-43 0 -43 52q0 31 15.5 70t33.5 66l27 -10q-31 -57 -26 -93q15 -2 24.5 -13t9.5 -28q0 -20 -11 -32t-30 -12z" />
    <glyph glyph-name="quoteright" unicode="&#x2019;" horiz-adv-x="139" 
d="M69 705q42 0 42 -52q1 -62 -48 -135l-28 9q32 59 27 93q-16 1 -25.5 12.5t-9.5 28.5q0 20 11.5 32t30.5 12z" />
    <glyph glyph-name="quotesinglbase" unicode="&#x201a;" horiz-adv-x="152" 
d="M72 -112l-28 10q32 59 27 93q-15 2 -24.5 13t-9.5 28q0 20 11 32t30 12q42 0 42 -52q1 -60 -48 -136z" />
    <glyph glyph-name="quotedblleft" unicode="&#x201c;" horiz-adv-x="295" 
d="M79 517q-42 0 -42 52q0 31 15 70t33 66l28 -10q-32 -57 -26 -93q15 -2 24 -13t9 -28q0 -20 -11 -32t-30 -12zM222 517q-42 0 -42 52q-1 61 47 136l29 -10q-32 -59 -26 -93q15 -2 24 -13t9 -28q0 -20 -11 -32t-30 -12z" />
    <glyph glyph-name="quotedblright" unicode="&#x201d;" horiz-adv-x="296" 
d="M73 517l-28 9q31 57 26 93q-15 2 -24.5 13t-9.5 28q0 20 11.5 32t30.5 12q42 0 42 -52q0 -61 -48 -135zM216 517l-28 9q31 58 25 93q-15 2 -24 13t-9 28q0 20 11 32t30 12q43 0 43 -52q0 -61 -48 -135z" />
    <glyph glyph-name="quotedblbase" unicode="&#x201e;" horiz-adv-x="296" 
d="M73 -112l-28 10q31 57 26 93q-15 2 -24.5 13t-9.5 28q0 20 11.5 32t30.5 12q42 0 42 -52q0 -62 -48 -136zM216 -112l-28 10q31 58 25 93q-15 2 -24 13t-9 28q0 20 11 32t30 12q43 0 43 -52q0 -62 -48 -136z" />
    <glyph glyph-name="dagger" unicode="&#x2020;" horiz-adv-x="587" 
d="M267 497l-5 198h60l-5 -198h-50zM89 436v54l164 -6v-45zM332 439v45l164 6v-54zM264 -135l3 555h50l3 -555h-56z" />
    <glyph glyph-name="daggerdbl" unicode="&#x2021;" horiz-adv-x="587" 
d="M267 497l-5 198h60l-5 -198h-50zM89 436v54l164 -6v-45zM496 436l-164 3v45l164 6v-54zM266 141l-1 141l1 138h51l1 -137l-1 -142h-51zM89 72v53l164 -2v-46zM496 72l-164 5v46l164 2v-53zM262 -134l5 198h50l5 -198h-60z" />
    <glyph glyph-name="bullet" unicode="&#x2022;" horiz-adv-x="278" 
d="M44 265q0 42 25.5 67.5t66.5 25.5t66.5 -25.5t25.5 -67.5q0 -41 -25.5 -66.5t-66.5 -25.5t-66.5 25.5t-25.5 66.5z" />
    <glyph glyph-name="ellipsis" unicode="&#x2026;" horiz-adv-x="666" 
d="M88 -10q-20 0 -32 12.5t-12 32.5q0 21 12 33.5t32 12.5t32 -12.5t12 -33.5q0 -20 -12 -32.5t-32 -12.5zM329 -10q-20 0 -32 12.5t-12 32.5q0 21 12 33.5t32 12.5t32.5 -12.5t12.5 -33.5q0 -20 -12.5 -32.5t-32.5 -12.5zM572 -10q-20 0 -32 12.5t-12 32.5q0 21 12 33.5
t32 12.5t32 -12.5t12 -33.5q0 -20 -12 -32.5t-32 -12.5z" />
    <glyph glyph-name="perthousand" unicode="&#x2030;" horiz-adv-x="1111" 
d="M205 5l368 717l44 -17l-369 -717zM185 332q-68 0 -108.5 50t-40.5 132q0 83 41.5 134t110.5 51q67 0 107 -50t40 -132q0 -84 -40.5 -134.5t-109.5 -50.5zM187 374q47 0 75 38.5t28 102.5q0 65 -28 103.5t-75 38.5q-48 0 -76.5 -38.5t-28.5 -103.5q0 -64 28.5 -102.5
t76.5 -38.5zM625 -8q-68 0 -108.5 50t-40.5 133q0 84 41 134t111 50q67 0 107 -49.5t40 -131.5q0 -84 -40.5 -135t-109.5 -51zM1000 -8q-68 0 -108.5 50t-40.5 133q0 84 41 134t111 50q67 0 107 -49.5t40 -131.5q0 -84 -40.5 -135t-109.5 -51zM627 34q47 0 75 39t28 103
t-28 103t-76 39q-47 0 -75.5 -39t-28.5 -103t28.5 -103t76.5 -39zM1002 34q47 0 75 39t28 103t-28 103t-75 39q-48 0 -76.5 -39t-28.5 -103t28.5 -103t76.5 -39z" />
    <glyph glyph-name="guilsinglleft" unicode="&#x2039;" horiz-adv-x="272" 
d="M171 68l-122 185v11l122 185h54l-122 -187v-8l122 -186h-54z" />
    <glyph glyph-name="guilsinglright" unicode="&#x203a;" horiz-adv-x="282" 
d="M112 68h-54l121 186v8l-121 187h54l122 -185v-11z" />
    <glyph glyph-name="fraction" unicode="&#x2044;" horiz-adv-x="162" 
d="M-176 0l479 715l40 -25l-480 -716z" />
    <glyph glyph-name="Euro" unicode="&#x20ac;" horiz-adv-x="650" 
d="M485 436l-10 -45h-427l10 45h80q19 128 94 196t194 68h1q107 0 183 -46l-18 -41q-68 41 -165 41t-159 -55.5t-78 -162.5h295zM597 77l16 -41q-73 -46 -192 -46q-112 0 -189.5 67.5t-94.5 197.5h-89l10 44h410l-10 -44h-268q16 -106 79 -162.5t152 -56.5q103 0 176 41z
" />
    <glyph glyph-name="trademark" unicode="&#x2122;" horiz-adv-x="675" 
d="M290 392l19 299h52l59 -164l31 -89h1l32 89l58 164h51l20 -299h-36l-16 243h-1l-90 -240h-38l-90 240h-1l-16 -243h-35zM135 392v262h-92v36h224v-36h-92v-262h-40z" />
    <glyph glyph-name="minus" unicode="&#x2212;" 
d="M46 251v40h464v-40h-464z" />
    <glyph glyph-name="approxequal" unicode="&#x2248;" horiz-adv-x="577" 
d="M177 410q51 0 116.5 -37.5t109.5 -37.5q52 0 99 45l23 -31q-22 -25 -55.5 -41t-68.5 -16q-52 0 -117 37t-110 37q-52 0 -99 -45l-23 32q23 25 57 41t68 16zM177 231q51 0 116.5 -37.5t109.5 -37.5q51 0 99 46l23 -33q-22 -24 -56 -40t-68 -16q-52 0 -117 37.5t-110 37.5
q-51 0 -99 -46l-23 33q54 56 125 56z" />
    <glyph glyph-name="notequal" unicode="&#x2260;" horiz-adv-x="559" 
d="M512 347h-180l-67 -147h247v-41h-266l-83 -180l-37 18l74 162h-152v41h171l67 147h-238v41h257l78 170l38 -18l-70 -152h161v-41z" />
    <glyph glyph-name="uniF8FF" unicode="&#xf8ff;" horiz-adv-x="1476" 
d="M764 645q26 0 44 -18t18 -44t-18 -43.5t-44 -17.5t-43.5 18t-17.5 43q0 26 17.5 44t43.5 18zM221 584q9 -139 10 -314h-119q0 78 2 156.5t4 117.5l3 40h100zM635 526l1 -17h178q10 -64 10 -239h-118q0 92 3 147h-61l3 -65q4 -4 15 -4q6 0 10.5 1t5.5 3l2 1v-74
q-10 -15 -66 -15q-84 0 -84 66q0 15 2 50t2 37h-22v79zM385 514q119 0 121 -117v-127h-83l-8 61q-6 -33 -23.5 -49.5t-51.5 -16.5q-92 0 -92 113q0 136 137 136zM1023 514q41 0 57.5 -24.5t18.5 -81.5l3 -138h-114q0 26 1 56t1 40q0 26 -15 26q-18 0 -18 -26q0 -10 1.5 -40
t1.5 -56h-114q0 78 2.5 137.5t5.5 80.5l2 21h80q6 -45 6 -76q0 9 4.5 25t24.5 36t52 20zM1240 514q70 0 96.5 -34.5t26.5 -95.5q0 -55 -31 -87t-93 -32q-60 0 -90.5 33t-30.5 86q0 130 122 130zM379 401q-23 0 -23 -26q0 -30 23 -30t23 30q0 26 -23 26zM1240 401
q-21 0 -21 -26q0 -30 21 -30q23 0 23 30q0 26 -23 26zM233 256l-1 -17l177 -1v-119q0 -27 14 -27q17 0 17 27v119h104q10 -60 10 -147q0 -73 -35 -107t-114 -34q-32 0 -54.5 4t-29.5 8l-7 5v83q20 -16 69 -16q24 0 37.5 7t15.5 14l2 7q-13 -11 -49 -11q-90 0 -90 83v13h-55
l3 -65q4 -4 15 -4q6 0 10.5 1t5.5 3l2 1v-73q-10 -15 -67 -15q-82 0 -82 64q0 46 3 88h-18v80zM745 243q37 0 58.5 -29t21.5 -83q0 -136 -137 -136q1 -13 1 -39h-119q0 76 2.5 146.5t5.5 103.5l2 32h78q7 -52 7 -76q2 11 6.5 25.5t24 35t49.5 20.5zM967 243q54 0 84.5 -30
t30.5 -84l-3 -37h-124q9 -18 49 -18q16 0 30 3t20 6l6 3v-75q-20 -16 -78 -16q-69 0 -105 31t-36 86q0 64 32.5 97.5t93.5 33.5zM973 136q-23 0 -23 -27h40q3 27 -17 27zM699 132q-22 0 -22 -32l5 -28q4 0 10 1.5t16.5 11t10.5 25.5q0 22 -20 22zM1110 35q9 0 15.5 -6
t6.5 -16t-6.5 -16.5t-15.5 -6.5q-10 0 -16.5 6.5t-6.5 16.5t6.5 16t16.5 6zM1110 31q-8 0 -13 -5.5t-5 -12.5t5 -12.5t13 -5.5q7 0 12 5.5t5 12.5t-5 12.5t-12 5.5zM1111 25q10 0 10 -7t-7 -7l6 -9h-6l-4 9h-5v-9h-5v23h11zM1110 21h-5v-6h6q5 0 5 4q0 2 -6 2z" />
    <glyph glyph-name="IJacute" horiz-adv-x="611" 
d="M266 824l-185 -80l-16 39l180 96l22 -50zM558 824l-185 -80l-16 39l179 96l23 -50zM143 690v-690h-54v690h54zM379 -10q-71 0 -119 24l12 40q44 -19 101 -19q47 0 73.5 27t26.5 74v510h-162v44h215v-552q0 -69 -39 -108.5t-108 -39.5z" />
    <glyph glyph-name="i.loclTRK" horiz-adv-x="226" 
d="M115 590q-18 0 -29 11.5t-11 28.5t11 28t29 11t30 -11t12 -28t-12 -28.5t-30 -11.5zM87 0l1 490h51v-490h-52z" />
    <glyph glyph-name="ijacute" horiz-adv-x="454" 
d="M250 662l-172 -105l-22 35l168 117l26 -42v-5zM474 662l-172 -105l-22 35l168 117l26 -42v-5zM87 0l1 490h51v-490h-52zM224 -230l-9 41q60 15 82.5 57.5t22.5 137.5v484h53v-497q0 -209 -149 -223z" />
    <glyph glyph-name="acute.case" horiz-adv-x="331" 
d="M266 824l-185 -80l-16 39l179 96l23 -50z" />
    <glyph glyph-name="breve.case" horiz-adv-x="381" 
d="M316 876q0 -55 -34 -93t-90 -38q-58 0 -92.5 37.5t-34.5 93.5h39q6 -38 28 -63.5t60 -25.5q70 0 85 89h39z" />
    <glyph glyph-name="caron.case" horiz-adv-x="431" 
d="M211 742l-146 93v5l25 33l126 -82l126 82l24 -32v-6l-144 -93h-11z" />
    <glyph glyph-name="circumflex.case" horiz-adv-x="431" 
d="M90 743l-25 32v6l146 92h11l144 -93v-5l-24 -33l-126 83z" />
    <glyph glyph-name="dieresis.case" horiz-adv-x="393" 
d="M105 760q-18 0 -29 11t-11 28t11 28t29 11t29.5 -11t11.5 -28t-11.5 -28t-29.5 -11zM288 760q-18 0 -29 11t-11 28t11 28t29 11t29.5 -11t11.5 -28t-11.5 -28t-29.5 -11z" />
    <glyph glyph-name="dotaccent.case" horiz-adv-x="210" 
d="M105 760q-18 0 -29 11t-11 28t11 28t29 11t29.5 -11t11.5 -28t-11.5 -28t-29.5 -11z" />
    <glyph glyph-name="grave.case" horiz-adv-x="331" 
d="M66 824l-1 5l22 50l179 -96l-16 -39z" />
    <glyph glyph-name="hungarumlaut.case" horiz-adv-x="470" 
d="M248 868l-157 -127l-26 33l148 141l35 -42v-5zM406 847l-170 -108l-21 36l163 123l28 -46v-5z" />
    <glyph glyph-name="macron.case" horiz-adv-x="386" 
d="M322 821v-45h-257v45h257z" />
    <glyph glyph-name="ring.case" horiz-adv-x="306" 
d="M154 737q-40 0 -65 23t-25 61q0 37 24.5 59t65.5 22q40 0 64.5 -22t24.5 -59q0 -38 -24.5 -61t-64.5 -23zM154 774q23 0 37 13t14 34q0 20 -14 32.5t-37 12.5t-37.5 -12.5t-14.5 -32.5q0 -21 14.5 -34t37.5 -13z" />
    <glyph glyph-name="tilde.case" horiz-adv-x="404" 
d="M95 765l-34 17q15 29 39.5 47.5t49.5 18.5q21 0 53.5 -18t49.5 -18q25 0 56 33l35 -19q-36 -62 -90 -62q-24 0 -56 17.5t-46 17.5q-30 0 -57 -34z" />
    <glyph glyph-name="A.sc" horiz-adv-x="623" 
d="M505 0l-61 149h-265l-60 -149h-55l214 524h67l214 -524h-54zM196 191h231l-83 203l-31 78h-3l-32 -79z" />
    <glyph glyph-name="Aacute.sc" horiz-adv-x="623" 
d="M458 659l-185 -80l-16 39l179 96l23 -50zM505 0l-61 149h-265l-60 -149h-55l214 524h67l214 -524h-54zM196 191h231l-83 203l-31 78h-3l-32 -79z" />
    <glyph glyph-name="Abreve.sc" horiz-adv-x="623" 
d="M320 579q-58 0 -92.5 37.5t-34.5 93.5h39q6 -38 28 -63.5t60 -25.5q70 0 85 89h39q0 -55 -34 -93t-90 -38zM505 0l-61 149h-265l-60 -149h-55l214 524h67l214 -524h-54zM196 191h231l-83 203l-31 78h-3l-32 -79z" />
    <glyph glyph-name="Acircumflex.sc" horiz-adv-x="623" 
d="M310 659l-126 -82l-25 32v6l146 92h11l144 -93v-5l-24 -33zM505 0l-61 149h-265l-60 -149h-55l214 524h67l214 -524h-54zM196 191h231l-83 203l-31 78h-3l-32 -79z" />
    <glyph glyph-name="Adieresis.sc" horiz-adv-x="623" 
d="M211 594q-18 0 -29 11t-11 28t11 28t29 11t29.5 -11t11.5 -28t-11.5 -28t-29.5 -11zM394 594q-18 0 -29 11t-11 28t11 28t29 11t29.5 -11t11.5 -28t-11.5 -28t-29.5 -11zM505 0l-61 149h-265l-60 -149h-55l214 524h67l214 -524h-54zM196 191h231l-83 203l-31 78h-3
l-32 -79z" />
    <glyph glyph-name="Agrave.sc" horiz-adv-x="623" 
d="M339 579l-184 80l-1 5l22 50l179 -96zM505 0l-61 149h-265l-60 -149h-55l214 524h67l214 -524h-54zM196 191h231l-83 203l-31 78h-3l-32 -79z" />
    <glyph glyph-name="Amacron.sc" horiz-adv-x="623" 
d="M437 655v-45h-257v45h257zM505 0l-61 149h-265l-60 -149h-55l214 524h67l214 -524h-54zM196 191h231l-83 203l-31 78h-3l-32 -79z" />
    <glyph glyph-name="Aogonek.sc" horiz-adv-x="623" 
d="M560 -166l6 -34q-18 -9 -41 -9q-35 0 -55.5 23t-20.5 60q0 35 18.5 69.5t49.5 56.5h-12l-61 149h-265l-60 -149h-55l214 524h67l214 -524h1q-70 -58 -70 -118q0 -22 11 -37t29 -15t30 4zM196 191h231l-83 203l-31 78h-3l-32 -79z" />
    <glyph glyph-name="Aring.sc" horiz-adv-x="623" 
d="M311 571q-40 0 -65 23t-25 61q0 37 24.5 59t65.5 22q40 0 64.5 -22t24.5 -59q0 -38 -24.5 -61t-64.5 -23zM311 700q-23 0 -37.5 -12.5t-14.5 -32.5q0 -21 14.5 -34t37.5 -13t37 13t14 34q0 20 -14 32.5t-37 12.5zM505 0l-61 149h-265l-60 -149h-55l214 524h67l214 -524
h-54zM196 191h231l-83 203l-31 78h-3l-32 -79z" />
    <glyph glyph-name="Atilde.sc" horiz-adv-x="623" 
d="M263 633q-30 0 -57 -34l-34 17q15 29 39.5 47.5t49.5 18.5q21 0 53.5 -18t49.5 -18q25 0 56 33l35 -19q-36 -62 -90 -62q-24 0 -56 17.5t-46 17.5zM505 0l-61 149h-265l-60 -149h-55l214 524h67l214 -524h-54zM196 191h231l-83 203l-31 78h-3l-32 -79z" />
    <glyph glyph-name="AE.sc" horiz-adv-x="938" 
d="M499 43h306l-6 -43h-352v149h-223l-100 -149h-54l346 524h385v-43h-302v-196h256v-40h-256v-202zM252 191h195v282h-6z" />
    <glyph glyph-name="AEacute.sc" horiz-adv-x="938" 
d="M688 658l-185 -80l-16 39l179 96l23 -50zM499 43h306l-6 -43h-352v149h-223l-100 -149h-54l346 524h385v-43h-302v-196h256v-40h-256v-202zM252 191h195v282h-6z" />
    <glyph glyph-name="B.sc" horiz-adv-x="589" 
d="M117 0v524h180q87 0 133 -34t46 -98q0 -42 -25.5 -75t-67.5 -44v-3q50 -7 86.5 -40t36.5 -87q0 -65 -51.5 -104t-139.5 -39h-198zM170 287h128q60 0 92.5 30.5t32.5 70.5q0 95 -130 95h-123v-196zM170 41h135q69 0 108 28.5t39 76.5t-42.5 75t-108.5 27h-131v-207z" />
    <glyph glyph-name="C.sc" horiz-adv-x="561" 
d="M498 69l17 -42q-68 -35 -167 -35q-127 0 -198 71t-72 199v1q1 127 72.5 198t199.5 71q91 0 162 -33l-17 -43q-60 30 -145 30q-103 0 -160.5 -58.5t-57.5 -165.5q0 -106 57 -165t159 -59q86 0 150 31z" />
    <glyph glyph-name="Cacute.sc" horiz-adv-x="561" 
d="M480 663l-185 -80l-16 39l179 96l23 -50zM498 69l17 -42q-68 -35 -167 -35q-127 0 -198 71t-72 199v1q1 127 72.5 198t199.5 71q91 0 162 -33l-17 -43q-60 30 -145 30q-103 0 -160.5 -58.5t-57.5 -165.5q0 -106 57 -165t159 -59q86 0 150 31z" />
    <glyph glyph-name="Ccaron.sc" horiz-adv-x="561" 
d="M332 580h-11l-146 93v5l25 33l126 -82l126 82l24 -32v-6zM498 69l17 -42q-68 -35 -167 -35q-127 0 -198 71t-72 199v1q1 127 72.5 198t199.5 71q91 0 162 -33l-17 -43q-60 30 -145 30q-103 0 -160.5 -58.5t-57.5 -165.5q0 -106 57 -165t159 -59q86 0 150 31z" />
    <glyph glyph-name="Ccedilla.sc" horiz-adv-x="561" 
d="M348 -8q-127 0 -198 71t-72 199v1q1 127 72.5 198t199.5 71q91 0 162 -33l-17 -43q-60 30 -145 30q-103 0 -160.5 -58.5t-57.5 -165.5q0 -106 57 -165t159 -59q86 0 150 31l17 -42q-68 -35 -167 -35zM301 -40q50 -7 78.5 -34t28.5 -68q0 -36 -26.5 -58.5t-69.5 -22.5
q-38 0 -62 13l9 35q22 -11 54 -11q26 0 41 13t15 34q0 23 -21.5 40.5t-54.5 22.5z" />
    <glyph glyph-name="Cdotaccent.sc" horiz-adv-x="561" 
d="M332 598q-18 0 -29 11t-11 28t11 28t29 11t29.5 -11t11.5 -28t-11.5 -28t-29.5 -11zM498 69l17 -42q-68 -35 -167 -35q-127 0 -198 71t-72 199v1q1 127 72.5 198t199.5 71q91 0 162 -33l-17 -43q-60 30 -145 30q-103 0 -160.5 -58.5t-57.5 -165.5q0 -106 57 -165t159 -59
q86 0 150 31z" />
    <glyph glyph-name="D.sc" horiz-adv-x="644" 
d="M268 524q143 0 222 -68t79 -192q0 -126 -79.5 -195t-223.5 -69h-149v524h151zM262 482h-93v-440h93q120 0 187.5 58.5t67.5 163.5q0 104 -67.5 161t-187.5 57z" />
    <glyph glyph-name="Eth.sc" horiz-adv-x="644" 
d="M268 524q143 0 222 -68t79 -192q0 -126 -79.5 -195t-223.5 -69h-149v239h-88v42h88v243h151zM262 42q120 0 187 58t67 164q0 104 -67 161t-187 57h-93v-201h158v-42h-158v-197h93z" />
    <glyph glyph-name="Dcaron.sc" horiz-adv-x="644" 
d="M255 576l-146 93v5l25 33l126 -82l126 82l24 -32v-6l-144 -93h-11zM268 524q143 0 222 -68t79 -192q0 -126 -79.5 -195t-223.5 -69h-149v524h151zM262 482h-93v-440h93q120 0 187.5 58.5t67.5 163.5q0 104 -67.5 161t-187.5 57z" />
    <glyph glyph-name="Dcroat.sc" horiz-adv-x="644" 
d="M268 524q143 0 222 -68t79 -192q0 -126 -79.5 -195t-223.5 -69h-149v239h-88v42h88v243h151zM262 42q120 0 187 58t67 164q0 104 -67 161t-187 57h-93v-201h158v-42h-158v-197h93z" />
    <glyph glyph-name="E.sc" horiz-adv-x="546" 
d="M170 43h299l-6 -43h-346v524h347v-43h-294v-196h249v-40h-249v-202z" />
    <glyph glyph-name="Eacute.sc" horiz-adv-x="546" 
d="M436 659l-185 -80l-16 39l179 96l23 -50zM170 43h299l-6 -43h-346v524h347v-43h-294v-196h249v-40h-249v-202z" />
    <glyph glyph-name="Ecaron.sc" horiz-adv-x="546" 
d="M288 576h-11l-146 93v5l25 33l126 -82l126 82l24 -32v-6zM170 43h299l-6 -43h-346v524h347v-43h-294v-196h249v-40h-249v-202z" />
    <glyph glyph-name="Ecircumflex.sc" horiz-adv-x="546" 
d="M288 659l-126 -82l-25 32v6l146 92h11l144 -93v-5l-24 -33zM170 43h299l-6 -43h-346v524h347v-43h-294v-196h249v-40h-249v-202z" />
    <glyph glyph-name="Edieresis.sc" horiz-adv-x="546" 
d="M188 594q-18 0 -29 11t-11 28t11 28t29 11t29.5 -11t11.5 -28t-11.5 -28t-29.5 -11zM371 594q-18 0 -29 11t-11 28t11 28t29 11t29.5 -11t11.5 -28t-11.5 -28t-29.5 -11zM170 43h299l-6 -43h-346v524h347v-43h-294v-196h249v-40h-249v-202z" />
    <glyph glyph-name="Edotaccent.sc" horiz-adv-x="546" 
d="M288 594q-18 0 -29 11t-11 28t11 28t29 11t29.5 -11t11.5 -28t-11.5 -28t-29.5 -11zM170 43h299l-6 -43h-346v524h347v-43h-294v-196h249v-40h-249v-202z" />
    <glyph glyph-name="Egrave.sc" horiz-adv-x="546" 
d="M317 579l-184 80l-1 5l22 50l179 -96zM170 43h299l-6 -43h-346v524h347v-43h-294v-196h249v-40h-249v-202z" />
    <glyph glyph-name="Emacron.sc" horiz-adv-x="546" 
d="M415 655v-45h-257v45h257zM170 43h299l-6 -43h-346v524h347v-43h-294v-196h249v-40h-249v-202z" />
    <glyph glyph-name="Eogonek.sc" horiz-adv-x="546" 
d="M432 -170q18 0 30 4l6 -34q-18 -9 -41 -9q-35 0 -55.5 23t-20.5 60q0 35 18.5 69.5t49.5 56.5h-302v524h347v-43h-294v-196h249v-40h-249v-202h299l-6 -43h-1q-70 -58 -70 -118q0 -22 11 -37t29 -15z" />
    <glyph glyph-name="F.sc" horiz-adv-x="527" 
d="M466 482h-295v-197h248v-41h-248l-1 -244h-53v525h349v-43z" />
    <glyph glyph-name="G.sc" horiz-adv-x="625" 
d="M532 247h2v-205q-91 -50 -186 -50q-129 0 -199.5 70t-70.5 200q0 121 69 195.5t201 74.5q95 0 164 -34l-17 -40q-61 29 -147 29q-102 0 -159 -58.5t-57 -166.5t57 -166.5t159 -58.5q75 0 137 32v142h-144v44h191v-8z" />
    <glyph glyph-name="Gbreve.sc" horiz-adv-x="625" 
d="M341 579q-58 0 -92.5 37.5t-34.5 93.5h39q6 -38 28 -63.5t60 -25.5q70 0 85 89h39q0 -55 -34 -93t-90 -38zM532 247h2v-205q-91 -50 -186 -50q-129 0 -199.5 70t-70.5 200q0 121 69 195.5t201 74.5q95 0 164 -34l-17 -40q-61 29 -147 29q-102 0 -159 -58.5t-57 -166.5
t57 -166.5t159 -58.5q75 0 137 32v142h-144v44h191v-8z" />
    <glyph glyph-name="Gcommaaccent.sc" horiz-adv-x="625" 
d="M532 247h2v-205q-91 -50 -186 -50q-129 0 -199.5 70t-70.5 200q0 121 69 195.5t201 74.5q95 0 164 -34l-17 -40q-61 29 -147 29q-102 0 -159 -58.5t-57 -166.5t57 -166.5t159 -58.5q75 0 137 32v142h-144v44h191v-8zM339 -46q18 0 28.5 -12t10.5 -33q1 -51 -44 -119
l-27 6q29 58 25 84q-30 2 -30 36q0 17 10 27.5t27 10.5z" />
    <glyph glyph-name="H.sc" horiz-adv-x="671" 
d="M501 525h52v-525h-52v240h-332v-240h-52v525h52v-243h332v243z" />
    <glyph glyph-name="Hbar.sc" horiz-adv-x="797" 
d="M180 0v409h-63v41h63v75h52v-75h332v75h52v-75h63v-41h-63v-409h-52v240h-332v-240h-52zM232 282h332v127h-332v-127z" />
    <glyph glyph-name="I.sc" horiz-adv-x="289" 
d="M170 524v-524h-53v524h53z" />
    <glyph glyph-name="IJ.sc" horiz-adv-x="683" 
d="M571 525v-417q0 -54 -34 -85t-94 -31q-56 0 -101 19l11 41q38 -14 84 -14q38 0 59.5 19t21.5 53v370h-131v45h184zM117 0v524h53v-524h-53z" />
    <glyph glyph-name="Iacute.sc" horiz-adv-x="289" 
d="M289 659l-185 -80l-16 39l179 96l23 -50zM170 524v-524h-53v524h53z" />
    <glyph glyph-name="Icircumflex.sc" horiz-adv-x="289" 
d="M15 577l-25 32v6l146 92h11l144 -93v-5l-24 -33l-126 83zM170 524v-524h-53v524h53z" />
    <glyph glyph-name="Idieresis.sc" horiz-adv-x="289" 
d="M41 594q-18 0 -29 11t-11 28t11 28t29 11t29.5 -11t11.5 -28t-11.5 -28t-29.5 -11zM224 594q-18 0 -29 11t-11 28t11 28t29 11t29.5 -11t11.5 -28t-11.5 -28t-29.5 -11zM170 524v-524h-53v524h53z" />
    <glyph glyph-name="Idotaccent.sc" horiz-adv-x="289" 
d="M141 594q-18 0 -29 11t-11 28t11 28t29 11t29.5 -11t11.5 -28t-11.5 -28t-29.5 -11zM170 524v-524h-53v524h53z" />
    <glyph glyph-name="Igrave.sc" horiz-adv-x="289" 
d="M-14 659l-1 5l22 50l179 -96l-16 -39zM170 524v-524h-53v524h53z" />
    <glyph glyph-name="Imacron.sc" horiz-adv-x="289" 
d="M268 655v-45h-257v45h257zM170 524v-524h-53v524h53z" />
    <glyph glyph-name="Iogonek.sc" horiz-adv-x="289" 
d="M170 -166l6 -34q-18 -9 -41 -9q-35 0 -55.5 23t-20.5 60q0 35 18.5 69.5t49.5 56.5h-10v524h53v-524q-70 -58 -70 -118q0 -22 11 -37t29 -15t30 4z" />
    <glyph glyph-name="Itilde.sc" horiz-adv-x="289" 
d="M37 599l-34 17q15 29 39.5 47.5t49.5 18.5q21 0 53.5 -18t49.5 -18q25 0 56 33l35 -19q-36 -62 -90 -62q-24 0 -56 17.5t-46 17.5q-30 0 -57 -34zM170 524v-524h-53v524h53z" />
    <glyph glyph-name="J.sc" horiz-adv-x="394" 
d="M282 525v-417q0 -54 -34 -85t-94 -31q-56 0 -101 19l11 41q38 -14 84 -14q38 0 59.5 19t21.5 53v370h-131v45h184z" />
    <glyph glyph-name="K.sc" horiz-adv-x="547" 
d="M270 264l239 -259v-5h-61l-223 241h-55v-241h-53v524h53v-241h51l212 241h59v-6l-222 -250v-4z" />
    <glyph glyph-name="Kcommaaccent.sc" horiz-adv-x="547" 
d="M270 264l239 -259v-5h-61l-223 241h-55v-241h-53v524h53v-241h51l212 241h59v-6l-222 -250v-4zM295 -46q18 0 28.5 -12t10.5 -33q1 -51 -44 -119l-27 6q29 58 25 84q-30 2 -30 36q0 17 10 27.5t27 10.5z" />
    <glyph glyph-name="L.sc" horiz-adv-x="492" 
d="M170 524v-481h299l-5 -43h-347v524h53z" />
    <glyph glyph-name="Lacute.sc" horiz-adv-x="492" 
d="M289 659l-185 -80l-16 39l179 96l23 -50zM170 524v-481h299l-5 -43h-347v524h53z" />
    <glyph glyph-name="Lcaron.sc" horiz-adv-x="492" 
d="M311 528q39 0 39 -44q1 -52 -44 -120l-27 7q29 57 25 83q-14 2 -22 11.5t-8 24.5q0 17 10 27.5t27 10.5zM170 524v-481h299l-5 -43h-347v524h53z" />
    <glyph glyph-name="Lcommaaccent.sc" horiz-adv-x="492" 
d="M170 524v-481h299l-5 -43h-347v524h53zM290 -46q18 0 28.5 -12t10.5 -33q1 -51 -44 -119l-27 6q29 58 25 84q-30 2 -30 36q0 17 10 27.5t27 10.5z" />
    <glyph glyph-name="Ldot.sc" horiz-adv-x="572" 
d="M140 0v524h53v-481h298l-5 -43h-346zM421 265q-19 0 -31 13t-12 33q0 21 11.5 33.5t31.5 12.5t32.5 -12.5t12.5 -33.5q0 -20 -12.5 -33t-32.5 -13z" />
    <glyph glyph-name="Lslash.sc" horiz-adv-x="572" 
d="M170 43h299l-5 -43h-347v228l-83 -67l-26 31l109 89v243h53v-200l107 87l27 -31l-134 -109v-228z" />
    <glyph glyph-name="M.sc" horiz-adv-x="749" 
d="M114 0v522h63l197 -318h2l195 318h62v-522h-50v452l-196 -317h-24l-198 317v-452h-51z" />
    <glyph glyph-name="N.sc" horiz-adv-x="670" 
d="M117 0v522h50l329 -433h6v433h51v-522h-50l-330 435h-6l1 -41v-394h-51z" />
    <glyph glyph-name="Nacute.sc" horiz-adv-x="670" 
d="M478 657l-185 -80l-16 39l179 96l23 -50zM117 0v522h50l329 -433h6v433h51v-522h-50l-330 435h-6l1 -41v-394h-51z" />
    <glyph glyph-name="Ncaron.sc" horiz-adv-x="670" 
d="M320 574l-146 93v5l25 33l126 -82l126 82l24 -32v-6l-144 -93h-11zM117 0v522h50l329 -433h6v433h51v-522h-50l-330 435h-6l1 -41v-394h-51z" />
    <glyph glyph-name="Ncommaaccent.sc" horiz-adv-x="670" 
d="M117 0v522h50l329 -433h6v433h51v-522h-50l-330 435h-6l1 -41v-394h-51zM335 -46q18 0 28.5 -12t10.5 -33q1 -51 -44 -119l-27 6q29 58 25 84q-30 2 -30 36q0 17 10 27.5t27 10.5z" />
    <glyph glyph-name="Eng.sc" horiz-adv-x="718" 
d="M429 -230l-8 42q59 15 81.5 54.5t22.5 129.5v5l-329 433h-6q0 -5 0.5 -17t0.5 -18v-399h-51v521h51l328 -432h6v432h51v-535q0 -202 -147 -216z" />
    <glyph glyph-name="Ntilde.sc" horiz-adv-x="670" 
d="M226 597l-34 17q15 29 39.5 47.5t49.5 18.5q21 0 53.5 -18t49.5 -18q25 0 56 33l35 -19q-36 -62 -90 -62q-24 0 -56 17.5t-46 17.5q-30 0 -57 -34zM117 0v522h50l329 -433h6v433h51v-522h-50l-330 435h-6l1 -41v-394h-51z" />
    <glyph glyph-name="O.sc" horiz-adv-x="675" 
d="M338 532q118 0 188 -74t70 -196t-70 -196t-188 -74q-119 0 -189 74t-70 196t70 196t189 74zM338 37q94 0 149.5 60.5t55.5 164.5t-55.5 164.5t-149.5 60.5t-149.5 -60.5t-55.5 -164.5t55.5 -164.5t149.5 -60.5z" />
    <glyph glyph-name="Oacute.sc" horiz-adv-x="675" 
d="M481 658l-185 -80l-16 39l179 96l23 -50zM338 532q118 0 188 -74t70 -196t-70 -196t-188 -74q-119 0 -189 74t-70 196t70 196t189 74zM338 37q94 0 149.5 60.5t55.5 164.5t-55.5 164.5t-149.5 60.5t-149.5 -60.5t-55.5 -164.5t55.5 -164.5t149.5 -60.5z" />
    <glyph glyph-name="Ocircumflex.sc" horiz-adv-x="675" 
d="M333 658l-126 -82l-25 32v6l146 92h11l144 -93v-5l-24 -33zM338 532q118 0 188 -74t70 -196t-70 -196t-188 -74q-119 0 -189 74t-70 196t70 196t189 74zM338 37q94 0 149.5 60.5t55.5 164.5t-55.5 164.5t-149.5 60.5t-149.5 -60.5t-55.5 -164.5t55.5 -164.5t149.5 -60.5z
" />
    <glyph glyph-name="Odieresis.sc" horiz-adv-x="675" 
d="M233 593q-18 0 -29 11t-11 28t11 28t29 11t29.5 -11t11.5 -28t-11.5 -28t-29.5 -11zM416 593q-18 0 -29 11t-11 28t11 28t29 11t29.5 -11t11.5 -28t-11.5 -28t-29.5 -11zM338 532q118 0 188 -74t70 -196t-70 -196t-188 -74q-119 0 -189 74t-70 196t70 196t189 74zM338 37
q94 0 149.5 60.5t55.5 164.5t-55.5 164.5t-149.5 60.5t-149.5 -60.5t-55.5 -164.5t55.5 -164.5t149.5 -60.5z" />
    <glyph glyph-name="Ograve.sc" horiz-adv-x="675" 
d="M362 578l-184 80l-1 5l22 50l179 -96zM338 532q118 0 188 -74t70 -196t-70 -196t-188 -74q-119 0 -189 74t-70 196t70 196t189 74zM338 37q94 0 149.5 60.5t55.5 164.5t-55.5 164.5t-149.5 60.5t-149.5 -60.5t-55.5 -164.5t55.5 -164.5t149.5 -60.5z" />
    <glyph glyph-name="Ohungarumlaut.sc" horiz-adv-x="675" 
d="M405 701l-157 -127l-26 33l148 141l35 -42v-5zM393 572l-21 36l163 123l28 -46v-5zM338 532q118 0 188 -74t70 -196t-70 -196t-188 -74q-119 0 -189 74t-70 196t70 196t189 74zM338 37q94 0 149.5 60.5t55.5 164.5t-55.5 164.5t-149.5 60.5t-149.5 -60.5t-55.5 -164.5
t55.5 -164.5t149.5 -60.5z" />
    <glyph glyph-name="Omacron.sc" horiz-adv-x="675" 
d="M460 654v-45h-257v45h257zM338 532q118 0 188 -74t70 -196t-70 -196t-188 -74q-119 0 -189 74t-70 196t70 196t189 74zM338 37q94 0 149.5 60.5t55.5 164.5t-55.5 164.5t-149.5 60.5t-149.5 -60.5t-55.5 -164.5t55.5 -164.5t149.5 -60.5z" />
    <glyph glyph-name="uni01EA.sc" horiz-adv-x="675" 
d="M355 -8q-61 -54 -61 -110q0 -22 11 -37t29 -15t30 4l6 -34q-18 -9 -41 -9q-35 0 -55.5 23t-20.5 60q0 70 59 119q-108 8 -170.5 81t-62.5 188q0 122 70 196t189 74q118 0 188 -74t70 -196q0 -117 -65 -190.5t-176 -79.5zM133 262q0 -104 55.5 -164.5t149.5 -60.5
t149.5 60.5t55.5 164.5t-55.5 164.5t-149.5 60.5t-149.5 -60.5t-55.5 -164.5z" />
    <glyph glyph-name="Oslash.sc" horiz-adv-x="675" 
d="M507 476q89 -73 89 -214q0 -122 -70 -196t-188 -74q-73 0 -130 30l-75 -111l-33 23l74 110q-95 73 -95 218q0 122 70 196t189 74q76 0 136 -33l69 100l35 -21zM338 37q94 0 149.5 60.5t55.5 164.5t-55.5 164.5t-149.5 60.5t-149.5 -60.5t-55.5 -164.5t55.5 -164.5
t149.5 -60.5z" />
    <glyph glyph-name="Oslashacute.sc" horiz-adv-x="675" 
d="M518 655l-185 -80l-16 39l179 96l23 -50zM507 476q89 -73 89 -214q0 -122 -70 -196t-188 -74q-73 0 -130 30l-75 -111l-33 23l74 110q-95 73 -95 218q0 122 70 196t189 74q76 0 136 -33l69 100l35 -21zM338 37q94 0 149.5 60.5t55.5 164.5t-55.5 164.5t-149.5 60.5
t-149.5 -60.5t-55.5 -164.5t55.5 -164.5t149.5 -60.5z" />
    <glyph glyph-name="Otilde.sc" horiz-adv-x="675" 
d="M286 632q-30 0 -57 -34l-34 17q15 29 39.5 47.5t49.5 18.5q21 0 53.5 -18t49.5 -18q25 0 56 33l35 -19q-36 -62 -90 -62q-24 0 -56 17.5t-46 17.5zM338 532q118 0 188 -74t70 -196t-70 -196t-188 -74q-119 0 -189 74t-70 196t70 196t189 74zM338 37q94 0 149.5 60.5
t55.5 164.5t-55.5 164.5t-149.5 60.5t-149.5 -60.5t-55.5 -164.5t55.5 -164.5t149.5 -60.5z" />
    <glyph glyph-name="OE.sc" horiz-adv-x="938" 
d="M861 43l-5 -43h-439q-37 -8 -73 -8q-121 0 -193 74t-72 196t72 196t193 74q36 0 73 -8h440v-43h-347q89 -67 97 -195h203v-41h-202q-6 -133 -98 -202h351zM133 262q0 -104 57.5 -164.5t153.5 -60.5q30 0 55 6h1q73 17 114 74t41 145q0 104 -57 164.5t-154 60.5
q-96 0 -153.5 -60.5t-57.5 -164.5z" />
    <glyph glyph-name="P.sc" horiz-adv-x="566" 
d="M274 524q110 0 169 -43.5t59 -125.5q0 -79 -60.5 -124t-167.5 -45h-104v-186h-53v524h157zM275 481h-105v-254h105q81 0 127.5 34.5t46.5 93.5q0 126 -174 126z" />
    <glyph glyph-name="Q.sc" horiz-adv-x="681" 
d="M361 -8q64 -104 236 -110v-42q-111 4 -185.5 45.5t-104.5 108.5q-108 10 -168 82t-60 186q0 124 69.5 197t192.5 73t192.5 -73t69.5 -197q0 -121 -64.5 -192.5t-177.5 -77.5zM133 262q0 -107 54.5 -166t153.5 -59t154 59t55 166t-55 166t-154 59t-153.5 -59t-54.5 -166z
" />
    <glyph glyph-name="R.sc" horiz-adv-x="577" 
d="M513 6l1 -6h-57l-146 187q-13 17 -40 17h-101v-204h-53v524h166q97 0 154 -41t57 -114q0 -55 -38.5 -97.5t-103.5 -59.5v-2l4 -4t5.5 -6.5t6.5 -7.5zM170 246h105q73 0 120 34t47 88t-43.5 83.5t-119.5 29.5h-109v-235z" />
    <glyph glyph-name="Racute.sc" horiz-adv-x="577" 
d="M410 659l-185 -80l-16 39l179 96l23 -50zM513 6l1 -6h-57l-146 187q-13 17 -40 17h-101v-204h-53v524h166q97 0 154 -41t57 -114q0 -55 -38.5 -97.5t-103.5 -59.5v-2l4 -4t5.5 -6.5t6.5 -7.5zM170 246h105q73 0 120 34t47 88t-43.5 83.5t-119.5 29.5h-109v-235z" />
    <glyph glyph-name="Rcaron.sc" horiz-adv-x="577" 
d="M262 576h-11l-146 93v5l25 33l126 -82l126 82l24 -32v-6zM513 6l1 -6h-57l-146 187q-13 17 -40 17h-101v-204h-53v524h166q97 0 154 -41t57 -114q0 -55 -38.5 -97.5t-103.5 -59.5v-2l4 -4t5.5 -6.5t6.5 -7.5zM170 246h105q73 0 120 34t47 88t-43.5 83.5t-119.5 29.5h-109
v-235z" />
    <glyph glyph-name="Rcommaaccent.sc" horiz-adv-x="577" 
d="M513 6l1 -6h-57l-146 187q-13 17 -40 17h-101v-204h-53v524h166q97 0 154 -41t57 -114q0 -55 -38.5 -97.5t-103.5 -59.5v-2l4 -4t5.5 -6.5t6.5 -7.5zM170 246h105q73 0 120 34t47 88t-43.5 83.5t-119.5 29.5h-109v-235zM292 -46q18 0 28.5 -12t10.5 -33q1 -51 -44 -119
l-27 6q29 58 25 84q-30 2 -30 36q0 17 10 27.5t27 10.5z" />
    <glyph glyph-name="S.sc" horiz-adv-x="541" 
d="M283 532q94 0 164 -34l-18 -41q-64 31 -146 31q-64 0 -100.5 -22.5t-36.5 -65.5q0 -38 32 -63.5t78 -40t92 -30.5t78 -48t32 -80q0 -66 -54 -105.5t-145 -39.5q-104 0 -178 38l18 42q70 -36 160 -36q67 0 106.5 26t39.5 72q0 38 -32 62.5t-77.5 38.5t-91.5 30t-78 48.5
t-32 82.5q0 64 50.5 99.5t138.5 35.5z" />
    <glyph glyph-name="Sacute.sc" horiz-adv-x="541" 
d="M428 663l-185 -80l-16 39l179 96l23 -50zM283 532q94 0 164 -34l-18 -41q-64 31 -146 31q-64 0 -100.5 -22.5t-36.5 -65.5q0 -38 32 -63.5t78 -40t92 -30.5t78 -48t32 -80q0 -66 -54 -105.5t-145 -39.5q-104 0 -178 38l18 42q70 -36 160 -36q67 0 106.5 26t39.5 72
q0 38 -32 62.5t-77.5 38.5t-91.5 30t-78 48.5t-32 82.5q0 64 50.5 99.5t138.5 35.5z" />
    <glyph glyph-name="Scaron.sc" horiz-adv-x="541" 
d="M269 580l-146 93v5l25 33l126 -82l126 82l24 -32v-6l-144 -93h-11zM283 532q94 0 164 -34l-18 -41q-64 31 -146 31q-64 0 -100.5 -22.5t-36.5 -65.5q0 -38 32 -63.5t78 -40t92 -30.5t78 -48t32 -80q0 -66 -54 -105.5t-145 -39.5q-104 0 -178 38l18 42q70 -36 160 -36
q67 0 106.5 26t39.5 72q0 38 -32 62.5t-77.5 38.5t-91.5 30t-78 48.5t-32 82.5q0 64 50.5 99.5t138.5 35.5z" />
    <glyph glyph-name="Scedilla.sc" horiz-adv-x="541" 
d="M283 532q94 0 164 -34l-18 -41q-64 31 -146 31q-64 0 -100.5 -22.5t-36.5 -65.5q0 -38 32 -63.5t78 -40t92 -30.5t78 -48t32 -80q0 -66 -54 -105.5t-145 -39.5q-104 0 -178 38l18 42q70 -36 160 -36q67 0 106.5 26t39.5 72q0 38 -32 62.5t-77.5 38.5t-91.5 30t-78 48.5
t-32 82.5q0 64 50.5 99.5t138.5 35.5zM252 -223q-38 0 -62 13l9 35q22 -11 54 -11q26 0 41 13t15 34q0 23 -21.5 40.5t-54.5 22.5l8 36q50 -7 78.5 -34t28.5 -68q0 -36 -26.5 -58.5t-69.5 -22.5z" />
    <glyph glyph-name="Scommaaccent.sc" horiz-adv-x="541" 
d="M283 532q94 0 164 -34l-18 -41q-64 31 -146 31q-64 0 -100.5 -22.5t-36.5 -65.5q0 -38 32 -63.5t78 -40t92 -30.5t78 -48t32 -80q0 -66 -54 -105.5t-145 -39.5q-104 0 -178 38l18 42q70 -36 160 -36q67 0 106.5 26t39.5 72q0 38 -32 62.5t-77.5 38.5t-91.5 30t-78 48.5
t-32 82.5q0 64 50.5 99.5t138.5 35.5zM269 -49q18 0 28.5 -12t10.5 -33q1 -51 -44 -119l-27 6q29 58 25 84q-30 2 -30 36q0 17 10 27.5t27 10.5z" />
    <glyph glyph-name="T.sc" horiz-adv-x="511" 
d="M475 524v-43h-193v-481h-52v481h-194v43h439z" />
    <glyph glyph-name="Tbar.sc" horiz-adv-x="511" 
d="M475 481h-193v-179h123v-42h-123v-260h-52v260h-125v42h125v179h-194v43h439v-43z" />
    <glyph glyph-name="Tcaron.sc" horiz-adv-x="511" 
d="M255 576h-11l-146 93v5l25 33l126 -82l126 82l24 -32v-6zM475 524v-43h-193v-481h-52v481h-194v43h439z" />
    <glyph glyph-name="uni0162.sc" horiz-adv-x="511" 
d="M36 524h439v-43h-193v-481h-52v481h-194v43zM228 -37q50 -7 78.5 -34t28.5 -68q0 -36 -26.5 -58.5t-69.5 -22.5q-38 0 -62 13l9 35q22 -11 54 -11q26 0 41 13t15 34q0 23 -21.5 40.5t-54.5 22.5z" />
    <glyph glyph-name="uni021A.sc" horiz-adv-x="511" 
d="M36 524h439v-43h-193v-481h-52v481h-194v43zM256 -46q18 0 28.5 -12t10.5 -33q1 -51 -44 -119l-27 6q29 58 25 84q-30 2 -30 36q0 17 10 27.5t27 10.5z" />
    <glyph glyph-name="U.sc" horiz-adv-x="665" 
d="M332 -8q-102 0 -160 46.5t-58 145.5v340h53v-339q0 -73 43.5 -110.5t121.5 -37.5q80 0 123 37t43 111v339h53v-340q0 -99 -58 -145.5t-161 -46.5z" />
    <glyph glyph-name="Uacute.sc" horiz-adv-x="665" 
d="M473 659l-185 -80l-16 39l179 96l23 -50zM332 -8q-102 0 -160 46.5t-58 145.5v340h53v-339q0 -73 43.5 -110.5t121.5 -37.5q80 0 123 37t43 111v339h53v-340q0 -99 -58 -145.5t-161 -46.5z" />
    <glyph glyph-name="Ucircumflex.sc" horiz-adv-x="665" 
d="M199 577l-25 32v6l146 92h11l144 -93v-5l-24 -33l-126 83zM332 -8q-102 0 -160 46.5t-58 145.5v340h53v-339q0 -73 43.5 -110.5t121.5 -37.5q80 0 123 37t43 111v339h53v-340q0 -99 -58 -145.5t-161 -46.5z" />
    <glyph glyph-name="Udieresis.sc" horiz-adv-x="665" 
d="M226 594q-18 0 -29 11t-11 28t11 28t29 11t29.5 -11t11.5 -28t-11.5 -28t-29.5 -11zM409 594q-18 0 -29 11t-11 28t11 28t29 11t29.5 -11t11.5 -28t-11.5 -28t-29.5 -11zM332 -8q-102 0 -160 46.5t-58 145.5v340h53v-339q0 -73 43.5 -110.5t121.5 -37.5q80 0 123 37
t43 111v339h53v-340q0 -99 -58 -145.5t-161 -46.5z" />
    <glyph glyph-name="Ugrave.sc" horiz-adv-x="665" 
d="M170 659l-1 5l22 50l179 -96l-16 -39zM332 -8q-102 0 -160 46.5t-58 145.5v340h53v-339q0 -73 43.5 -110.5t121.5 -37.5q80 0 123 37t43 111v339h53v-340q0 -99 -58 -145.5t-161 -46.5z" />
    <glyph glyph-name="Uhungarumlaut.sc" horiz-adv-x="665" 
d="M398 702l-157 -127l-26 33l148 141l35 -42v-5zM556 681l-170 -108l-21 36l163 123l28 -46v-5zM332 -8q-102 0 -160 46.5t-58 145.5v340h53v-339q0 -73 43.5 -110.5t121.5 -37.5q80 0 123 37t43 111v339h53v-340q0 -99 -58 -145.5t-161 -46.5z" />
    <glyph glyph-name="Umacron.sc" horiz-adv-x="665" 
d="M452 655v-45h-257v45h257zM332 -8q-102 0 -160 46.5t-58 145.5v340h53v-339q0 -73 43.5 -110.5t121.5 -37.5q80 0 123 37t43 111v339h53v-340q0 -99 -58 -145.5t-161 -46.5z" />
    <glyph glyph-name="Uogonek.sc" horiz-adv-x="665" 
d="M498 524h53v-340q0 -169 -172 -189q-64 -56 -64 -113q0 -22 11 -37t29 -15t30 4l6 -34q-18 -9 -41 -9q-35 0 -55.5 23t-20.5 60q0 68 58 118q-102 0 -160 46.5t-58 145.5v340h53v-339q0 -73 43.5 -110.5t121.5 -37.5q80 0 123 37t43 111v339z" />
    <glyph glyph-name="Uring.sc" horiz-adv-x="665" 
d="M326 571q-40 0 -65 23t-25 61q0 37 24.5 59t65.5 22q40 0 64.5 -22t24.5 -59q0 -38 -24.5 -61t-64.5 -23zM326 608q23 0 37 13t14 34q0 20 -14 32.5t-37 12.5t-37.5 -12.5t-14.5 -32.5q0 -21 14.5 -34t37.5 -13zM332 -8q-102 0 -160 46.5t-58 145.5v340h53v-339
q0 -73 43.5 -110.5t121.5 -37.5q80 0 123 37t43 111v339h53v-340q0 -99 -58 -145.5t-161 -46.5z" />
    <glyph glyph-name="Utilde.sc" horiz-adv-x="665" 
d="M221 599l-34 17q15 29 39.5 47.5t49.5 18.5q21 0 53.5 -18t49.5 -18q25 0 56 33l35 -19q-36 -62 -90 -62q-24 0 -56 17.5t-46 17.5q-30 0 -57 -34zM332 -8q-102 0 -160 46.5t-58 145.5v340h53v-339q0 -73 43.5 -110.5t121.5 -37.5q80 0 123 37t43 111v339h53v-340
q0 -99 -58 -145.5t-161 -46.5z" />
    <glyph glyph-name="V.sc" horiz-adv-x="577" 
d="M255 0l-211 518v6h53l168 -415q15 -32 21 -56h4q3 8 11 29t10 27l168 415h53v-6l-210 -518h-67z" />
    <glyph glyph-name="W.sc" horiz-adv-x="891" 
d="M232 0l-179 524h51l140 -406q1 -3 7.5 -25t8.5 -34h5l15 60l141 406h48l141 -405q12 -40 17 -61h4q3 12 8.5 32.5t7.5 26.5l140 406h52l-179 -524h-56l-139 390q-15 59 -16 61h-6q-5 -22 -17 -62l-137 -389h-57z" />
    <glyph glyph-name="Wacute.sc" horiz-adv-x="891" 
d="M593 659l-185 -80l-16 39l179 96l23 -50zM232 0l-179 524h51l140 -406q1 -3 7.5 -25t8.5 -34h5l15 60l141 406h48l141 -405q12 -40 17 -61h4q3 12 8.5 32.5t7.5 26.5l140 406h52l-179 -524h-56l-139 390q-15 59 -16 61h-6q-5 -22 -17 -62l-137 -389h-57z" />
    <glyph glyph-name="Wcircumflex.sc" horiz-adv-x="891" 
d="M319 577l-25 32v6l146 92h11l144 -93v-5l-24 -33l-126 83zM232 0l-179 524h51l140 -406q1 -3 7.5 -25t8.5 -34h5l15 60l141 406h48l141 -405q12 -40 17 -61h4q3 12 8.5 32.5t7.5 26.5l140 406h52l-179 -524h-56l-139 390q-15 59 -16 61h-6q-5 -22 -17 -62l-137 -389h-57z
" />
    <glyph glyph-name="Wdieresis.sc" horiz-adv-x="891" 
d="M345 594q-18 0 -29 11t-11 28t11 28t29 11t29.5 -11t11.5 -28t-11.5 -28t-29.5 -11zM528 594q-18 0 -29 11t-11 28t11 28t29 11t29.5 -11t11.5 -28t-11.5 -28t-29.5 -11zM232 0l-179 524h51l140 -406q1 -3 7.5 -25t8.5 -34h5l15 60l141 406h48l141 -405q12 -40 17 -61h4
q3 12 8.5 32.5t7.5 26.5l140 406h52l-179 -524h-56l-139 390q-15 59 -16 61h-6q-5 -22 -17 -62l-137 -389h-57z" />
    <glyph glyph-name="Wgrave.sc" horiz-adv-x="891" 
d="M290 659l-1 5l22 50l179 -96l-16 -39zM232 0l-179 524h51l140 -406q1 -3 7.5 -25t8.5 -34h5l15 60l141 406h48l141 -405q12 -40 17 -61h4q3 12 8.5 32.5t7.5 26.5l140 406h52l-179 -524h-56l-139 390q-15 59 -16 61h-6q-5 -22 -17 -62l-137 -389h-57z" />
    <glyph glyph-name="X.sc" horiz-adv-x="593" 
d="M65 0v5l197 261v3l-191 249v6h57l166 -219h4l165 219h58v-6l-192 -249v-3l198 -261v-5h-59l-170 229h-5l-170 -229h-58z" />
    <glyph glyph-name="Y.sc" horiz-adv-x="549" 
d="M254 0v223l-201 295v6h57l169 -256h4l168 256h56v-6l-200 -295v-223h-53z" />
    <glyph glyph-name="Yacute.sc" horiz-adv-x="549" 
d="M424 659l-185 -80l-16 39l179 96l23 -50zM254 0v223l-201 295v6h57l169 -256h4l168 256h56v-6l-200 -295v-223h-53z" />
    <glyph glyph-name="Ycircumflex.sc" horiz-adv-x="549" 
d="M150 577l-25 32v6l146 92h11l144 -93v-5l-24 -33l-126 83zM254 0v223l-201 295v6h57l169 -256h4l168 256h56v-6l-200 -295v-223h-53z" />
    <glyph glyph-name="Ydieresis.sc" horiz-adv-x="549" 
d="M176 594q-18 0 -29 11t-11 28t11 28t29 11t29.5 -11t11.5 -28t-11.5 -28t-29.5 -11zM359 594q-18 0 -29 11t-11 28t11 28t29 11t29.5 -11t11.5 -28t-11.5 -28t-29.5 -11zM254 0v223l-201 295v6h57l169 -256h4l168 256h56v-6l-200 -295v-223h-53z" />
    <glyph glyph-name="Ygrave.sc" horiz-adv-x="549" 
d="M121 659l-1 5l22 50l179 -96l-16 -39zM254 0v223l-201 295v6h57l169 -256h4l168 256h56v-6l-200 -295v-223h-53z" />
    <glyph glyph-name="uni1EF8.sc" horiz-adv-x="549" 
d="M172 599l-34 17q15 29 39.5 47.5t49.5 18.5q21 0 53.5 -18t49.5 -18q25 0 56 33l35 -19q-36 -62 -90 -62q-24 0 -56 17.5t-46 17.5q-30 0 -57 -34zM254 0v223l-201 295v6h57l169 -256h4l168 256h56v-6l-200 -295v-223h-53z" />
    <glyph glyph-name="Z.sc" horiz-adv-x="555" 
d="M72 0v35l356 444v4q-18 -2 -49 -2h-296v43h408v-36l-356 -443v-3q14 1 40 1h317l-5 -43h-415z" />
    <glyph glyph-name="Zacute.sc" horiz-adv-x="555" 
d="M429 659l-185 -80l-16 39l179 96l23 -50zM72 0v35l356 444v4q-18 -2 -49 -2h-296v43h408v-36l-356 -443v-3q14 1 40 1h317l-5 -43h-415z" />
    <glyph glyph-name="Zcaron.sc" horiz-adv-x="555" 
d="M270 576l-146 93v5l25 33l126 -82l126 82l24 -32v-6l-144 -93h-11zM72 0v35l356 444v4q-18 -2 -49 -2h-296v43h408v-36l-356 -443v-3q14 1 40 1h317l-5 -43h-415z" />
    <glyph glyph-name="Zdotaccent.sc" horiz-adv-x="555" 
d="M281 594q-18 0 -29 11t-11 28t11 28t29 11t29.5 -11t11.5 -28t-11.5 -28t-29.5 -11zM72 0v35l356 444v4q-18 -2 -49 -2h-296v43h408v-36l-356 -443v-3q14 1 40 1h317l-5 -43h-415z" />
    <glyph glyph-name="zero.osf" horiz-adv-x="602" 
d="M303 -10q-116 0 -186.5 74.5t-70.5 195.5q0 122 71 196t187 74q114 0 183 -74t69 -195q0 -122 -69.5 -196.5t-183.5 -74.5zM304 37q90 0 146 61.5t56 161.5t-56.5 161.5t-146.5 61.5q-92 0 -149.5 -61.5t-57.5 -160.5q0 -100 57.5 -162t150.5 -62z" />
    <glyph glyph-name="one.osf" horiz-adv-x="420" 
d="M246 47h138l-6 -47h-336v47h153v422h-154v45l184 7h21v-474z" />
    <glyph glyph-name="two.osf" horiz-adv-x="524" 
d="M62 0v42q27 19 76.5 51.5t72 48.5t58 42.5t52 44t35 41t25.5 46.5t7 49q0 53 -39 85t-103 32q-75 0 -155 -40l-18 41q91 49 176 47q87 -1 139 -46.5t52 -118.5q0 -87 -74 -158.5t-221 -158.5v-2h319l-6 -46h-396z" />
    <glyph glyph-name="three.osf" horiz-adv-x="492" 
d="M205 -133q-85 0 -151 33l13 45q70 -30 142 -30q83 0 128 40t45 102q0 64 -54.5 99t-134.5 35h-51l6 47h45q54 0 108 37t54 99q0 52 -35.5 80t-95.5 28q-72 0 -145 -38l-16 42q80 44 167 44q82 0 130 -42t48 -108q0 -50 -34 -93.5t-91 -64.5v-3q69 -14 109.5 -56
t40.5 -106q0 -84 -61.5 -137t-166.5 -53z" />
    <glyph glyph-name="four.osf" horiz-adv-x="512" 
d="M341 -136v145h-308l-7 44l308 477l55 -10l-298 -460l1 -4h249v245h53v-245h91l-6 -47h-85v-145h-53z" />
    <glyph glyph-name="five.osf" horiz-adv-x="504" 
d="M152 252q42 2 53 2q104 -1 167.5 -53t63.5 -136q0 -92 -63 -145.5t-166 -53.5q-75 0 -136 22l6 47q77 -22 131 -22q80 0 128 39.5t48 109.5q0 66 -55 105.5t-147 39.5q-11 0 -83 -3l-3 4l29 312h297v-50h-251z" />
    <glyph glyph-name="six.osf" horiz-adv-x="511" 
d="M280 391q84 0 134 -53t50 -142q0 -92 -53.5 -149t-140.5 -57q-96 0 -153 70.5t-57 191.5q0 79 23.5 149t67.5 125t115 87t160 32l4 -45q-135 0 -220 -81t-99 -214q62 86 169 86zM272 37q65 0 104 44t38 116q0 67 -37.5 108t-99.5 41q-104 0 -169 -92q0 -101 44.5 -159
t119.5 -58z" />
    <glyph glyph-name="seven.osf" horiz-adv-x="508" 
d="M139 -144l-48 21l297 592v2q-8 0 -25 -0.5t-25 -1.5h-278v51h392v-40z" />
    <glyph glyph-name="eight.osf" horiz-adv-x="516" 
d="M87 484q0 70 48 113t126 43q74 0 119.5 -41.5t45.5 -109.5q0 -48 -28.5 -90t-77.5 -63v-3q65 -26 103 -71t38 -101q0 -77 -57 -124t-150 -47q-92 0 -148 45.5t-56 121.5q0 54 38 100.5t100 75.5v3q-44 18 -72.5 58.5t-28.5 89.5zM269 352q45 14 76 51t32 85q0 49 -32 78
t-85 29q-56 0 -90 -30t-33 -79q0 -50 35 -85t97 -49zM241 312q-62 -22 -101 -62.5t-39 -87.5q0 -57 42.5 -91.5t111.5 -34.5t112 33.5t43 88.5q0 52 -47.5 94t-121.5 60z" />
    <glyph glyph-name="nine.osf" horiz-adv-x="510" 
d="M253 530q92 0 148.5 -73.5t56.5 -192.5q0 -105 -37 -192.5t-119.5 -145.5t-199.5 -58l-4 44q132 0 213 82.5t96 215.5q-27 -37 -71 -60t-91 -23q-87 0 -140 52.5t-53 140.5q0 95 55 152.5t146 57.5zM249 173q48 0 90.5 24t70.5 66v2q0 98 -44 158t-115 60
q-68 0 -109 -43.5t-41 -115.5q1 -68 41.5 -109.5t106.5 -41.5z" />
    <glyph glyph-name="zero.dnom" horiz-adv-x="425" 
d="M212 -10q-83 0 -128.5 56.5t-45.5 143.5t46 143.5t129 56.5q82 0 128 -57t46 -143q1 -87 -45.5 -143.5t-129.5 -56.5zM213 35q57 0 89 43.5t32 111.5q0 67 -32.5 111t-89.5 44t-88.5 -44t-31.5 -111t32 -111t89 -44z" />
    <glyph glyph-name="one.dnom" horiz-adv-x="297" 
d="M183 43h91l-6 -43h-241v43h103v299l-102 1v40l134 4h21v-344z" />
    <glyph glyph-name="two.dnom" horiz-adv-x="386" 
d="M54 0v34q13 10 36 30q54 45 78 66t52.5 50.5t39 52t10.5 46.5q0 33 -21.5 51t-56.5 19q-50 1 -111 -27l-16 41q62 34 128 34q61 0 97 -29.5t36 -83.5q0 -57 -43.5 -105.5t-141.5 -126.5l-12 -9h206l-6 -43h-275z" />
    <glyph glyph-name="three.dnom" horiz-adv-x="367" 
d="M156 -10q-63 0 -112 23l12 40q44 -19 101 -19q44 0 71 19.5t27 51.5q0 33 -32.5 52.5t-82.5 19.5h-35l8 39h30q38 0 67 21t29 53q0 27 -21 41.5t-56 14.5q-41 0 -101 -24l-13 40q53 30 118 30q53 0 88 -25.5t35 -67.5q0 -32 -20.5 -58.5t-53.5 -36.5v-3q41 -9 65.5 -35
t24.5 -63q0 -51 -41 -82t-108 -31z" />
    <glyph glyph-name="four.dnom" horiz-adv-x="362" 
d="M225 0v97h-200l-7 38l180 260l54 -5l-172 -250l1 -2h144v119h49v-119h61l-6 -41h-55v-97h-49z" />
    <glyph glyph-name="five.dnom" horiz-adv-x="371" 
d="M131 232q12 1 33 1q64 0 102.5 -31t38.5 -82q0 -58 -41.5 -93.5t-112.5 -35.5q-51 0 -88 14l7 42q35 -11 82 -11t73.5 22.5t26.5 59.5q0 76 -119 76q-8 0 -53 -3l-2 2l19 191h197v-46h-152z" />
    <glyph glyph-name="six.dnom" horiz-adv-x="369" 
d="M204 242q53 0 86.5 -34t33.5 -89q0 -58 -37 -93t-98 -35q-65 0 -101 45.5t-36 120.5q0 99 64 167t179 68l3 -42q-82 0 -130.5 -38t-60.5 -106q40 36 97 36zM190 33q38 0 60.5 23t22.5 62q0 37 -23 60.5t-59 23.5q-55 0 -88 -44v-1q0 -57 23.5 -90.5t63.5 -33.5z" />
    <glyph glyph-name="seven.dnom" horiz-adv-x="352" 
d="M115 -4l-47 5l176 340v1l-29 -1h-162v47h245v-37z" />
    <glyph glyph-name="eight.dnom" horiz-adv-x="364" 
d="M61 297q0 45 33.5 72t87.5 27q53 0 85 -25.5t32 -68.5q0 -29 -18 -55.5t-50 -38.5v-2q86 -33 86 -102q0 -50 -38.5 -80t-101.5 -30q-61 0 -98 29t-37 76q0 68 84 106v1q-27 12 -46 37t-19 54zM187 221q28 7 46 28t18 49q0 26 -19.5 42t-51.5 16q-31 0 -50.5 -16
t-19.5 -42q0 -59 77 -77zM169 185q-76 -26 -76 -81q0 -30 23.5 -49t61.5 -19q40 0 64.5 18.5t24.5 47.5q0 30 -27.5 52t-70.5 31z" />
    <glyph glyph-name="nine.dnom" horiz-adv-x="372" 
d="M183 396q67 0 104.5 -46t37.5 -119q0 -102 -66 -169t-184 -67l-3 41q84 0 134 38t63 106q-40 -35 -99 -35q-54 0 -88 34.5t-34 89.5q0 57 37 92t98 35zM181 185q55 0 92 43v1q0 58 -24 91.5t-67 33.5q-37 0 -59 -23t-22 -62q0 -37 22.5 -60.5t57.5 -23.5z" />
    <glyph glyph-name="zero.numr" horiz-adv-x="425" 
d="M212 299q-83 0 -128.5 56.5t-45.5 143.5t46 143.5t129 56.5q82 0 128 -57t46 -143q1 -87 -45.5 -143.5t-129.5 -56.5zM213 344q57 0 89 43.5t32 111.5q0 67 -32.5 111t-89.5 44t-88.5 -44t-31.5 -111t32 -111t89 -44z" />
    <glyph glyph-name="one.numr" horiz-adv-x="297" 
d="M183 346h91l-6 -43h-241v43h103v299l-102 1v40l134 4h21v-344z" />
    <glyph glyph-name="two.numr" horiz-adv-x="386" 
d="M54 302v34q13 10 36 30q54 45 78 66t52.5 50.5t39 52t10.5 46.5q0 33 -21.5 51t-56.5 19q-50 1 -111 -27l-16 41q62 34 128 34q61 0 97 -29.5t36 -83.5q0 -57 -43.5 -105.5t-141.5 -126.5l-12 -9h206l-6 -43h-275z" />
    <glyph glyph-name="three.numr" horiz-adv-x="367" 
d="M156 298q-63 0 -112 23l12 40q44 -19 101 -19q44 0 71 19.5t27 51.5q0 33 -32.5 52.5t-82.5 19.5h-35l8 39h30q38 0 67 21t29 53q0 27 -21 41.5t-56 14.5q-41 0 -101 -24l-13 40q53 30 118 30q53 0 88 -25.5t35 -67.5q0 -32 -20.5 -58.5t-53.5 -36.5v-3q41 -9 65.5 -35
t24.5 -63q0 -51 -41 -82t-108 -31z" />
    <glyph glyph-name="four.numr" horiz-adv-x="362" 
d="M225 305v97h-200l-7 38l180 260l54 -5l-172 -250l1 -2h144v119h49v-119h61l-6 -41h-55v-97h-49z" />
    <glyph glyph-name="five.numr" horiz-adv-x="371" 
d="M131 538q12 1 33 1q64 0 102.5 -31t38.5 -82q0 -58 -41.5 -93.5t-112.5 -35.5q-51 0 -88 14l7 42q35 -11 82 -11t73.5 22.5t26.5 59.5q0 76 -119 76q-8 0 -53 -3l-2 2l19 191h197v-46h-152z" />
    <glyph glyph-name="six.numr" horiz-adv-x="369" 
d="M204 550q53 0 86.5 -34t33.5 -89q0 -58 -37 -93t-98 -35q-65 0 -101 45.5t-36 120.5q0 99 64 167t179 68l3 -42q-82 0 -130.5 -38t-60.5 -106q40 36 97 36zM190 341q38 0 60.5 23t22.5 62q0 37 -23 60.5t-59 23.5q-55 0 -88 -44v-1q0 -57 23.5 -90.5t63.5 -33.5z" />
    <glyph glyph-name="seven.numr" horiz-adv-x="352" 
d="M115 302l-47 5l176 340v1l-29 -1h-162v47h245v-37z" />
    <glyph glyph-name="eight.numr" horiz-adv-x="364" 
d="M61 600q0 45 33.5 72t87.5 27q53 0 85 -25.5t32 -68.5q0 -29 -18 -55.5t-50 -38.5v-2q86 -33 86 -102q0 -49 -38.5 -79.5t-101.5 -30.5q-61 0 -98 29t-37 76q0 68 84 106v1q-27 12 -46 37t-19 54zM187 524q28 7 46 28t18 49q0 26 -19.5 42t-51.5 16q-31 0 -50.5 -16
t-19.5 -42q0 -59 77 -77zM169 488q-76 -26 -76 -81q0 -30 23.5 -49t61.5 -19q40 0 64.5 18.5t24.5 47.5q0 30 -27.5 52t-70.5 31z" />
    <glyph glyph-name="nine.numr" horiz-adv-x="372" 
d="M183 699q67 0 104.5 -46t37.5 -119q0 -102 -66 -169t-184 -67l-3 41q84 0 134 38t63 106q-40 -35 -99 -35q-54 0 -88 34.5t-34 89.5q0 57 37 92t98 35zM181 488q55 0 92 43v1q0 58 -24 91.5t-67 33.5q-37 0 -59 -23t-22 -62q0 -37 22.5 -60.5t57.5 -23.5z" />
    <glyph glyph-name="numbersign.ss01" horiz-adv-x="637" 
d="M581 332h-122l-19 -135h124l-6 -42h-124l-21 -155h-49l21 155h-173l-21 -155h-49l21 155h-135l4 42h137l19 135h-137l5 42h138l20 147h49l-20 -147h173l20 147h49l-20 -147h122zM391 197l19 135h-173l-19 -135h173z" />
    <glyph glyph-name="dollar.ss01" horiz-adv-x="480" 
d="M228 569v115h50v-115h-50zM244 -10q-115 0 -190 46l16 47q78 -45 176 -45q58 0 96.5 26.5t39.5 68.5q0 41 -32.5 66.5t-79 38.5t-93 27t-79 46t-32.5 82q0 68 51.5 107t141.5 39q83 0 157 -33l-15 -46q-73 31 -145 31q-64 0 -100.5 -25.5t-36.5 -69.5q0 -36 32.5 -59
t79.5 -36.5t93.5 -29.5t79 -50t32.5 -85q-3 -67 -54.5 -106.5t-137.5 -39.5zM227 -156v115h51v-115h-51z" />
    <glyph glyph-name="Euro.ss01" horiz-adv-x="595" 
d="M446 333l-13 -43h-385l13 43h67q18 99 86 152t184 53q81 0 155 -32l-15 -45q-66 29 -142 29q-178 0 -214 -157h264zM544 70l15 -45q-64 -35 -166 -35q-111 0 -178 52t-85 146h-82l13 43h359l-12 -43h-224q17 -72 71.5 -111t140.5 -39q90 0 148 32z" />
    <glyph glyph-name="sterling.ss01" horiz-adv-x="555" 
d="M33 0v43h79v182h-86l12 42h74v65q0 98 59.5 152.5t160.5 54.5q98 0 173 -33l-14 -41q-69 30 -159 30q-82 0 -127.5 -43t-45.5 -122v-63h268l-13 -42h-255v-182h359l-15 -43h-470z" />
    <glyph glyph-name="yen.ss01" horiz-adv-x="576" 
d="M41 229l10 42h166l-191 256v4h58l198 -260h25l196 260h58v-5l-192 -255h176l-10 -42h-494zM266 0v128h-225l10 42h494l-10 -42h-215v-128h-54z" />
    <glyph glyph-name="percent.ss01" horiz-adv-x="736" 
d="M170 5l353 531l39 -25l-355 -532zM170 234q-60 0 -97 41t-37 106q0 66 38 107.5t98 41.5t97 -41t37 -105q0 -66 -37.5 -108t-98.5 -42zM172 277q40 0 64 28.5t24 76.5q0 47 -24.5 76t-64.5 29t-64.5 -28.5t-24.5 -75.5q0 -48 24.5 -77t65.5 -29zM565 -8q-60 0 -97 41.5
t-37 105.5q0 66 38 107.5t99 41.5q60 0 96.5 -41t36.5 -105q0 -66 -37.5 -108t-98.5 -42zM567 35q40 0 64 29t24 76t-24 76t-64 29q-41 0 -65.5 -28.5t-24.5 -75.5q0 -48 24.5 -77t65.5 -29z" />
    <glyph glyph-name="perthousand.ss01" horiz-adv-x="976" 
d="M170 5l353 531l39 -25l-355 -532zM170 234q-60 0 -97 41t-37 106q0 66 38 107.5t98 41.5t97 -41t37 -105q0 -66 -37.5 -108t-98.5 -42zM172 277q40 0 64 28.5t24 76.5q0 47 -24.5 76t-64.5 29t-64.5 -28.5t-24.5 -75.5q0 -48 24.5 -77t65.5 -29zM565 -8q-60 0 -97 41.5
t-37 105.5q0 66 38 107.5t99 41.5q60 0 96.5 -41t36.5 -105q0 -66 -37.5 -108t-98.5 -42zM879 -8q-60 0 -96.5 41t-36.5 106q0 66 37.5 107.5t98.5 41.5q60 0 96.5 -41t36.5 -105q0 -66 -37.5 -108t-98.5 -42zM567 35q40 0 64 29t24 76t-24 76t-64 29q-41 0 -65.5 -28.5
t-24.5 -75.5q0 -48 24.5 -77t65.5 -29zM881 35q40 0 64 29t24 76t-24 76t-64 29q-41 0 -65.5 -28.5t-24.5 -75.5q0 -48 24.5 -77t65.5 -29z" />
    <glyph glyph-name="at.sc" horiz-adv-x="857" 
d="M601 79q57 18 93.5 66.5t36.5 111.5q0 115 -78 185.5t-206 70.5q-145 0 -233.5 -88t-88.5 -233q0 -135 90.5 -218t235.5 -83q76 0 155 34l14 -40q-84 -38 -170 -38q-166 0 -268.5 94.5t-102.5 248.5q0 165 102 266t268 101q147 0 237.5 -82t90.5 -215q0 -93 -60 -157.5
t-142 -69.5l-6 17l-33 80h-190l-39 -94h-44l147 362h61zM361 168h159l-57 139q-2 5 -10 25.5t-11 28.5h-2l-22 -54z" />
    <glyph glyph-name="ampersand.sc" horiz-adv-x="674" 
d="M613 282v-41h-95q4 -88 -52 -159q65 -41 144 -85l-21 -36q-83 46 -152 91q-70 -60 -165 -60q-89 0 -140 33.5t-51 89.5q0 79 109 151q-54 75 -54 141q0 58 37.5 91t99.5 33q46 0 102 -25l-20 -41q-46 22 -82 23q-93 -2 -93 -77q0 -137 248 -304q48 57 40 134v41h145z
M271 36q76 2 127 42q-115 80 -181 155q-86 -58 -86 -111q0 -40 37 -63.5t103 -22.5z" />
    <glyph glyph-name="caron.alt" horiz-adv-x="205" 
d="M102 731q38 0 38 -45q1 -51 -44 -119l-26 7q29 56 25 83q-14 1 -22.5 10.5t-8.5 25.5q0 17 10.5 27.5t27.5 10.5z" />
    <glyph glyph-name="IJacute.sc" horiz-adv-x="672" 
d="M88 618l179 96l23 -50l-1 -5l-185 -80zM568 659l-185 -80l-16 39l180 96l22 -50zM571 525v-417q0 -54 -34 -85t-94 -31q-56 0 -101 19l11 41q38 -14 84 -14q38 0 59.5 19t21.5 53v370h-131v45h184zM117 0v524h53v-524h-53z" />
    </font>
</defs>
</svg>
